<?xml version="1.0" encoding="UTF-8" standalone="no"?>
<svg
   xmlns:dc="http://purl.org/dc/elements/1.1/"
   xmlns:cc="http://creativecommons.org/ns#"
   xmlns:rdf="http://www.w3.org/1999/02/22-rdf-syntax-ns#"
   xmlns:svg="http://www.w3.org/2000/svg"
   xmlns="http://www.w3.org/2000/svg"
   xmlns:sodipodi="http://sodipodi.sourceforge.net/DTD/sodipodi-0.dtd"
   xmlns:inkscape="http://www.inkscape.org/namespaces/inkscape"
   sodipodi:docname="knm.svg"
   inkscape:version="1.0 (4035a4fb49, 2020-05-01)"
   id="svg8"
   version="1.1"
   viewBox="0 0 240 120"
   height="120mm"
   width="240mm">
  <defs
     id="defs2" />
  <sodipodi:namedview
     inkscape:document-rotation="0"
     inkscape:window-maximized="1"
     inkscape:window-y="18"
     inkscape:window-x="960"
     inkscape:window-height="1043"
     inkscape:window-width="958"
     inkscape:guide-bbox="true"
     showguides="true"
     width="200mm"
     showborder="true"
     showgrid="false"
     inkscape:current-layer="layer1"
     inkscape:document-units="mm"
     inkscape:cy="285.85445"
     inkscape:cx="391.44263"
     inkscape:zoom="1.406257"
     inkscape:pageshadow="2"
     inkscape:pageopacity="0.0"
     borderopacity="1.0"
     bordercolor="#666666"
     pagecolor="#ffffff"
     id="base">
    <inkscape:grid
       dotted="false"
       empspacing="4"
       spacingy="10"
       spacingx="10"
       units="mm"
       id="grid815"
       type="xygrid" />
  </sodipodi:namedview>
  <metadata
     id="metadata5">
    <rdf:RDF>
      <cc:Work
         rdf:about="">
        <dc:format>image/svg+xml</dc:format>
        <dc:type
           rdf:resource="http://purl.org/dc/dcmitype/StillImage" />
        <dc:title></dc:title>
      </cc:Work>
    </rdf:RDF>
  </metadata>
  <g
     transform="translate(0,-177)"
     id="layer1"
     inkscape:groupmode="layer"
     inkscape:label="Layer 1">
    <ellipse
       ry="2.6628332"
       rx="2.8335671"
       cy="203.97011"
       cx="46.20752"
       id="path8"
       style="opacity:0.99;fill:#000000;stroke:none;stroke-width:0.665001;stroke-linecap:round;stroke-linejoin:round;paint-order:stroke fill markers;fill-opacity:1" />
    <ellipse
       style="opacity:0.99;fill:#000000;fill-opacity:1;stroke:none;stroke-width:0.665001;stroke-linecap:round;stroke-linejoin:round;paint-order:stroke fill markers"
       id="path8-3"
       cx="69.990761"
       cy="204.4695"
       rx="2.8335671"
       ry="2.6628332" />
    <ellipse
       style="opacity:0.99;fill:#000000;fill-opacity:1;stroke:none;stroke-width:0.665001;stroke-linecap:round;stroke-linejoin:round;paint-order:stroke fill markers"
       id="path8-6"
       cx="144.12076"
       cy="203.7169"
       rx="2.8335671"
       ry="2.6628332" />
    <ellipse
       style="opacity:0.99;fill:#000000;fill-opacity:1;stroke:none;stroke-width:0.665001;stroke-linecap:round;stroke-linejoin:round;paint-order:stroke fill markers"
       id="path8-7"
       cx="164.06436"
       cy="203.7169"
       rx="2.8335671"
       ry="2.6628332" />
    <ellipse
       style="opacity:0.99;fill:#000000;fill-opacity:1;stroke:none;stroke-width:0.665001;stroke-linecap:round;stroke-linejoin:round;paint-order:stroke fill markers"
       id="path8-5"
       cx="40.639797"
       cy="257.90329"
       rx="2.8335671"
       ry="2.6628332" />
    <ellipse
       style="opacity:0.99;fill:#000000;fill-opacity:1;stroke:none;stroke-width:0.665001;stroke-linecap:round;stroke-linejoin:round;paint-order:stroke fill markers"
       id="path8-35"
       cx="66.227814"
       cy="257.52701"
       rx="2.8335671"
       ry="2.6628332" />
    <ellipse
       style="opacity:0.99;fill:#000000;fill-opacity:1;stroke:none;stroke-width:0.665001;stroke-linecap:round;stroke-linejoin:round;paint-order:stroke fill markers"
       id="path8-62"
       cx="142.61559"
       cy="260.16107"
       rx="2.8335671"
       ry="2.6628332" />
    <ellipse
       style="opacity:0.99;fill:#000000;fill-opacity:1;stroke:none;stroke-width:0.665001;stroke-linecap:round;stroke-linejoin:round;paint-order:stroke fill markers"
       id="path8-9"
       cx="167.07472"
       cy="260.24341"
       rx="2.8335671"
       ry="2.6628332" />
    <path
       id="path890"
       d="m 41.031456,257.98371 5.403971,-54.2168 20.759584,54.34182"
       style="font-variation-settings:normal;opacity:1;vector-effect:none;fill:none;fill-opacity:1;stroke:#000000;stroke-width:0.264583px;stroke-linecap:butt;stroke-linejoin:miter;stroke-miterlimit:4;stroke-dasharray:none;stroke-dashoffset:0;stroke-opacity:1;stop-color:#000000;stop-opacity:1" />
    <path
       id="path892"
       d="m 46.435427,203.76691 96.577143,56.73387"
       style="font-variation-settings:normal;opacity:1;vector-effect:none;fill:none;fill-opacity:1;stroke:#000000;stroke-width:0.264583px;stroke-linecap:butt;stroke-linejoin:miter;stroke-miterlimit:4;stroke-dasharray:none;stroke-dashoffset:0;stroke-opacity:1;stop-color:#000000;stop-opacity:1" />
    <path
       id="path894"
       d="M 46.435427,203.76691 167.05159,259.86542"
       style="font-variation-settings:normal;opacity:1;vector-effect:none;fill:none;fill-opacity:1;stroke:#000000;stroke-width:0.264583px;stroke-linecap:butt;stroke-linejoin:miter;stroke-miterlimit:4;stroke-dasharray:none;stroke-dashoffset:0;stroke-opacity:1;stop-color:#000000;stop-opacity:1" />
    <path
       id="path896"
       d="m 41.031456,257.98371 29.569727,-54.25743 -3.406172,54.38245"
       style="font-variation-settings:normal;opacity:1;vector-effect:none;fill:none;fill-opacity:1;stroke:#000000;stroke-width:0.264583px;stroke-linecap:butt;stroke-linejoin:miter;stroke-miterlimit:4;stroke-dasharray:none;stroke-dashoffset:0;stroke-opacity:1;stop-color:#000000;stop-opacity:1" />
    <path
       id="path898"
       d="M 144.92006,204.24975 41.031456,257.98371"
       style="font-variation-settings:normal;opacity:1;vector-effect:none;fill:none;fill-opacity:1;stroke:#000000;stroke-width:0.264583px;stroke-linecap:butt;stroke-linejoin:miter;stroke-miterlimit:4;stroke-dasharray:none;stroke-dashoffset:0;stroke-opacity:1;stop-color:#000000;stop-opacity:1" />
    <path
       id="path900"
       d="m 67.195011,258.10873 77.725049,-53.85898 -1.90749,56.25103"
       style="font-variation-settings:normal;opacity:1;vector-effect:none;fill:none;fill-opacity:1;stroke:#000000;stroke-width:0.264583px;stroke-linecap:butt;stroke-linejoin:miter;stroke-miterlimit:4;stroke-dasharray:none;stroke-dashoffset:0;stroke-opacity:1;stop-color:#000000;stop-opacity:1" />
    <path
       id="path902"
       d="m 167.05159,259.86542 -96.450407,-56.13914 72.411387,56.7745"
       style="font-variation-settings:normal;opacity:1;vector-effect:none;fill:none;fill-opacity:1;stroke:#000000;stroke-width:0.264583px;stroke-linecap:butt;stroke-linejoin:miter;stroke-miterlimit:4;stroke-dasharray:none;stroke-dashoffset:0;stroke-opacity:1;stop-color:#000000;stop-opacity:1" />
    <path
       id="path904"
       d="m 144.92006,204.24975 22.13153,55.61567"
       style="font-variation-settings:normal;opacity:1;vector-effect:none;fill:none;fill-opacity:1;stroke:#000000;stroke-width:0.264583px;stroke-linecap:butt;stroke-linejoin:miter;stroke-miterlimit:4;stroke-dasharray:none;stroke-dashoffset:0;stroke-opacity:1;stop-color:#000000;stop-opacity:1" />
    <path
       id="path906"
       d="M 41.031456,257.98371 163.98937,203.58105 67.195011,258.10873"
       style="font-variation-settings:normal;opacity:1;vector-effect:none;fill:none;fill-opacity:1;stroke:#000000;stroke-width:0.264583px;stroke-linecap:butt;stroke-linejoin:miter;stroke-miterlimit:4;stroke-dasharray:none;stroke-dashoffset:0;stroke-opacity:1;stop-color:#000000;stop-opacity:1" />
    <path
       id="path908"
       d="m 143.01257,260.50078 20.9768,-56.91973 3.06222,56.28437"
       style="font-variation-settings:normal;opacity:1;vector-effect:none;fill:none;fill-opacity:1;stroke:#000000;stroke-width:0.264583px;stroke-linecap:butt;stroke-linejoin:miter;stroke-miterlimit:4;stroke-dasharray:none;stroke-dashoffset:0;stroke-opacity:1;stop-color:#000000;stop-opacity:1" />
    <path
       id="path910"
       d="M 46.435427,203.76691 90.46819,255.36284"
       style="font-variation-settings:normal;opacity:1;vector-effect:none;fill:none;fill-opacity:1;stroke:#000000;stroke-width:0.264583px;stroke-linecap:butt;stroke-linejoin:miter;stroke-miterlimit:4;stroke-dasharray:none;stroke-dashoffset:0;stroke-opacity:1;stop-color:#000000;stop-opacity:1" />
    <path
       id="path912"
       d="m 70.601183,203.72628 29.343934,50.57773"
       style="font-variation-settings:normal;opacity:1;vector-effect:none;fill:none;fill-opacity:1;stroke:#000000;stroke-width:0.264583px;stroke-linecap:butt;stroke-linejoin:miter;stroke-miterlimit:4;stroke-dasharray:none;stroke-dashoffset:0;stroke-opacity:1;stop-color:#000000;stop-opacity:1" />
    <path
       id="path914"
       d="m 144.92006,204.24975 -34.72044,49.66202"
       style="font-variation-settings:normal;opacity:1;vector-effect:none;fill:none;fill-opacity:1;stroke:#000000;stroke-width:0.264583px;stroke-linecap:butt;stroke-linejoin:miter;stroke-miterlimit:4;stroke-dasharray:none;stroke-dashoffset:0;stroke-opacity:1;stop-color:#000000;stop-opacity:1" />
    <path
       id="path916"
       d="m 163.98937,203.58105 -43.86429,52.21952"
       style="font-variation-settings:normal;opacity:1;vector-effect:none;fill:none;fill-opacity:1;stroke:#000000;stroke-width:0.264583px;stroke-linecap:butt;stroke-linejoin:miter;stroke-miterlimit:4;stroke-dasharray:none;stroke-dashoffset:0;stroke-opacity:1;stop-color:#000000;stop-opacity:1" />
    <path
       id="path918"
       d="m 41.031456,257.98371 53.15069,-53.50856"
       style="font-variation-settings:normal;opacity:1;vector-effect:none;fill:none;fill-opacity:1;stroke:#000000;stroke-width:0.264583px;stroke-linecap:butt;stroke-linejoin:miter;stroke-miterlimit:4;stroke-dasharray:none;stroke-dashoffset:0;stroke-opacity:1;stop-color:#000000;stop-opacity:1" />
    <path
       id="path920"
       d="M 67.195011,258.10873 103.98082,206.60851"
       style="font-variation-settings:normal;opacity:1;vector-effect:none;fill:none;fill-opacity:1;stroke:#000000;stroke-width:0.264583px;stroke-linecap:butt;stroke-linejoin:miter;stroke-miterlimit:4;stroke-dasharray:none;stroke-dashoffset:0;stroke-opacity:1;stop-color:#000000;stop-opacity:1" />
    <path
       id="path922"
       d="M 143.01257,260.50078 116.17254,205.8795"
       style="font-variation-settings:normal;opacity:1;vector-effect:none;fill:none;fill-opacity:1;stroke:#000000;stroke-width:0.264583px;stroke-linecap:butt;stroke-linejoin:miter;stroke-miterlimit:4;stroke-dasharray:none;stroke-dashoffset:0;stroke-opacity:1;stop-color:#000000;stop-opacity:1" />
    <path
       sodipodi:nodetypes="cc"
       id="path924"
       d="M 167.05159,259.86542 124.21607,205.03227"
       style="font-variation-settings:normal;opacity:1;vector-effect:none;fill:none;fill-opacity:1;stroke:#000000;stroke-width:0.264583px;stroke-linecap:butt;stroke-linejoin:miter;stroke-miterlimit:4;stroke-dasharray:none;stroke-dashoffset:0;stroke-opacity:1;stop-color:#000000;stop-opacity:1" />
    <g
       style="font-size:6.35px;line-height:1.25;font-family:sans-serif;letter-spacing:0px;stroke-width:0.264583"
       id="text928"
       aria-label="..................................">
      <path
         id="path1052"
         style="font-size:6.35px;stroke-width:0.264583"
         d="m 76.886824,202.32328 q 0,-0.11782 0.03101,-0.19843 0.03101,-0.0837 0.08372,-0.13333 0.05271,-0.0527 0.124023,-0.0744 0.07131,-0.0248 0.155029,-0.0248 0.08062,0 0.151929,0.0248 0.07441,0.0217 0.127124,0.0744 0.05271,0.0496 0.08372,0.13333 0.03101,0.0806 0.03101,0.19843 0,0.11473 -0.03101,0.19844 -0.03101,0.0806 -0.08372,0.13333 -0.05271,0.0527 -0.127124,0.0775 -0.07131,0.0248 -0.151929,0.0248 -0.08371,0 -0.155029,-0.0248 -0.07131,-0.0248 -0.124023,-0.0775 -0.05271,-0.0527 -0.08372,-0.13333 -0.03101,-0.0837 -0.03101,-0.19844 z" />
      <path
         id="path1054"
         style="font-size:6.35px;stroke-width:0.264583"
         d="m 78.589046,202.32328 q 0,-0.11782 0.03101,-0.19843 0.031,-0.0837 0.08371,-0.13333 0.05271,-0.0527 0.124024,-0.0744 0.07131,-0.0248 0.155029,-0.0248 0.08061,0 0.151929,0.0248 0.07441,0.0217 0.127124,0.0744 0.05271,0.0496 0.08372,0.13333 0.031,0.0806 0.031,0.19843 0,0.11473 -0.031,0.19844 -0.03101,0.0806 -0.08372,0.13333 -0.05271,0.0527 -0.127124,0.0775 -0.07131,0.0248 -0.151929,0.0248 -0.08372,0 -0.155029,-0.0248 -0.07131,-0.0248 -0.124024,-0.0775 -0.05271,-0.0527 -0.08371,-0.13333 -0.03101,-0.0837 -0.03101,-0.19844 z" />
      <path
         id="path1056"
         style="font-size:6.35px;stroke-width:0.264583"
         d="m 80.291267,202.32328 q 0,-0.11782 0.03101,-0.19843 0.03101,-0.0837 0.08372,-0.13333 0.05271,-0.0527 0.124023,-0.0744 0.07131,-0.0248 0.15503,-0.0248 0.08062,0 0.151928,0.0248 0.07441,0.0217 0.127124,0.0744 0.05271,0.0496 0.08372,0.13333 0.03101,0.0806 0.03101,0.19843 0,0.11473 -0.03101,0.19844 -0.03101,0.0806 -0.08372,0.13333 -0.05271,0.0527 -0.127124,0.0775 -0.07131,0.0248 -0.151928,0.0248 -0.08372,0 -0.15503,-0.0248 -0.07131,-0.0248 -0.124023,-0.0775 -0.05271,-0.0527 -0.08372,-0.13333 -0.03101,-0.0837 -0.03101,-0.19844 z" />
      <path
         id="path1058"
         style="font-size:6.35px;stroke-width:0.264583"
         d="m 81.993489,202.32328 q 0,-0.11782 0.03101,-0.19843 0.031,-0.0837 0.08371,-0.13333 0.05271,-0.0527 0.124024,-0.0744 0.07131,-0.0248 0.155029,-0.0248 0.08061,0 0.151929,0.0248 0.07441,0.0217 0.127124,0.0744 0.05271,0.0496 0.08372,0.13333 0.03101,0.0806 0.03101,0.19843 0,0.11473 -0.03101,0.19844 -0.03101,0.0806 -0.08372,0.13333 -0.05271,0.0527 -0.127124,0.0775 -0.07131,0.0248 -0.151929,0.0248 -0.08372,0 -0.155029,-0.0248 -0.07131,-0.0248 -0.124024,-0.0775 -0.05271,-0.0527 -0.08371,-0.13333 -0.03101,-0.0837 -0.03101,-0.19844 z" />
      <path
         id="path1060"
         style="font-size:6.35px;stroke-width:0.264583"
         d="m 83.695711,202.32328 q 0,-0.11782 0.031,-0.19843 0.03101,-0.0837 0.08372,-0.13333 0.05271,-0.0527 0.124024,-0.0744 0.07131,-0.0248 0.155029,-0.0248 0.08062,0 0.151929,0.0248 0.07441,0.0217 0.127124,0.0744 0.05271,0.0496 0.08372,0.13333 0.03101,0.0806 0.03101,0.19843 0,0.11473 -0.03101,0.19844 -0.03101,0.0806 -0.08372,0.13333 -0.05271,0.0527 -0.127124,0.0775 -0.07131,0.0248 -0.151929,0.0248 -0.08372,0 -0.155029,-0.0248 -0.07131,-0.0248 -0.124024,-0.0775 -0.05271,-0.0527 -0.08372,-0.13333 -0.031,-0.0837 -0.031,-0.19844 z" />
      <path
         id="path1062"
         style="font-size:6.35px;stroke-width:0.264583"
         d="m 85.397932,202.32328 q 0,-0.11782 0.03101,-0.19843 0.03101,-0.0837 0.08372,-0.13333 0.05271,-0.0527 0.124024,-0.0744 0.07131,-0.0248 0.155029,-0.0248 0.08061,0 0.151929,0.0248 0.07441,0.0217 0.127124,0.0744 0.05271,0.0496 0.08371,0.13333 0.03101,0.0806 0.03101,0.19843 0,0.11473 -0.03101,0.19844 -0.03101,0.0806 -0.08371,0.13333 -0.05271,0.0527 -0.127124,0.0775 -0.07131,0.0248 -0.151929,0.0248 -0.08372,0 -0.155029,-0.0248 -0.07131,-0.0248 -0.124024,-0.0775 -0.05271,-0.0527 -0.08372,-0.13333 -0.03101,-0.0837 -0.03101,-0.19844 z" />
      <path
         id="path1064"
         style="font-size:6.35px;stroke-width:0.264583"
         d="m 87.100153,202.32328 q 0,-0.11782 0.03101,-0.19843 0.03101,-0.0837 0.08372,-0.13333 0.05271,-0.0527 0.124023,-0.0744 0.07131,-0.0248 0.15503,-0.0248 0.08062,0 0.151928,0.0248 0.07442,0.0217 0.127124,0.0744 0.05271,0.0496 0.08372,0.13333 0.03101,0.0806 0.03101,0.19843 0,0.11473 -0.03101,0.19844 -0.03101,0.0806 -0.08372,0.13333 -0.05271,0.0527 -0.127124,0.0775 -0.07131,0.0248 -0.151928,0.0248 -0.08372,0 -0.15503,-0.0248 -0.07131,-0.0248 -0.124023,-0.0775 -0.05271,-0.0527 -0.08372,-0.13333 -0.03101,-0.0837 -0.03101,-0.19844 z" />
      <path
         id="path1066"
         style="font-size:6.35px;stroke-width:0.264583"
         d="m 88.802375,202.32328 q 0,-0.11782 0.03101,-0.19843 0.03101,-0.0837 0.08372,-0.13333 0.05271,-0.0527 0.124023,-0.0744 0.07131,-0.0248 0.15503,-0.0248 0.08061,0 0.151928,0.0248 0.07441,0.0217 0.127124,0.0744 0.05271,0.0496 0.08372,0.13333 0.03101,0.0806 0.03101,0.19843 0,0.11473 -0.03101,0.19844 -0.03101,0.0806 -0.08372,0.13333 -0.05271,0.0527 -0.127124,0.0775 -0.07131,0.0248 -0.151928,0.0248 -0.08372,0 -0.15503,-0.0248 -0.07131,-0.0248 -0.124023,-0.0775 -0.05271,-0.0527 -0.08372,-0.13333 -0.03101,-0.0837 -0.03101,-0.19844 z" />
      <path
         id="path1068"
         style="font-size:6.35px;stroke-width:0.264583"
         d="m 90.504597,202.32328 q 0,-0.11782 0.03101,-0.19843 0.03101,-0.0837 0.08372,-0.13333 0.05271,-0.0527 0.124023,-0.0744 0.07131,-0.0248 0.155029,-0.0248 0.08062,0 0.151929,0.0248 0.07441,0.0217 0.127124,0.0744 0.05271,0.0496 0.08372,0.13333 0.03101,0.0806 0.03101,0.19843 0,0.11473 -0.03101,0.19844 -0.03101,0.0806 -0.08372,0.13333 -0.05271,0.0527 -0.127124,0.0775 -0.07131,0.0248 -0.151929,0.0248 -0.08371,0 -0.155029,-0.0248 -0.07131,-0.0248 -0.124023,-0.0775 -0.05271,-0.0527 -0.08372,-0.13333 -0.03101,-0.0837 -0.03101,-0.19844 z" />
      <path
         id="path1070"
         style="font-size:6.35px;stroke-width:0.264583"
         d="m 92.206819,202.32328 q 0,-0.11782 0.03101,-0.19843 0.03101,-0.0837 0.08372,-0.13333 0.05271,-0.0527 0.124023,-0.0744 0.07131,-0.0248 0.155029,-0.0248 0.08062,0 0.151929,0.0248 0.07441,0.0217 0.127124,0.0744 0.05271,0.0496 0.08372,0.13333 0.03101,0.0806 0.03101,0.19843 0,0.11473 -0.03101,0.19844 -0.03101,0.0806 -0.08372,0.13333 -0.05271,0.0527 -0.127124,0.0775 -0.07131,0.0248 -0.151929,0.0248 -0.08371,0 -0.155029,-0.0248 -0.07131,-0.0248 -0.124023,-0.0775 -0.05271,-0.0527 -0.08372,-0.13333 -0.03101,-0.0837 -0.03101,-0.19844 z" />
      <path
         id="path1072"
         style="font-size:6.35px;stroke-width:0.264583"
         d="m 93.909041,202.32328 q 0,-0.11782 0.03101,-0.19843 0.03101,-0.0837 0.08372,-0.13333 0.05271,-0.0527 0.124023,-0.0744 0.07131,-0.0248 0.155029,-0.0248 0.08062,0 0.151929,0.0248 0.07441,0.0217 0.127124,0.0744 0.05271,0.0496 0.08372,0.13333 0.03101,0.0806 0.03101,0.19843 0,0.11473 -0.03101,0.19844 -0.03101,0.0806 -0.08372,0.13333 -0.05271,0.0527 -0.127124,0.0775 -0.07131,0.0248 -0.151929,0.0248 -0.08372,0 -0.155029,-0.0248 -0.07131,-0.0248 -0.124023,-0.0775 -0.05271,-0.0527 -0.08372,-0.13333 -0.03101,-0.0837 -0.03101,-0.19844 z" />
      <path
         id="path1074"
         style="font-size:6.35px;stroke-width:0.264583"
         d="m 95.611262,202.32328 q 0,-0.11782 0.03101,-0.19843 0.031,-0.0837 0.08371,-0.13333 0.05271,-0.0527 0.124024,-0.0744 0.07131,-0.0248 0.155029,-0.0248 0.08061,0 0.151929,0.0248 0.07441,0.0217 0.127124,0.0744 0.05271,0.0496 0.08372,0.13333 0.03101,0.0806 0.03101,0.19843 0,0.11473 -0.03101,0.19844 -0.03101,0.0806 -0.08372,0.13333 -0.05271,0.0527 -0.127124,0.0775 -0.07131,0.0248 -0.151929,0.0248 -0.08372,0 -0.155029,-0.0248 -0.07131,-0.0248 -0.124024,-0.0775 -0.05271,-0.0527 -0.08371,-0.13333 -0.03101,-0.0837 -0.03101,-0.19844 z" />
      <path
         id="path1076"
         style="font-size:6.35px;stroke-width:0.264583"
         d="m 97.313483,202.32328 q 0,-0.11782 0.03101,-0.19843 0.03101,-0.0837 0.08371,-0.13333 0.05271,-0.0527 0.124024,-0.0744 0.07131,-0.0248 0.155029,-0.0248 0.08061,0 0.151929,0.0248 0.07441,0.0217 0.127124,0.0744 0.05271,0.0496 0.08372,0.13333 0.03101,0.0806 0.03101,0.19843 0,0.11473 -0.03101,0.19844 -0.03101,0.0806 -0.08372,0.13333 -0.05271,0.0527 -0.127124,0.0775 -0.07131,0.0248 -0.151929,0.0248 -0.08372,0 -0.155029,-0.0248 -0.07131,-0.0248 -0.124024,-0.0775 -0.05271,-0.0527 -0.08371,-0.13333 -0.03101,-0.0837 -0.03101,-0.19844 z" />
      <path
         id="path1078"
         style="font-size:6.35px;stroke-width:0.264583"
         d="m 99.015705,202.32328 q 0,-0.11782 0.03101,-0.19843 0.03101,-0.0837 0.08372,-0.13333 0.05271,-0.0527 0.124024,-0.0744 0.07131,-0.0248 0.155029,-0.0248 0.08061,0 0.151929,0.0248 0.07441,0.0217 0.127124,0.0744 0.05271,0.0496 0.08371,0.13333 0.03101,0.0806 0.03101,0.19843 0,0.11473 -0.03101,0.19844 -0.03101,0.0806 -0.08371,0.13333 -0.05271,0.0527 -0.127124,0.0775 -0.07131,0.0248 -0.151929,0.0248 -0.08372,0 -0.155029,-0.0248 -0.07131,-0.0248 -0.124024,-0.0775 -0.05271,-0.0527 -0.08372,-0.13333 -0.03101,-0.0837 -0.03101,-0.19844 z" />
      <path
         id="path1080"
         style="font-size:6.35px;stroke-width:0.264583"
         d="m 100.71793,202.32328 q 0,-0.11782 0.031,-0.19843 0.031,-0.0837 0.0837,-0.13333 0.0527,-0.0527 0.12402,-0.0744 0.0713,-0.0248 0.15503,-0.0248 0.0806,0 0.15193,0.0248 0.0744,0.0217 0.12712,0.0744 0.0527,0.0496 0.0837,0.13333 0.031,0.0806 0.031,0.19843 0,0.11473 -0.031,0.19844 -0.031,0.0806 -0.0837,0.13333 -0.0527,0.0527 -0.12712,0.0775 -0.0713,0.0248 -0.15193,0.0248 -0.0837,0 -0.15503,-0.0248 -0.0713,-0.0248 -0.12402,-0.0775 -0.0527,-0.0527 -0.0837,-0.13333 -0.031,-0.0837 -0.031,-0.19844 z" />
      <path
         id="path1082"
         style="font-size:6.35px;stroke-width:0.264583"
         d="m 102.42015,202.32328 q 0,-0.11782 0.031,-0.19843 0.031,-0.0837 0.0837,-0.13333 0.0527,-0.0527 0.12402,-0.0744 0.0713,-0.0248 0.15503,-0.0248 0.0806,0 0.15193,0.0248 0.0744,0.0217 0.12713,0.0744 0.0527,0.0496 0.0837,0.13333 0.031,0.0806 0.031,0.19843 0,0.11473 -0.031,0.19844 -0.031,0.0806 -0.0837,0.13333 -0.0527,0.0527 -0.12713,0.0775 -0.0713,0.0248 -0.15193,0.0248 -0.0837,0 -0.15503,-0.0248 -0.0713,-0.0248 -0.12402,-0.0775 -0.0527,-0.0527 -0.0837,-0.13333 -0.031,-0.0837 -0.031,-0.19844 z" />
      <path
         id="path1084"
         style="font-size:6.35px;stroke-width:0.264583"
         d="m 104.12237,202.32328 q 0,-0.11782 0.031,-0.19843 0.031,-0.0837 0.0837,-0.13333 0.0527,-0.0527 0.12403,-0.0744 0.0713,-0.0248 0.15502,-0.0248 0.0806,0 0.15193,0.0248 0.0744,0.0217 0.12713,0.0744 0.0527,0.0496 0.0837,0.13333 0.031,0.0806 0.031,0.19843 0,0.11473 -0.031,0.19844 -0.031,0.0806 -0.0837,0.13333 -0.0527,0.0527 -0.12713,0.0775 -0.0713,0.0248 -0.15193,0.0248 -0.0837,0 -0.15502,-0.0248 -0.0713,-0.0248 -0.12403,-0.0775 -0.0527,-0.0527 -0.0837,-0.13333 -0.031,-0.0837 -0.031,-0.19844 z" />
      <path
         id="path1086"
         style="font-size:6.35px;stroke-width:0.264583"
         d="m 105.82459,202.32328 q 0,-0.11782 0.031,-0.19843 0.031,-0.0837 0.0837,-0.13333 0.0527,-0.0527 0.12403,-0.0744 0.0713,-0.0248 0.15503,-0.0248 0.0806,0 0.15192,0.0248 0.0744,0.0217 0.12713,0.0744 0.0527,0.0496 0.0837,0.13333 0.031,0.0806 0.031,0.19843 0,0.11473 -0.031,0.19844 -0.031,0.0806 -0.0837,0.13333 -0.0527,0.0527 -0.12713,0.0775 -0.0713,0.0248 -0.15192,0.0248 -0.0837,0 -0.15503,-0.0248 -0.0713,-0.0248 -0.12403,-0.0775 -0.0527,-0.0527 -0.0837,-0.13333 -0.031,-0.0837 -0.031,-0.19844 z" />
      <path
         id="path1088"
         style="font-size:6.35px;stroke-width:0.264583"
         d="m 107.52681,202.32328 q 0,-0.11782 0.031,-0.19843 0.031,-0.0837 0.0837,-0.13333 0.0527,-0.0527 0.12402,-0.0744 0.0713,-0.0248 0.15503,-0.0248 0.0806,0 0.15193,0.0248 0.0744,0.0217 0.12712,0.0744 0.0527,0.0496 0.0837,0.13333 0.031,0.0806 0.031,0.19843 0,0.11473 -0.031,0.19844 -0.031,0.0806 -0.0837,0.13333 -0.0527,0.0527 -0.12712,0.0775 -0.0713,0.0248 -0.15193,0.0248 -0.0837,0 -0.15503,-0.0248 -0.0713,-0.0248 -0.12402,-0.0775 -0.0527,-0.0527 -0.0837,-0.13333 -0.031,-0.0837 -0.031,-0.19844 z" />
      <path
         id="path1090"
         style="font-size:6.35px;stroke-width:0.264583"
         d="m 109.22904,202.32328 q 0,-0.11782 0.031,-0.19843 0.031,-0.0837 0.0837,-0.13333 0.0527,-0.0527 0.12402,-0.0744 0.0713,-0.0248 0.15503,-0.0248 0.0806,0 0.15193,0.0248 0.0744,0.0217 0.12712,0.0744 0.0527,0.0496 0.0837,0.13333 0.031,0.0806 0.031,0.19843 0,0.11473 -0.031,0.19844 -0.031,0.0806 -0.0837,0.13333 -0.0527,0.0527 -0.12712,0.0775 -0.0713,0.0248 -0.15193,0.0248 -0.0837,0 -0.15503,-0.0248 -0.0713,-0.0248 -0.12402,-0.0775 -0.0527,-0.0527 -0.0837,-0.13333 -0.031,-0.0837 -0.031,-0.19844 z" />
      <path
         id="path1092"
         style="font-size:6.35px;stroke-width:0.264583"
         d="m 110.93126,202.32328 q 0,-0.11782 0.031,-0.19843 0.031,-0.0837 0.0837,-0.13333 0.0527,-0.0527 0.12402,-0.0744 0.0713,-0.0248 0.15503,-0.0248 0.0806,0 0.15193,0.0248 0.0744,0.0217 0.12712,0.0744 0.0527,0.0496 0.0837,0.13333 0.031,0.0806 0.031,0.19843 0,0.11473 -0.031,0.19844 -0.031,0.0806 -0.0837,0.13333 -0.0527,0.0527 -0.12712,0.0775 -0.0713,0.0248 -0.15193,0.0248 -0.0837,0 -0.15503,-0.0248 -0.0713,-0.0248 -0.12402,-0.0775 -0.0527,-0.0527 -0.0837,-0.13333 -0.031,-0.0837 -0.031,-0.19844 z" />
      <path
         id="path1094"
         style="font-size:6.35px;stroke-width:0.264583"
         d="m 112.63348,202.32328 q 0,-0.11782 0.031,-0.19843 0.031,-0.0837 0.0837,-0.13333 0.0527,-0.0527 0.12402,-0.0744 0.0713,-0.0248 0.15503,-0.0248 0.0806,0 0.15193,0.0248 0.0744,0.0217 0.12713,0.0744 0.0527,0.0496 0.0837,0.13333 0.031,0.0806 0.031,0.19843 0,0.11473 -0.031,0.19844 -0.031,0.0806 -0.0837,0.13333 -0.0527,0.0527 -0.12713,0.0775 -0.0713,0.0248 -0.15193,0.0248 -0.0837,0 -0.15503,-0.0248 -0.0713,-0.0248 -0.12402,-0.0775 -0.0527,-0.0527 -0.0837,-0.13333 -0.031,-0.0837 -0.031,-0.19844 z" />
      <path
         id="path1096"
         style="font-size:6.35px;stroke-width:0.264583"
         d="m 114.3357,202.32328 q 0,-0.11782 0.031,-0.19843 0.031,-0.0837 0.0837,-0.13333 0.0527,-0.0527 0.12402,-0.0744 0.0713,-0.0248 0.15503,-0.0248 0.0806,0 0.15193,0.0248 0.0744,0.0217 0.12713,0.0744 0.0527,0.0496 0.0837,0.13333 0.031,0.0806 0.031,0.19843 0,0.11473 -0.031,0.19844 -0.031,0.0806 -0.0837,0.13333 -0.0527,0.0527 -0.12713,0.0775 -0.0713,0.0248 -0.15193,0.0248 -0.0837,0 -0.15503,-0.0248 -0.0713,-0.0248 -0.12402,-0.0775 -0.0527,-0.0527 -0.0837,-0.13333 -0.031,-0.0837 -0.031,-0.19844 z" />
      <path
         id="path1098"
         style="font-size:6.35px;stroke-width:0.264583"
         d="m 116.03792,202.32328 q 0,-0.11782 0.031,-0.19843 0.031,-0.0837 0.0837,-0.13333 0.0527,-0.0527 0.12403,-0.0744 0.0713,-0.0248 0.15502,-0.0248 0.0806,0 0.15193,0.0248 0.0744,0.0217 0.12713,0.0744 0.0527,0.0496 0.0837,0.13333 0.031,0.0806 0.031,0.19843 0,0.11473 -0.031,0.19844 -0.031,0.0806 -0.0837,0.13333 -0.0527,0.0527 -0.12713,0.0775 -0.0713,0.0248 -0.15193,0.0248 -0.0837,0 -0.15502,-0.0248 -0.0713,-0.0248 -0.12403,-0.0775 -0.0527,-0.0527 -0.0837,-0.13333 -0.031,-0.0837 -0.031,-0.19844 z" />
      <path
         id="path1100"
         style="font-size:6.35px;stroke-width:0.264583"
         d="m 117.74014,202.32328 q 0,-0.11782 0.031,-0.19843 0.031,-0.0837 0.0837,-0.13333 0.0527,-0.0527 0.12403,-0.0744 0.0713,-0.0248 0.15503,-0.0248 0.0806,0 0.15192,0.0248 0.0744,0.0217 0.12713,0.0744 0.0527,0.0496 0.0837,0.13333 0.031,0.0806 0.031,0.19843 0,0.11473 -0.031,0.19844 -0.031,0.0806 -0.0837,0.13333 -0.0527,0.0527 -0.12713,0.0775 -0.0713,0.0248 -0.15192,0.0248 -0.0837,0 -0.15503,-0.0248 -0.0713,-0.0248 -0.12403,-0.0775 -0.0527,-0.0527 -0.0837,-0.13333 -0.031,-0.0837 -0.031,-0.19844 z" />
      <path
         id="path1102"
         style="font-size:6.35px;stroke-width:0.264583"
         d="m 119.44237,202.32328 q 0,-0.11782 0.031,-0.19843 0.031,-0.0837 0.0837,-0.13333 0.0527,-0.0527 0.12402,-0.0744 0.0713,-0.0248 0.15503,-0.0248 0.0806,0 0.15193,0.0248 0.0744,0.0217 0.12712,0.0744 0.0527,0.0496 0.0837,0.13333 0.031,0.0806 0.031,0.19843 0,0.11473 -0.031,0.19844 -0.031,0.0806 -0.0837,0.13333 -0.0527,0.0527 -0.12712,0.0775 -0.0713,0.0248 -0.15193,0.0248 -0.0837,0 -0.15503,-0.0248 -0.0713,-0.0248 -0.12402,-0.0775 -0.0527,-0.0527 -0.0837,-0.13333 -0.031,-0.0837 -0.031,-0.19844 z" />
      <path
         id="path1104"
         style="font-size:6.35px;stroke-width:0.264583"
         d="m 121.14459,202.32328 q 0,-0.11782 0.031,-0.19843 0.031,-0.0837 0.0837,-0.13333 0.0527,-0.0527 0.12402,-0.0744 0.0713,-0.0248 0.15503,-0.0248 0.0806,0 0.15193,0.0248 0.0744,0.0217 0.12712,0.0744 0.0527,0.0496 0.0837,0.13333 0.031,0.0806 0.031,0.19843 0,0.11473 -0.031,0.19844 -0.031,0.0806 -0.0837,0.13333 -0.0527,0.0527 -0.12712,0.0775 -0.0713,0.0248 -0.15193,0.0248 -0.0837,0 -0.15503,-0.0248 -0.0713,-0.0248 -0.12402,-0.0775 -0.0527,-0.0527 -0.0837,-0.13333 -0.031,-0.0837 -0.031,-0.19844 z" />
      <path
         id="path1106"
         style="font-size:6.35px;stroke-width:0.264583"
         d="m 122.84681,202.32328 q 0,-0.11782 0.031,-0.19843 0.031,-0.0837 0.0837,-0.13333 0.0527,-0.0527 0.12402,-0.0744 0.0713,-0.0248 0.15503,-0.0248 0.0806,0 0.15193,0.0248 0.0744,0.0217 0.12712,0.0744 0.0527,0.0496 0.0837,0.13333 0.031,0.0806 0.031,0.19843 0,0.11473 -0.031,0.19844 -0.031,0.0806 -0.0837,0.13333 -0.0527,0.0527 -0.12712,0.0775 -0.0713,0.0248 -0.15193,0.0248 -0.0837,0 -0.15503,-0.0248 -0.0713,-0.0248 -0.12402,-0.0775 -0.0527,-0.0527 -0.0837,-0.13333 -0.031,-0.0837 -0.031,-0.19844 z" />
      <path
         id="path1108"
         style="font-size:6.35px;stroke-width:0.264583"
         d="m 124.54903,202.32328 q 0,-0.11782 0.031,-0.19843 0.031,-0.0837 0.0837,-0.13333 0.0527,-0.0527 0.12402,-0.0744 0.0713,-0.0248 0.15503,-0.0248 0.0806,0 0.15193,0.0248 0.0744,0.0217 0.12713,0.0744 0.0527,0.0496 0.0837,0.13333 0.031,0.0806 0.031,0.19843 0,0.11473 -0.031,0.19844 -0.031,0.0806 -0.0837,0.13333 -0.0527,0.0527 -0.12713,0.0775 -0.0713,0.0248 -0.15193,0.0248 -0.0837,0 -0.15503,-0.0248 -0.0713,-0.0248 -0.12402,-0.0775 -0.0527,-0.0527 -0.0837,-0.13333 -0.031,-0.0837 -0.031,-0.19844 z" />
      <path
         id="path1110"
         style="font-size:6.35px;stroke-width:0.264583"
         d="m 126.25125,202.32328 q 0,-0.11782 0.031,-0.19843 0.031,-0.0837 0.0837,-0.13333 0.0527,-0.0527 0.12402,-0.0744 0.0713,-0.0248 0.15503,-0.0248 0.0806,0 0.15193,0.0248 0.0744,0.0217 0.12713,0.0744 0.0527,0.0496 0.0837,0.13333 0.031,0.0806 0.031,0.19843 0,0.11473 -0.031,0.19844 -0.031,0.0806 -0.0837,0.13333 -0.0527,0.0527 -0.12713,0.0775 -0.0713,0.0248 -0.15193,0.0248 -0.0837,0 -0.15503,-0.0248 -0.0713,-0.0248 -0.12402,-0.0775 -0.0527,-0.0527 -0.0837,-0.13333 -0.031,-0.0837 -0.031,-0.19844 z" />
      <path
         id="path1112"
         style="font-size:6.35px;stroke-width:0.264583"
         d="m 127.95347,202.32328 q 0,-0.11782 0.031,-0.19843 0.031,-0.0837 0.0837,-0.13333 0.0527,-0.0527 0.12402,-0.0744 0.0713,-0.0248 0.15503,-0.0248 0.0806,0 0.15193,0.0248 0.0744,0.0217 0.12712,0.0744 0.0527,0.0496 0.0837,0.13333 0.031,0.0806 0.031,0.19843 0,0.11473 -0.031,0.19844 -0.031,0.0806 -0.0837,0.13333 -0.0527,0.0527 -0.12712,0.0775 -0.0713,0.0248 -0.15193,0.0248 -0.0837,0 -0.15503,-0.0248 -0.0713,-0.0248 -0.12402,-0.0775 -0.0527,-0.0527 -0.0837,-0.13333 -0.031,-0.0837 -0.031,-0.19844 z" />
      <path
         id="path1114"
         style="font-size:6.35px;stroke-width:0.264583"
         d="m 129.6557,202.32328 q 0,-0.11782 0.031,-0.19843 0.031,-0.0837 0.0837,-0.13333 0.0527,-0.0527 0.12402,-0.0744 0.0713,-0.0248 0.15503,-0.0248 0.0806,0 0.15193,0.0248 0.0744,0.0217 0.12712,0.0744 0.0527,0.0496 0.0837,0.13333 0.031,0.0806 0.031,0.19843 0,0.11473 -0.031,0.19844 -0.031,0.0806 -0.0837,0.13333 -0.0527,0.0527 -0.12712,0.0775 -0.0713,0.0248 -0.15193,0.0248 -0.0837,0 -0.15503,-0.0248 -0.0713,-0.0248 -0.12402,-0.0775 -0.0527,-0.0527 -0.0837,-0.13333 -0.031,-0.0837 -0.031,-0.19844 z" />
      <path
         id="path1116"
         style="font-size:6.35px;stroke-width:0.264583"
         d="m 131.35792,202.32328 q 0,-0.11782 0.031,-0.19843 0.031,-0.0837 0.0837,-0.13333 0.0527,-0.0527 0.12402,-0.0744 0.0713,-0.0248 0.15503,-0.0248 0.0806,0 0.15193,0.0248 0.0744,0.0217 0.12712,0.0744 0.0527,0.0496 0.0837,0.13333 0.031,0.0806 0.031,0.19843 0,0.11473 -0.031,0.19844 -0.031,0.0806 -0.0837,0.13333 -0.0527,0.0527 -0.12712,0.0775 -0.0713,0.0248 -0.15193,0.0248 -0.0837,0 -0.15503,-0.0248 -0.0713,-0.0248 -0.12402,-0.0775 -0.0527,-0.0527 -0.0837,-0.13333 -0.031,-0.0837 -0.031,-0.19844 z" />
      <path
         id="path1118"
         style="font-size:6.35px;stroke-width:0.264583"
         d="m 133.06014,202.32328 q 0,-0.11782 0.031,-0.19843 0.031,-0.0837 0.0837,-0.13333 0.0527,-0.0527 0.12402,-0.0744 0.0713,-0.0248 0.15503,-0.0248 0.0806,0 0.15193,0.0248 0.0744,0.0217 0.12712,0.0744 0.0527,0.0496 0.0837,0.13333 0.031,0.0806 0.031,0.19843 0,0.11473 -0.031,0.19844 -0.031,0.0806 -0.0837,0.13333 -0.0527,0.0527 -0.12712,0.0775 -0.0713,0.0248 -0.15193,0.0248 -0.0837,0 -0.15503,-0.0248 -0.0713,-0.0248 -0.12402,-0.0775 -0.0527,-0.0527 -0.0837,-0.13333 -0.031,-0.0837 -0.031,-0.19844 z" />
    </g>
    <g
       style="font-size:6.35px;line-height:1.25;font-family:sans-serif;letter-spacing:0px;stroke-width:0.264583"
       id="text928-1"
       aria-label="..................................">
      <path
         id="path1121"
         style="font-size:6.35px;stroke-width:0.264583"
         d="m 75.753119,257.90175 q 0,-0.11783 0.03101,-0.19844 0.03101,-0.0837 0.08372,-0.13333 0.05271,-0.0527 0.124023,-0.0744 0.07131,-0.0248 0.155029,-0.0248 0.08062,0 0.151929,0.0248 0.07441,0.0217 0.127124,0.0744 0.05271,0.0496 0.08372,0.13333 0.03101,0.0806 0.03101,0.19844 0,0.11472 -0.03101,0.19843 -0.03101,0.0806 -0.08372,0.13333 -0.05271,0.0527 -0.127124,0.0775 -0.07131,0.0248 -0.151929,0.0248 -0.08372,0 -0.155029,-0.0248 -0.07131,-0.0248 -0.124023,-0.0775 -0.05271,-0.0527 -0.08372,-0.13333 -0.03101,-0.0837 -0.03101,-0.19843 z" />
      <path
         id="path1123"
         style="font-size:6.35px;stroke-width:0.264583"
         d="m 77.455341,257.90175 q 0,-0.11783 0.031,-0.19844 0.03101,-0.0837 0.08372,-0.13333 0.05271,-0.0527 0.124024,-0.0744 0.07131,-0.0248 0.155029,-0.0248 0.08062,0 0.151929,0.0248 0.07441,0.0217 0.127124,0.0744 0.05271,0.0496 0.08371,0.13333 0.03101,0.0806 0.03101,0.19844 0,0.11472 -0.03101,0.19843 -0.031,0.0806 -0.08371,0.13333 -0.05271,0.0527 -0.127124,0.0775 -0.07131,0.0248 -0.151929,0.0248 -0.08372,0 -0.155029,-0.0248 -0.07131,-0.0248 -0.124024,-0.0775 -0.05271,-0.0527 -0.08372,-0.13333 -0.031,-0.0837 -0.031,-0.19843 z" />
      <path
         id="path1125"
         style="font-size:6.35px;stroke-width:0.264583"
         d="m 79.157562,257.90175 q 0,-0.11783 0.03101,-0.19844 0.03101,-0.0837 0.08372,-0.13333 0.05271,-0.0527 0.124023,-0.0744 0.07131,-0.0248 0.15503,-0.0248 0.08061,0 0.151928,0.0248 0.07441,0.0217 0.127124,0.0744 0.05271,0.0496 0.08372,0.13333 0.03101,0.0806 0.03101,0.19844 0,0.11472 -0.03101,0.19843 -0.03101,0.0806 -0.08372,0.13333 -0.05271,0.0527 -0.127124,0.0775 -0.07131,0.0248 -0.151928,0.0248 -0.08372,0 -0.15503,-0.0248 -0.07131,-0.0248 -0.124023,-0.0775 -0.05271,-0.0527 -0.08372,-0.13333 -0.03101,-0.0837 -0.03101,-0.19843 z" />
      <path
         id="path1127"
         style="font-size:6.35px;stroke-width:0.264583"
         d="m 80.859784,257.90175 q 0,-0.11783 0.031,-0.19844 0.03101,-0.0837 0.08372,-0.13333 0.05271,-0.0527 0.124024,-0.0744 0.07131,-0.0248 0.155029,-0.0248 0.08062,0 0.151929,0.0248 0.07441,0.0217 0.127124,0.0744 0.05271,0.0496 0.08372,0.13333 0.03101,0.0806 0.03101,0.19844 0,0.11472 -0.03101,0.19843 -0.03101,0.0806 -0.08372,0.13333 -0.05271,0.0527 -0.127124,0.0775 -0.07131,0.0248 -0.151929,0.0248 -0.08372,0 -0.155029,-0.0248 -0.07131,-0.0248 -0.124024,-0.0775 -0.05271,-0.0527 -0.08372,-0.13333 -0.031,-0.0837 -0.031,-0.19843 z" />
      <path
         id="path1129"
         style="font-size:6.35px;stroke-width:0.264583"
         d="m 82.562005,257.90175 q 0,-0.11783 0.03101,-0.19844 0.03101,-0.0837 0.08372,-0.13333 0.05271,-0.0527 0.124024,-0.0744 0.07131,-0.0248 0.155029,-0.0248 0.08061,0 0.151929,0.0248 0.07441,0.0217 0.127124,0.0744 0.05271,0.0496 0.08372,0.13333 0.03101,0.0806 0.03101,0.19844 0,0.11472 -0.03101,0.19843 -0.03101,0.0806 -0.08372,0.13333 -0.05271,0.0527 -0.127124,0.0775 -0.07131,0.0248 -0.151929,0.0248 -0.08372,0 -0.155029,-0.0248 -0.07131,-0.0248 -0.124024,-0.0775 -0.05271,-0.0527 -0.08372,-0.13333 -0.03101,-0.0837 -0.03101,-0.19843 z" />
      <path
         id="path1131"
         style="font-size:6.35px;stroke-width:0.264583"
         d="m 84.264227,257.90175 q 0,-0.11783 0.03101,-0.19844 0.03101,-0.0837 0.08372,-0.13333 0.05271,-0.0527 0.124023,-0.0744 0.07131,-0.0248 0.15503,-0.0248 0.08062,0 0.151928,0.0248 0.07441,0.0217 0.127124,0.0744 0.05271,0.0496 0.08372,0.13333 0.03101,0.0806 0.03101,0.19844 0,0.11472 -0.03101,0.19843 -0.03101,0.0806 -0.08372,0.13333 -0.05271,0.0527 -0.127124,0.0775 -0.07131,0.0248 -0.151928,0.0248 -0.08372,0 -0.15503,-0.0248 -0.07131,-0.0248 -0.124023,-0.0775 -0.05271,-0.0527 -0.08372,-0.13333 -0.03101,-0.0837 -0.03101,-0.19843 z" />
      <path
         id="path1133"
         style="font-size:6.35px;stroke-width:0.264583"
         d="m 85.966448,257.90175 q 0,-0.11783 0.03101,-0.19844 0.03101,-0.0837 0.08372,-0.13333 0.05271,-0.0527 0.124023,-0.0744 0.07131,-0.0248 0.15503,-0.0248 0.08061,0 0.151928,0.0248 0.07441,0.0217 0.127124,0.0744 0.05271,0.0496 0.08372,0.13333 0.03101,0.0806 0.03101,0.19844 0,0.11472 -0.03101,0.19843 -0.03101,0.0806 -0.08372,0.13333 -0.05271,0.0527 -0.127124,0.0775 -0.07131,0.0248 -0.151928,0.0248 -0.08372,0 -0.15503,-0.0248 -0.07131,-0.0248 -0.124023,-0.0775 -0.05271,-0.0527 -0.08372,-0.13333 -0.03101,-0.0837 -0.03101,-0.19843 z" />
      <path
         id="path1135"
         style="font-size:6.35px;stroke-width:0.264583"
         d="m 87.66867,257.90175 q 0,-0.11783 0.03101,-0.19844 0.03101,-0.0837 0.08372,-0.13333 0.05271,-0.0527 0.124023,-0.0744 0.07131,-0.0248 0.155029,-0.0248 0.08062,0 0.151929,0.0248 0.07441,0.0217 0.127124,0.0744 0.05271,0.0496 0.08372,0.13333 0.03101,0.0806 0.03101,0.19844 0,0.11472 -0.03101,0.19843 -0.03101,0.0806 -0.08372,0.13333 -0.05271,0.0527 -0.127124,0.0775 -0.07131,0.0248 -0.151929,0.0248 -0.08371,0 -0.155029,-0.0248 -0.07131,-0.0248 -0.124023,-0.0775 -0.05271,-0.0527 -0.08372,-0.13333 -0.03101,-0.0837 -0.03101,-0.19843 z" />
      <path
         id="path1137"
         style="font-size:6.35px;stroke-width:0.264583"
         d="m 89.370892,257.90175 q 0,-0.11783 0.03101,-0.19844 0.03101,-0.0837 0.08372,-0.13333 0.05271,-0.0527 0.124023,-0.0744 0.07131,-0.0248 0.155029,-0.0248 0.08062,0 0.151929,0.0248 0.07441,0.0217 0.127124,0.0744 0.05271,0.0496 0.08372,0.13333 0.03101,0.0806 0.03101,0.19844 0,0.11472 -0.03101,0.19843 -0.03101,0.0806 -0.08372,0.13333 -0.05271,0.0527 -0.127124,0.0775 -0.07131,0.0248 -0.151929,0.0248 -0.08372,0 -0.155029,-0.0248 -0.07131,-0.0248 -0.124023,-0.0775 -0.05271,-0.0527 -0.08372,-0.13333 -0.03101,-0.0837 -0.03101,-0.19843 z" />
      <path
         id="path1139"
         style="font-size:6.35px;stroke-width:0.264583"
         d="m 91.073114,257.90175 q 0,-0.11783 0.03101,-0.19844 0.03101,-0.0837 0.08372,-0.13333 0.05271,-0.0527 0.124024,-0.0744 0.07131,-0.0248 0.155029,-0.0248 0.08062,0 0.151929,0.0248 0.07441,0.0217 0.127124,0.0744 0.05271,0.0496 0.08372,0.13333 0.03101,0.0806 0.03101,0.19844 0,0.11472 -0.03101,0.19843 -0.03101,0.0806 -0.08372,0.13333 -0.05271,0.0527 -0.127124,0.0775 -0.07131,0.0248 -0.151929,0.0248 -0.08372,0 -0.155029,-0.0248 -0.07131,-0.0248 -0.124024,-0.0775 -0.05271,-0.0527 -0.08372,-0.13333 -0.03101,-0.0837 -0.03101,-0.19843 z" />
      <path
         id="path1141"
         style="font-size:6.35px;stroke-width:0.264583"
         d="m 92.775336,257.90175 q 0,-0.11783 0.03101,-0.19844 0.031,-0.0837 0.08371,-0.13333 0.05271,-0.0527 0.124024,-0.0744 0.07131,-0.0248 0.155029,-0.0248 0.08061,0 0.151929,0.0248 0.07441,0.0217 0.127124,0.0744 0.05271,0.0496 0.08372,0.13333 0.03101,0.0806 0.03101,0.19844 0,0.11472 -0.03101,0.19843 -0.03101,0.0806 -0.08372,0.13333 -0.05271,0.0527 -0.127124,0.0775 -0.07131,0.0248 -0.151929,0.0248 -0.08372,0 -0.155029,-0.0248 -0.07131,-0.0248 -0.124024,-0.0775 -0.05271,-0.0527 -0.08371,-0.13333 -0.03101,-0.0837 -0.03101,-0.19843 z" />
      <path
         id="path1143"
         style="font-size:6.35px;stroke-width:0.264583"
         d="m 94.477557,257.90175 q 0,-0.11783 0.031,-0.19844 0.03101,-0.0837 0.08372,-0.13333 0.05271,-0.0527 0.124024,-0.0744 0.07131,-0.0248 0.155029,-0.0248 0.08062,0 0.151929,0.0248 0.07441,0.0217 0.127124,0.0744 0.05271,0.0496 0.08372,0.13333 0.03101,0.0806 0.03101,0.19844 0,0.11472 -0.03101,0.19843 -0.03101,0.0806 -0.08372,0.13333 -0.05271,0.0527 -0.127124,0.0775 -0.07131,0.0248 -0.151929,0.0248 -0.08372,0 -0.155029,-0.0248 -0.07131,-0.0248 -0.124024,-0.0775 -0.05271,-0.0527 -0.08372,-0.13333 -0.031,-0.0837 -0.031,-0.19843 z" />
      <path
         id="path1145"
         style="font-size:6.35px;stroke-width:0.264583"
         d="m 96.179778,257.90175 q 0,-0.11783 0.03101,-0.19844 0.03101,-0.0837 0.08372,-0.13333 0.05271,-0.0527 0.124024,-0.0744 0.07131,-0.0248 0.155029,-0.0248 0.08061,0 0.151929,0.0248 0.07441,0.0217 0.127124,0.0744 0.05271,0.0496 0.08371,0.13333 0.03101,0.0806 0.03101,0.19844 0,0.11472 -0.03101,0.19843 -0.031,0.0806 -0.08371,0.13333 -0.05271,0.0527 -0.127124,0.0775 -0.07131,0.0248 -0.151929,0.0248 -0.08372,0 -0.155029,-0.0248 -0.07131,-0.0248 -0.124024,-0.0775 -0.05271,-0.0527 -0.08372,-0.13333 -0.03101,-0.0837 -0.03101,-0.19843 z" />
      <path
         id="path1147"
         style="font-size:6.35px;stroke-width:0.264583"
         d="m 97.882,257.90175 q 0,-0.11783 0.03101,-0.19844 0.03101,-0.0837 0.08372,-0.13333 0.05271,-0.0527 0.124023,-0.0744 0.07131,-0.0248 0.15503,-0.0248 0.08062,0 0.151928,0.0248 0.07442,0.0217 0.127124,0.0744 0.05271,0.0496 0.08372,0.13333 0.03101,0.0806 0.03101,0.19844 0,0.11472 -0.03101,0.19843 -0.03101,0.0806 -0.08372,0.13333 -0.05271,0.0527 -0.127124,0.0775 -0.07131,0.0248 -0.151928,0.0248 -0.08372,0 -0.15503,-0.0248 -0.07131,-0.0248 -0.124023,-0.0775 -0.05271,-0.0527 -0.08372,-0.13333 -0.03101,-0.0837 -0.03101,-0.19843 z" />
      <path
         id="path1149"
         style="font-size:6.35px;stroke-width:0.264583"
         d="m 99.584221,257.90175 q 0,-0.11783 0.03101,-0.19844 0.03101,-0.0837 0.08372,-0.13333 0.05271,-0.0527 0.124023,-0.0744 0.07131,-0.0248 0.15503,-0.0248 0.08061,0 0.151924,0.0248 0.0744,0.0217 0.12713,0.0744 0.0527,0.0496 0.0837,0.13333 0.031,0.0806 0.031,0.19844 0,0.11472 -0.031,0.19843 -0.031,0.0806 -0.0837,0.13333 -0.0527,0.0527 -0.12713,0.0775 -0.0713,0.0248 -0.151924,0.0248 -0.08372,0 -0.15503,-0.0248 -0.07131,-0.0248 -0.124023,-0.0775 -0.05271,-0.0527 -0.08372,-0.13333 -0.03101,-0.0837 -0.03101,-0.19843 z" />
      <path
         id="path1151"
         style="font-size:6.35px;stroke-width:0.264583"
         d="m 101.28644,257.90175 q 0,-0.11783 0.031,-0.19844 0.031,-0.0837 0.0837,-0.13333 0.0527,-0.0527 0.12402,-0.0744 0.0713,-0.0248 0.15503,-0.0248 0.0806,0 0.15193,0.0248 0.0744,0.0217 0.12712,0.0744 0.0527,0.0496 0.0837,0.13333 0.031,0.0806 0.031,0.19844 0,0.11472 -0.031,0.19843 -0.031,0.0806 -0.0837,0.13333 -0.0527,0.0527 -0.12712,0.0775 -0.0713,0.0248 -0.15193,0.0248 -0.0837,0 -0.15503,-0.0248 -0.0713,-0.0248 -0.12402,-0.0775 -0.0527,-0.0527 -0.0837,-0.13333 -0.031,-0.0837 -0.031,-0.19843 z" />
      <path
         id="path1153"
         style="font-size:6.35px;stroke-width:0.264583"
         d="m 102.98867,257.90175 q 0,-0.11783 0.031,-0.19844 0.031,-0.0837 0.0837,-0.13333 0.0527,-0.0527 0.12402,-0.0744 0.0713,-0.0248 0.15503,-0.0248 0.0806,0 0.15193,0.0248 0.0744,0.0217 0.12712,0.0744 0.0527,0.0496 0.0837,0.13333 0.031,0.0806 0.031,0.19844 0,0.11472 -0.031,0.19843 -0.031,0.0806 -0.0837,0.13333 -0.0527,0.0527 -0.12712,0.0775 -0.0713,0.0248 -0.15193,0.0248 -0.0837,0 -0.15503,-0.0248 -0.0713,-0.0248 -0.12402,-0.0775 -0.0527,-0.0527 -0.0837,-0.13333 -0.031,-0.0837 -0.031,-0.19843 z" />
      <path
         id="path1155"
         style="font-size:6.35px;stroke-width:0.264583"
         d="m 104.69089,257.90175 q 0,-0.11783 0.031,-0.19844 0.031,-0.0837 0.0837,-0.13333 0.0527,-0.0527 0.12402,-0.0744 0.0713,-0.0248 0.15503,-0.0248 0.0806,0 0.15193,0.0248 0.0744,0.0217 0.12712,0.0744 0.0527,0.0496 0.0837,0.13333 0.031,0.0806 0.031,0.19844 0,0.11472 -0.031,0.19843 -0.031,0.0806 -0.0837,0.13333 -0.0527,0.0527 -0.12712,0.0775 -0.0713,0.0248 -0.15193,0.0248 -0.0837,0 -0.15503,-0.0248 -0.0713,-0.0248 -0.12402,-0.0775 -0.0527,-0.0527 -0.0837,-0.13333 -0.031,-0.0837 -0.031,-0.19843 z" />
      <path
         id="path1157"
         style="font-size:6.35px;stroke-width:0.264583"
         d="m 106.39311,257.90175 q 0,-0.11783 0.031,-0.19844 0.031,-0.0837 0.0837,-0.13333 0.0527,-0.0527 0.12402,-0.0744 0.0713,-0.0248 0.15503,-0.0248 0.0806,0 0.15193,0.0248 0.0744,0.0217 0.12713,0.0744 0.0527,0.0496 0.0837,0.13333 0.031,0.0806 0.031,0.19844 0,0.11472 -0.031,0.19843 -0.031,0.0806 -0.0837,0.13333 -0.0527,0.0527 -0.12713,0.0775 -0.0713,0.0248 -0.15193,0.0248 -0.0837,0 -0.15503,-0.0248 -0.0713,-0.0248 -0.12402,-0.0775 -0.0527,-0.0527 -0.0837,-0.13333 -0.031,-0.0837 -0.031,-0.19843 z" />
      <path
         id="path1159"
         style="font-size:6.35px;stroke-width:0.264583"
         d="m 108.09533,257.90175 q 0,-0.11783 0.031,-0.19844 0.031,-0.0837 0.0837,-0.13333 0.0527,-0.0527 0.12403,-0.0744 0.0713,-0.0248 0.15503,-0.0248 0.0806,0 0.15192,0.0248 0.0744,0.0217 0.12713,0.0744 0.0527,0.0496 0.0837,0.13333 0.031,0.0806 0.031,0.19844 0,0.11472 -0.031,0.19843 -0.031,0.0806 -0.0837,0.13333 -0.0527,0.0527 -0.12713,0.0775 -0.0713,0.0248 -0.15192,0.0248 -0.0837,0 -0.15503,-0.0248 -0.0713,-0.0248 -0.12403,-0.0775 -0.0527,-0.0527 -0.0837,-0.13333 -0.031,-0.0837 -0.031,-0.19843 z" />
      <path
         id="path1161"
         style="font-size:6.35px;stroke-width:0.264583"
         d="m 109.79755,257.90175 q 0,-0.11783 0.031,-0.19844 0.031,-0.0837 0.0837,-0.13333 0.0527,-0.0527 0.12403,-0.0744 0.0713,-0.0248 0.15503,-0.0248 0.0806,0 0.15193,0.0248 0.0744,0.0217 0.12712,0.0744 0.0527,0.0496 0.0837,0.13333 0.031,0.0806 0.031,0.19844 0,0.11472 -0.031,0.19843 -0.031,0.0806 -0.0837,0.13333 -0.0527,0.0527 -0.12712,0.0775 -0.0713,0.0248 -0.15193,0.0248 -0.0837,0 -0.15503,-0.0248 -0.0713,-0.0248 -0.12403,-0.0775 -0.0527,-0.0527 -0.0837,-0.13333 -0.031,-0.0837 -0.031,-0.19843 z" />
      <path
         id="path1163"
         style="font-size:6.35px;stroke-width:0.264583"
         d="m 111.49977,257.90175 q 0,-0.11783 0.031,-0.19844 0.031,-0.0837 0.0837,-0.13333 0.0527,-0.0527 0.12402,-0.0744 0.0713,-0.0248 0.15503,-0.0248 0.0806,0 0.15193,0.0248 0.0744,0.0217 0.12712,0.0744 0.0527,0.0496 0.0837,0.13333 0.031,0.0806 0.031,0.19844 0,0.11472 -0.031,0.19843 -0.031,0.0806 -0.0837,0.13333 -0.0527,0.0527 -0.12712,0.0775 -0.0713,0.0248 -0.15193,0.0248 -0.0837,0 -0.15503,-0.0248 -0.0713,-0.0248 -0.12402,-0.0775 -0.0527,-0.0527 -0.0837,-0.13333 -0.031,-0.0837 -0.031,-0.19843 z" />
      <path
         id="path1165"
         style="font-size:6.35px;stroke-width:0.264583"
         d="m 113.20199,257.90175 q 0,-0.11783 0.031,-0.19844 0.031,-0.0837 0.0837,-0.13333 0.0527,-0.0527 0.12402,-0.0744 0.0713,-0.0248 0.15503,-0.0248 0.0806,0 0.15193,0.0248 0.0744,0.0217 0.12712,0.0744 0.0527,0.0496 0.0837,0.13333 0.031,0.0806 0.031,0.19844 0,0.11472 -0.031,0.19843 -0.031,0.0806 -0.0837,0.13333 -0.0527,0.0527 -0.12712,0.0775 -0.0713,0.0248 -0.15193,0.0248 -0.0837,0 -0.15503,-0.0248 -0.0713,-0.0248 -0.12402,-0.0775 -0.0527,-0.0527 -0.0837,-0.13333 -0.031,-0.0837 -0.031,-0.19843 z" />
      <path
         id="path1167"
         style="font-size:6.35px;stroke-width:0.264583"
         d="m 114.90422,257.90175 q 0,-0.11783 0.031,-0.19844 0.031,-0.0837 0.0837,-0.13333 0.0527,-0.0527 0.12402,-0.0744 0.0713,-0.0248 0.15503,-0.0248 0.0806,0 0.15193,0.0248 0.0744,0.0217 0.12712,0.0744 0.0527,0.0496 0.0837,0.13333 0.031,0.0806 0.031,0.19844 0,0.11472 -0.031,0.19843 -0.031,0.0806 -0.0837,0.13333 -0.0527,0.0527 -0.12712,0.0775 -0.0713,0.0248 -0.15193,0.0248 -0.0837,0 -0.15503,-0.0248 -0.0713,-0.0248 -0.12402,-0.0775 -0.0527,-0.0527 -0.0837,-0.13333 -0.031,-0.0837 -0.031,-0.19843 z" />
      <path
         id="path1169"
         style="font-size:6.35px;stroke-width:0.264583"
         d="m 116.60644,257.90175 q 0,-0.11783 0.031,-0.19844 0.031,-0.0837 0.0837,-0.13333 0.0527,-0.0527 0.12402,-0.0744 0.0713,-0.0248 0.15503,-0.0248 0.0806,0 0.15193,0.0248 0.0744,0.0217 0.12712,0.0744 0.0527,0.0496 0.0837,0.13333 0.031,0.0806 0.031,0.19844 0,0.11472 -0.031,0.19843 -0.031,0.0806 -0.0837,0.13333 -0.0527,0.0527 -0.12712,0.0775 -0.0713,0.0248 -0.15193,0.0248 -0.0837,0 -0.15503,-0.0248 -0.0713,-0.0248 -0.12402,-0.0775 -0.0527,-0.0527 -0.0837,-0.13333 -0.031,-0.0837 -0.031,-0.19843 z" />
      <path
         id="path1171"
         style="font-size:6.35px;stroke-width:0.264583"
         d="m 118.30866,257.90175 q 0,-0.11783 0.031,-0.19844 0.031,-0.0837 0.0837,-0.13333 0.0527,-0.0527 0.12403,-0.0744 0.0713,-0.0248 0.15503,-0.0248 0.0806,0 0.15192,0.0248 0.0744,0.0217 0.12713,0.0744 0.0527,0.0496 0.0837,0.13333 0.031,0.0806 0.031,0.19844 0,0.11472 -0.031,0.19843 -0.031,0.0806 -0.0837,0.13333 -0.0527,0.0527 -0.12713,0.0775 -0.0713,0.0248 -0.15192,0.0248 -0.0837,0 -0.15503,-0.0248 -0.0713,-0.0248 -0.12403,-0.0775 -0.0527,-0.0527 -0.0837,-0.13333 -0.031,-0.0837 -0.031,-0.19843 z" />
      <path
         id="path1173"
         style="font-size:6.35px;stroke-width:0.264583"
         d="m 120.01088,257.90175 q 0,-0.11783 0.031,-0.19844 0.031,-0.0837 0.0837,-0.13333 0.0527,-0.0527 0.12403,-0.0744 0.0713,-0.0248 0.15503,-0.0248 0.0806,0 0.15192,0.0248 0.0744,0.0217 0.12713,0.0744 0.0527,0.0496 0.0837,0.13333 0.031,0.0806 0.031,0.19844 0,0.11472 -0.031,0.19843 -0.031,0.0806 -0.0837,0.13333 -0.0527,0.0527 -0.12713,0.0775 -0.0713,0.0248 -0.15192,0.0248 -0.0837,0 -0.15503,-0.0248 -0.0713,-0.0248 -0.12403,-0.0775 -0.0527,-0.0527 -0.0837,-0.13333 -0.031,-0.0837 -0.031,-0.19843 z" />
      <path
         id="path1175"
         style="font-size:6.35px;stroke-width:0.264583"
         d="m 121.7131,257.90175 q 0,-0.11783 0.031,-0.19844 0.031,-0.0837 0.0837,-0.13333 0.0527,-0.0527 0.12403,-0.0744 0.0713,-0.0248 0.15503,-0.0248 0.0806,0 0.15193,0.0248 0.0744,0.0217 0.12712,0.0744 0.0527,0.0496 0.0837,0.13333 0.031,0.0806 0.031,0.19844 0,0.11472 -0.031,0.19843 -0.031,0.0806 -0.0837,0.13333 -0.0527,0.0527 -0.12712,0.0775 -0.0713,0.0248 -0.15193,0.0248 -0.0837,0 -0.15503,-0.0248 -0.0713,-0.0248 -0.12403,-0.0775 -0.0527,-0.0527 -0.0837,-0.13333 -0.031,-0.0837 -0.031,-0.19843 z" />
      <path
         id="path1177"
         style="font-size:6.35px;stroke-width:0.264583"
         d="m 123.41532,257.90175 q 0,-0.11783 0.031,-0.19844 0.031,-0.0837 0.0837,-0.13333 0.0527,-0.0527 0.12402,-0.0744 0.0713,-0.0248 0.15503,-0.0248 0.0806,0 0.15193,0.0248 0.0744,0.0217 0.12712,0.0744 0.0527,0.0496 0.0837,0.13333 0.031,0.0806 0.031,0.19844 0,0.11472 -0.031,0.19843 -0.031,0.0806 -0.0837,0.13333 -0.0527,0.0527 -0.12712,0.0775 -0.0713,0.0248 -0.15193,0.0248 -0.0837,0 -0.15503,-0.0248 -0.0713,-0.0248 -0.12402,-0.0775 -0.0527,-0.0527 -0.0837,-0.13333 -0.031,-0.0837 -0.031,-0.19843 z" />
      <path
         id="path1179"
         style="font-size:6.35px;stroke-width:0.264583"
         d="m 125.11754,257.90175 q 0,-0.11783 0.031,-0.19844 0.031,-0.0837 0.0837,-0.13333 0.0527,-0.0527 0.12402,-0.0744 0.0713,-0.0248 0.15503,-0.0248 0.0806,0 0.15193,0.0248 0.0744,0.0217 0.12712,0.0744 0.0527,0.0496 0.0837,0.13333 0.031,0.0806 0.031,0.19844 0,0.11472 -0.031,0.19843 -0.031,0.0806 -0.0837,0.13333 -0.0527,0.0527 -0.12712,0.0775 -0.0713,0.0248 -0.15193,0.0248 -0.0837,0 -0.15503,-0.0248 -0.0713,-0.0248 -0.12402,-0.0775 -0.0527,-0.0527 -0.0837,-0.13333 -0.031,-0.0837 -0.031,-0.19843 z" />
      <path
         id="path1181"
         style="font-size:6.35px;stroke-width:0.264583"
         d="m 126.81977,257.90175 q 0,-0.11783 0.031,-0.19844 0.031,-0.0837 0.0837,-0.13333 0.0527,-0.0527 0.12402,-0.0744 0.0713,-0.0248 0.15503,-0.0248 0.0806,0 0.15193,0.0248 0.0744,0.0217 0.12713,0.0744 0.0527,0.0496 0.0837,0.13333 0.031,0.0806 0.031,0.19844 0,0.11472 -0.031,0.19843 -0.031,0.0806 -0.0837,0.13333 -0.0527,0.0527 -0.12713,0.0775 -0.0713,0.0248 -0.15193,0.0248 -0.0837,0 -0.15503,-0.0248 -0.0713,-0.0248 -0.12402,-0.0775 -0.0527,-0.0527 -0.0837,-0.13333 -0.031,-0.0837 -0.031,-0.19843 z" />
      <path
         id="path1183"
         style="font-size:6.35px;stroke-width:0.264583"
         d="m 128.52199,257.90175 q 0,-0.11783 0.031,-0.19844 0.031,-0.0837 0.0837,-0.13333 0.0527,-0.0527 0.12403,-0.0744 0.0713,-0.0248 0.15502,-0.0248 0.0806,0 0.15193,0.0248 0.0744,0.0217 0.12713,0.0744 0.0527,0.0496 0.0837,0.13333 0.031,0.0806 0.031,0.19844 0,0.11472 -0.031,0.19843 -0.031,0.0806 -0.0837,0.13333 -0.0527,0.0527 -0.12713,0.0775 -0.0713,0.0248 -0.15193,0.0248 -0.0837,0 -0.15502,-0.0248 -0.0713,-0.0248 -0.12403,-0.0775 -0.0527,-0.0527 -0.0837,-0.13333 -0.031,-0.0837 -0.031,-0.19843 z" />
      <path
         id="path1185"
         style="font-size:6.35px;stroke-width:0.264583"
         d="m 130.22421,257.90175 q 0,-0.11783 0.031,-0.19844 0.031,-0.0837 0.0837,-0.13333 0.0527,-0.0527 0.12403,-0.0744 0.0713,-0.0248 0.15503,-0.0248 0.0806,0 0.15192,0.0248 0.0744,0.0217 0.12713,0.0744 0.0527,0.0496 0.0837,0.13333 0.031,0.0806 0.031,0.19844 0,0.11472 -0.031,0.19843 -0.031,0.0806 -0.0837,0.13333 -0.0527,0.0527 -0.12713,0.0775 -0.0713,0.0248 -0.15192,0.0248 -0.0837,0 -0.15503,-0.0248 -0.0713,-0.0248 -0.12403,-0.0775 -0.0527,-0.0527 -0.0837,-0.13333 -0.031,-0.0837 -0.031,-0.19843 z" />
      <path
         id="path1187"
         style="font-size:6.35px;stroke-width:0.264583"
         d="m 131.92643,257.90175 q 0,-0.11783 0.031,-0.19844 0.031,-0.0837 0.0837,-0.13333 0.0527,-0.0527 0.12403,-0.0744 0.0713,-0.0248 0.15503,-0.0248 0.0806,0 0.15193,0.0248 0.0744,0.0217 0.12712,0.0744 0.0527,0.0496 0.0837,0.13333 0.031,0.0806 0.031,0.19844 0,0.11472 -0.031,0.19843 -0.031,0.0806 -0.0837,0.13333 -0.0527,0.0527 -0.12712,0.0775 -0.0713,0.0248 -0.15193,0.0248 -0.0837,0 -0.15503,-0.0248 -0.0713,-0.0248 -0.12403,-0.0775 -0.0527,-0.0527 -0.0837,-0.13333 -0.031,-0.0837 -0.031,-0.19843 z" />
    </g>
    <g
       transform="matrix(1.0658025,0,0,1.0658025,-3.338234,-14.884297)"
       style="font-size:3.52777px;line-height:1.25;font-family:sans-serif;letter-spacing:0px;fill:#e255c4;fill-opacity:1;stroke-width:0.265;stroke-miterlimit:4;stroke-dasharray:none"
       id="text950"
       aria-label="1">
      <path
         id="path1002"
         style="font-style:normal;font-variant:normal;font-weight:normal;font-stretch:normal;font-family:'Droid Serif';-inkscape-font-specification:'Droid Serif';fill:#e255c4;fill-opacity:1;stroke-width:0.265;stroke-miterlimit:4;stroke-dasharray:none"
         d="m 45.600572,196.02417 v -0.14814 h 0.235988 q 0.06029,0 0.111966,-0.009 0.0534,-0.009 0.09129,-0.0345 0.03962,-0.0276 0.06201,-0.0775 0.02412,-0.0499 0.02412,-0.13263 v -1.85346 q -0.06718,0.0827 -0.127469,0.14986 -0.06029,0.0672 -0.11541,0.11541 -0.05512,0.0482 -0.10852,0.0758 -0.05168,0.0258 -0.103353,0.0258 -0.07752,0 -0.127468,-0.0517 -0.04995,-0.0534 -0.04995,-0.13781 0.0534,-0.0138 0.106798,-0.0327 0.05512,-0.0207 0.11541,-0.0517 0.06201,-0.0327 0.132636,-0.0775 0.07235,-0.0465 0.160197,-0.11024 l 0.248046,-0.18259 h 0.225653 v 2.13079 q 0,0.0827 0.02239,0.13263 0.02239,0.05 0.06201,0.0775 0.03962,0.0258 0.0913,0.0345 0.0534,0.009 0.113688,0.009 h 0.172254 v 0.14814 z" />
    </g>
    <g
       transform="matrix(1.0658025,0,0,1.0658025,-3.338234,-14.884297)"
       style="font-size:3.52777px;line-height:1.25;font-family:sans-serif;letter-spacing:0px;fill:#e255c4;fill-opacity:1;stroke-width:0.265;stroke-miterlimit:4;stroke-dasharray:none"
       id="text954"
       aria-label="2">
      <path
         id="path1005"
         style="font-style:normal;font-variant:normal;font-weight:normal;font-stretch:normal;font-family:'Droid Serif';-inkscape-font-specification:'Droid Serif';fill:#e255c4;fill-opacity:1;stroke-width:0.265;stroke-miterlimit:4;stroke-dasharray:none"
         d="m 71.599211,194.07683 q 0,0.12402 -0.03962,0.24116 -0.03962,0.11713 -0.11541,0.24115 -0.07579,0.1223 -0.186035,0.25494 -0.10852,0.13263 -0.248046,0.28594 l -0.596,0.65973 h 0.814763 q 0.07924,0 0.130913,-0.0224 0.05168,-0.0224 0.08441,-0.0586 0.03273,-0.0362 0.04995,-0.0827 0.01895,-0.0482 0.03101,-0.0999 l 0.01378,-0.0637 h 0.148139 l -0.01723,0.60978 h -1.517561 v -0.25838 l 0.58911,-0.6804 q 0.141248,-0.16365 0.235988,-0.29284 0.09646,-0.12919 0.155029,-0.24288 0.05857,-0.11541 0.08441,-0.22393 0.02584,-0.11024 0.02584,-0.23082 0,-0.10163 -0.02239,-0.18259 -0.02067,-0.0827 -0.06546,-0.14125 -0.04306,-0.0603 -0.111965,-0.0913 -0.06718,-0.0327 -0.160197,-0.0327 -0.120578,0 -0.19637,0.0431 -0.07407,0.0431 -0.117133,0.11541 -0.04306,0.0724 -0.05857,0.16709 -0.0155,0.0947 -0.0155,0.19982 -0.06373,0 -0.118855,-0.0103 -0.05512,-0.0103 -0.09646,-0.0362 -0.04134,-0.0276 -0.06546,-0.0706 -0.02239,-0.0448 -0.02239,-0.11196 0,-0.10163 0.04306,-0.18776 0.04479,-0.0879 0.130913,-0.15158 0.08785,-0.0637 0.217041,-0.0982 0.129191,-0.0362 0.299722,-0.0362 0.167087,0 0.299723,0.0431 0.132636,0.0413 0.225653,0.11886 0.09302,0.0758 0.141249,0.18431 0.04995,0.10852 0.04995,0.24288 z" />
    </g>
    <g
       transform="matrix(1.0658025,0,0,1.0658025,-10.746568,-14.884297)"
       style="font-size:3.52777px;line-height:1.25;font-family:sans-serif;letter-spacing:0px;fill:#e255c4;fill-opacity:1;stroke-width:0.265;stroke-miterlimit:4;stroke-dasharray:none"
       id="text958"
       aria-label="n-1">
      <path
         id="path1008"
         style="font-style:normal;font-variant:normal;font-weight:normal;font-stretch:normal;font-family:'Droid Serif';-inkscape-font-specification:'Droid Serif';fill:#e255c4;fill-opacity:1;stroke-width:0.265;stroke-miterlimit:4;stroke-dasharray:none"
         d="m 144.48415,195.87603 v 0.14814 h -0.94912 v -0.14814 h 0.0293 q 0.0603,0 0.11197,-0.009 0.0534,-0.009 0.0913,-0.0345 0.0396,-0.0276 0.062,-0.0775 0.0241,-0.0499 0.0241,-0.13263 v -1.10071 q 0,-0.0775 -0.0241,-0.12402 -0.0224,-0.0482 -0.062,-0.0741 -0.0396,-0.0258 -0.093,-0.0344 -0.0517,-0.009 -0.11024,-0.009 h -0.0103 v -0.14814 h 0.57016 l 0.0465,0.28594 h 0.0172 q 0.0551,-0.0982 0.11541,-0.1602 0.062,-0.0637 0.12919,-0.0982 0.0689,-0.0362 0.1447,-0.0482 0.0775,-0.0138 0.16192,-0.0138 0.13952,0 0.24804,0.0413 0.11025,0.0396 0.18604,0.12402 0.0775,0.0827 0.11713,0.2136 0.0413,0.13091 0.0413,0.31178 v 0.83371 q 0,0.0827 0.019,0.13263 0.0207,0.05 0.0568,0.0775 0.0362,0.0258 0.0861,0.0345 0.05,0.009 0.10852,0.009 h 0.0121 v 0.14814 h -0.61495 v -1.21784 q 0,-0.11541 -0.0207,-0.20498 -0.0207,-0.0896 -0.0672,-0.15159 -0.0448,-0.062 -0.11885,-0.093 -0.0741,-0.0327 -0.18087,-0.0327 -0.12058,0 -0.20326,0.0465 -0.081,0.0465 -0.13091,0.12574 -0.05,0.0792 -0.0724,0.18259 -0.0207,0.10336 -0.0207,0.21704 v 0.74414 q 0,0.0775 0.0224,0.12575 0.0241,0.0465 0.0637,0.0706 0.0396,0.0241 0.0913,0.0327 0.0534,0.007 0.11197,0.007 z" />
      <path
         id="path1010"
         style="font-style:normal;font-variant:normal;font-weight:normal;font-stretch:normal;font-family:'Droid Serif';-inkscape-font-specification:'Droid Serif';fill:#e255c4;fill-opacity:1;stroke-width:0.265;stroke-miterlimit:4;stroke-dasharray:none"
         d="m 145.80017,195.19563 v -0.26528 h 0.91812 v 0.26528 z" />
      <path
         id="path1012"
         style="font-style:normal;font-variant:normal;font-weight:normal;font-stretch:normal;font-family:'Droid Serif';-inkscape-font-specification:'Droid Serif';fill:#e255c4;fill-opacity:1;stroke-width:0.265;stroke-miterlimit:4;stroke-dasharray:none"
         d="m 147.14548,196.02417 v -0.14814 h 0.23599 q 0.0603,0 0.11196,-0.009 0.0534,-0.009 0.0913,-0.0345 0.0396,-0.0276 0.062,-0.0775 0.0241,-0.0499 0.0241,-0.13263 v -1.85346 q -0.0672,0.0827 -0.12747,0.14986 -0.0603,0.0672 -0.11541,0.11541 -0.0551,0.0482 -0.10852,0.0758 -0.0517,0.0258 -0.10335,0.0258 -0.0775,0 -0.12747,-0.0517 -0.05,-0.0534 -0.05,-0.13781 0.0534,-0.0138 0.1068,-0.0327 0.0551,-0.0207 0.11541,-0.0517 0.062,-0.0327 0.13264,-0.0775 0.0723,-0.0465 0.16019,-0.11024 l 0.24805,-0.18259 h 0.22565 v 2.13079 q 0,0.0827 0.0224,0.13263 0.0224,0.05 0.062,0.0775 0.0396,0.0258 0.0913,0.0345 0.0534,0.009 0.11369,0.009 h 0.17226 v 0.14814 z" />
    </g>
    <g
       transform="matrix(1.0658025,0,0,1.0658025,-10.746568,-14.884297)"
       style="font-size:3.52777px;line-height:1.25;font-family:sans-serif;letter-spacing:0px;fill:#e255c4;fill-opacity:1;stroke-width:0.265;stroke-miterlimit:4;stroke-dasharray:none"
       id="text962"
       aria-label="n">
      <path
         id="path1015"
         style="font-style:normal;font-variant:normal;font-weight:normal;font-stretch:normal;font-family:'Droid Serif';-inkscape-font-specification:'Droid Serif';fill:#e255c4;fill-opacity:1;stroke-width:0.265;stroke-miterlimit:4;stroke-dasharray:none"
         d="m 165.12394,195.57975 v 0.14814 h -0.94913 v -0.14814 h 0.0293 q 0.0603,0 0.11196,-0.009 0.0534,-0.009 0.0913,-0.0345 0.0396,-0.0276 0.062,-0.0775 0.0241,-0.0499 0.0241,-0.13263 v -1.10071 q 0,-0.0775 -0.0241,-0.12402 -0.0224,-0.0482 -0.062,-0.0741 -0.0396,-0.0258 -0.093,-0.0344 -0.0517,-0.009 -0.11024,-0.009 h -0.0103 v -0.14814 h 0.57016 l 0.0465,0.28594 h 0.0172 q 0.0551,-0.0982 0.11541,-0.1602 0.062,-0.0637 0.12919,-0.0982 0.0689,-0.0362 0.14469,-0.0482 0.0775,-0.0138 0.16192,-0.0138 0.13953,0 0.24805,0.0413 0.11024,0.0396 0.18603,0.12402 0.0775,0.0827 0.11714,0.2136 0.0413,0.13091 0.0413,0.31178 v 0.83371 q 0,0.0827 0.0189,0.13263 0.0207,0.05 0.0568,0.0775 0.0362,0.0258 0.0861,0.0345 0.0499,0.009 0.10852,0.009 h 0.0121 v 0.14814 h -0.61495 v -1.21784 q 0,-0.11541 -0.0207,-0.20498 -0.0207,-0.0896 -0.0672,-0.15159 -0.0448,-0.062 -0.11886,-0.093 -0.0741,-0.0327 -0.18087,-0.0327 -0.12057,0 -0.20326,0.0465 -0.081,0.0465 -0.13091,0.12574 -0.0499,0.0792 -0.0724,0.18259 -0.0207,0.10336 -0.0207,0.21704 v 0.74414 q 0,0.0775 0.0224,0.12575 0.0241,0.0465 0.0637,0.0706 0.0396,0.0241 0.0913,0.0327 0.0534,0.007 0.11196,0.007 z" />
    </g>
    <g
       transform="matrix(1.0658025,0,0,1.0658025,-3.3382343,-14.884297)"
       style="font-size:3.52777px;line-height:1.25;font-family:sans-serif;letter-spacing:0px;fill:#4655c4;fill-opacity:1;stroke-width:0.264999;stroke-miterlimit:4;stroke-dasharray:none"
       id="text950-7"
       aria-label="1">
      <path
         id="path1018"
         style="font-style:normal;font-variant:normal;font-weight:normal;font-stretch:normal;font-family:'Droid Serif';-inkscape-font-specification:'Droid Serif';fill:#4655c4;fill-opacity:1;stroke-width:0.264999;stroke-miterlimit:4;stroke-dasharray:none"
         d="m 40.092755,268.0054 v -0.14814 h 0.235989 q 0.06029,0 0.111965,-0.009 0.0534,-0.009 0.0913,-0.0344 0.03962,-0.0276 0.06201,-0.0775 0.02411,-0.0499 0.02411,-0.13263 v -1.85346 q -0.06718,0.0827 -0.127468,0.14986 -0.06029,0.0672 -0.11541,0.11541 -0.05512,0.0482 -0.108521,0.0758 -0.05168,0.0258 -0.103352,0.0258 -0.07751,0 -0.127469,-0.0517 -0.04995,-0.0534 -0.04995,-0.13781 0.0534,-0.0138 0.106797,-0.0327 0.05512,-0.0207 0.115411,-0.0517 0.06201,-0.0327 0.132636,-0.0775 0.07235,-0.0465 0.160196,-0.11024 l 0.248047,-0.18259 h 0.225653 v 2.13079 q 0,0.0827 0.02239,0.13263 0.02239,0.05 0.06201,0.0775 0.03962,0.0258 0.09129,0.0344 0.0534,0.009 0.113688,0.009 h 0.172255 v 0.14814 z" />
    </g>
    <g
       transform="matrix(1.0658025,0,0,1.0658025,-3.3382343,-14.884297)"
       style="font-size:3.52777px;line-height:1.25;font-family:sans-serif;letter-spacing:0px;fill:#4655c4;fill-opacity:1;stroke-width:0.264999;stroke-miterlimit:4;stroke-dasharray:none"
       id="text954-9"
       aria-label="2">
      <path
         id="path1021"
         style="font-style:normal;font-variant:normal;font-weight:normal;font-stretch:normal;font-family:'Droid Serif';-inkscape-font-specification:'Droid Serif';fill:#4655c4;fill-opacity:1;stroke-width:0.264999;stroke-miterlimit:4;stroke-dasharray:none"
         d="m 66.091398,266.05808 q 0,0.12402 -0.03962,0.24115 -0.03962,0.11714 -0.115411,0.24116 -0.07579,0.1223 -0.186034,0.25493 -0.108521,0.13264 -0.248047,0.28595 l -0.596,0.65973 h 0.814763 q 0.07924,0 0.130914,-0.0224 0.05168,-0.0224 0.0844,-0.0586 0.03273,-0.0362 0.04995,-0.0827 0.01895,-0.0482 0.03101,-0.0999 l 0.01378,-0.0637 h 0.148139 l -0.01722,0.60978 H 64.64446 v -0.25838 l 0.58911,-0.68041 q 0.141249,-0.16364 0.235989,-0.29283 0.09646,-0.12919 0.155029,-0.24288 0.05857,-0.11541 0.08441,-0.22393 0.02584,-0.11024 0.02584,-0.23082 0,-0.10163 -0.02239,-0.18259 -0.02067,-0.0827 -0.06546,-0.14125 -0.04306,-0.0603 -0.111965,-0.0913 -0.06718,-0.0327 -0.160197,-0.0327 -0.120578,0 -0.19637,0.0431 -0.07407,0.0431 -0.117133,0.11541 -0.04306,0.0723 -0.05857,0.16709 -0.0155,0.0947 -0.0155,0.19981 -0.06373,0 -0.118856,-0.0103 -0.05512,-0.0103 -0.09646,-0.0362 -0.04134,-0.0276 -0.06546,-0.0706 -0.02239,-0.0448 -0.02239,-0.11196 0,-0.10163 0.04306,-0.18776 0.04479,-0.0879 0.130914,-0.15159 0.08785,-0.0637 0.21704,-0.0982 0.129191,-0.0362 0.299723,-0.0362 0.167087,0 0.299723,0.0431 0.132636,0.0413 0.225653,0.11885 0.09302,0.0758 0.141249,0.18432 0.04995,0.10852 0.04995,0.24288 z" />
    </g>
    <g
       transform="matrix(1.0658025,0,0,1.0658025,-10.2174,-14.884297)"
       style="font-size:3.52777px;line-height:1.25;font-family:sans-serif;letter-spacing:0px;fill:#4655c4;fill-opacity:1;stroke-width:0.264999;stroke-miterlimit:4;stroke-dasharray:none"
       id="text958-6"
       aria-label="m-1">
      <path
         id="path1024"
         style="font-style:normal;font-variant:normal;font-weight:normal;font-stretch:normal;font-family:'Droid Serif';-inkscape-font-specification:'Droid Serif';fill:#4655c4;fill-opacity:1;stroke-width:0.264999;stroke-miterlimit:4;stroke-dasharray:none"
         d="m 144.26804,267.85726 v 0.14814 h -0.94912 v -0.14814 h 0.0465 q 0.0603,0 0.11024,-0.009 0.0499,-0.009 0.0861,-0.0344 0.0362,-0.0276 0.0551,-0.0775 0.0207,-0.0499 0.0207,-0.13263 v -1.10071 q 0,-0.0775 -0.0207,-0.12402 -0.0207,-0.0482 -0.0568,-0.0741 -0.0362,-0.0258 -0.0861,-0.0344 -0.05,-0.009 -0.10852,-0.009 h -0.0103 v -0.14814 h 0.55294 l 0.0465,0.28594 h 0.0172 q 0.0534,-0.0982 0.11197,-0.1602 0.0586,-0.0637 0.12402,-0.0982 0.0672,-0.0362 0.13953,-0.0482 0.0741,-0.0138 0.15675,-0.0138 0.0861,0 0.16364,0.0172 0.0775,0.0172 0.14297,0.0551 0.0672,0.0379 0.11886,0.0999 0.0534,0.0603 0.0861,0.14814 h 0.0293 q 0.0534,-0.0982 0.11541,-0.1602 0.062,-0.0637 0.13091,-0.0982 0.0706,-0.0362 0.14642,-0.0482 0.0775,-0.0138 0.16019,-0.0138 0.13436,0 0.24116,0.0413 0.1068,0.0396 0.18087,0.12402 0.0741,0.0827 0.11369,0.2136 0.0396,0.13091 0.0396,0.31178 v 0.83371 q 0,0.0827 0.0207,0.13263 0.0207,0.05 0.0568,0.0775 0.0362,0.0258 0.0861,0.0344 0.05,0.009 0.10852,0.009 h 0.0103 v 0.14814 h -0.61322 v -1.21784 q 0,-0.11541 -0.0207,-0.20498 -0.0189,-0.0896 -0.0637,-0.15158 -0.0431,-0.062 -0.11369,-0.093 -0.0706,-0.0327 -0.17225,-0.0327 -0.11024,0 -0.18604,0.0431 -0.0741,0.0413 -0.12057,0.11369 -0.0465,0.0724 -0.0672,0.16709 -0.0189,0.0947 -0.0189,0.20154 v 0.77342 q 0,0.0827 0.0207,0.13263 0.0207,0.05 0.0568,0.0775 0.0362,0.0258 0.0861,0.0344 0.0499,0.009 0.10852,0.009 h 0.0103 v 0.14814 h -0.61323 v -1.21784 q 0,-0.11541 -0.0207,-0.20498 -0.0189,-0.0896 -0.0637,-0.15158 -0.0431,-0.062 -0.11369,-0.093 -0.0706,-0.0327 -0.17226,-0.0327 -0.11541,0 -0.19464,0.0465 -0.0775,0.0465 -0.12575,0.12575 -0.0482,0.0792 -0.0689,0.18258 -0.0207,0.10336 -0.0207,0.21705 v 0.74413 q 0,0.0775 0.0224,0.12575 0.0241,0.0465 0.0637,0.0706 0.0396,0.0241 0.0913,0.0327 0.0534,0.007 0.11197,0.007 z" />
      <path
         id="path1026"
         style="font-style:normal;font-variant:normal;font-weight:normal;font-stretch:normal;font-family:'Droid Serif';-inkscape-font-specification:'Droid Serif';fill:#4655c4;fill-opacity:1;stroke-width:0.264999;stroke-miterlimit:4;stroke-dasharray:none"
         d="m 146.64171,267.17686 v -0.26527 h 0.91811 v 0.26527 z" />
      <path
         id="path1028"
         style="font-style:normal;font-variant:normal;font-weight:normal;font-stretch:normal;font-family:'Droid Serif';-inkscape-font-specification:'Droid Serif';fill:#4655c4;fill-opacity:1;stroke-width:0.264999;stroke-miterlimit:4;stroke-dasharray:none"
         d="m 147.98701,268.0054 v -0.14814 h 0.23599 q 0.0603,0 0.11197,-0.009 0.0534,-0.009 0.0913,-0.0344 0.0396,-0.0276 0.062,-0.0775 0.0241,-0.0499 0.0241,-0.13263 v -1.85346 q -0.0672,0.0827 -0.12747,0.14986 -0.0603,0.0672 -0.11541,0.11541 -0.0551,0.0482 -0.10852,0.0758 -0.0517,0.0258 -0.10335,0.0258 -0.0775,0 -0.12747,-0.0517 -0.0499,-0.0534 -0.0499,-0.13781 0.0534,-0.0138 0.10679,-0.0327 0.0551,-0.0207 0.11541,-0.0517 0.062,-0.0327 0.13264,-0.0775 0.0724,-0.0465 0.1602,-0.11024 l 0.24804,-0.18259 h 0.22566 v 2.13079 q 0,0.0827 0.0224,0.13263 0.0224,0.05 0.062,0.0775 0.0396,0.0258 0.0913,0.0344 0.0534,0.009 0.11369,0.009 h 0.17226 v 0.14814 z" />
    </g>
    <g
       transform="matrix(1.0658025,0,0,1.0658025,-10.2174,-14.884297)"
       style="font-size:3.52777px;line-height:1.25;font-family:sans-serif;letter-spacing:0px;fill:#4655c4;fill-opacity:1;stroke-width:0.264999;stroke-miterlimit:4;stroke-dasharray:none"
       id="text962-6"
       aria-label="m">
      <path
         id="path1031"
         style="font-style:normal;font-variant:normal;font-weight:normal;font-stretch:normal;font-family:'Droid Serif';-inkscape-font-specification:'Droid Serif';fill:#4655c4;fill-opacity:1;stroke-width:0.264999;stroke-miterlimit:4;stroke-dasharray:none"
         d="m 164.90783,267.561 v 0.14814 H 163.9587 V 267.561 h 0.0465 q 0.0603,0 0.11025,-0.009 0.0499,-0.009 0.0861,-0.0345 0.0362,-0.0276 0.0551,-0.0775 0.0207,-0.05 0.0207,-0.13264 v -1.1007 q 0,-0.0775 -0.0207,-0.12402 -0.0207,-0.0482 -0.0568,-0.0741 -0.0362,-0.0258 -0.0861,-0.0344 -0.0499,-0.009 -0.10852,-0.009 h -0.0103 V 265.817 h 0.55293 l 0.0465,0.28595 h 0.0172 q 0.0534,-0.0982 0.11196,-0.1602 0.0586,-0.0637 0.12403,-0.0982 0.0672,-0.0362 0.13952,-0.0482 0.0741,-0.0138 0.15675,-0.0138 0.0861,0 0.16365,0.0172 0.0775,0.0172 0.14297,0.0551 0.0672,0.0379 0.11885,0.0999 0.0534,0.0603 0.0861,0.14814 h 0.0293 q 0.0534,-0.0982 0.11541,-0.1602 0.062,-0.0637 0.13092,-0.0982 0.0706,-0.0362 0.14641,-0.0482 0.0775,-0.0138 0.1602,-0.0138 0.13436,0 0.24116,0.0413 0.10679,0.0396 0.18086,0.12403 0.0741,0.0827 0.11369,0.21359 0.0396,0.13092 0.0396,0.31178 v 0.83371 q 0,0.0827 0.0207,0.13264 0.0207,0.0499 0.0568,0.0775 0.0362,0.0258 0.0861,0.0345 0.05,0.009 0.10852,0.009 h 0.0103 v 0.14814 h -0.61323 v -1.21784 q 0,-0.11541 -0.0207,-0.20498 -0.0189,-0.0896 -0.0637,-0.15159 -0.0431,-0.062 -0.11369,-0.093 -0.0706,-0.0327 -0.17226,-0.0327 -0.11024,0 -0.18603,0.0431 -0.0741,0.0413 -0.12058,0.11369 -0.0465,0.0723 -0.0672,0.16708 -0.0189,0.0947 -0.0189,0.20154 v 0.77342 q 0,0.0827 0.0207,0.13264 0.0207,0.0499 0.0568,0.0775 0.0362,0.0258 0.0861,0.0345 0.0499,0.009 0.10852,0.009 h 0.0103 v 0.14814 h -0.61322 v -1.21784 q 0,-0.11541 -0.0207,-0.20498 -0.0189,-0.0896 -0.0637,-0.15159 -0.0431,-0.062 -0.11369,-0.093 -0.0706,-0.0327 -0.17225,-0.0327 -0.11541,0 -0.19465,0.0465 -0.0775,0.0465 -0.12574,0.12575 -0.0482,0.0792 -0.0689,0.18259 -0.0207,0.10335 -0.0207,0.21704 v 0.74414 q 0,0.0775 0.0224,0.12575 0.0241,0.0465 0.0637,0.0706 0.0396,0.0241 0.0913,0.0327 0.0534,0.007 0.11196,0.007 z" />
    </g>
  </g>
</svg>
