<?xml version="1.0" encoding="UTF-8" standalone="no"?>
<svg
   xmlns:dc="http://purl.org/dc/elements/1.1/"
   xmlns:cc="http://creativecommons.org/ns#"
   xmlns:rdf="http://www.w3.org/1999/02/22-rdf-syntax-ns#"
   xmlns:svg="http://www.w3.org/2000/svg"
   xmlns="http://www.w3.org/2000/svg"
   xmlns:sodipodi="http://sodipodi.sourceforge.net/DTD/sodipodi-0.dtd"
   xmlns:inkscape="http://www.inkscape.org/namespaces/inkscape"
   width="240mm"
   height="120mm"
   viewBox="0 0 240 120"
   version="1.1"
   id="svg8"
   inkscape:version="1.0 (4035a4fb49, 2020-05-01)"
   sodipodi:docname="dos-grafos-isomorfos.svg">
  <defs
     id="defs2" />
  <sodipodi:namedview
     id="base"
     pagecolor="#ffffff"
     bordercolor="#666666"
     borderopacity="1.0"
     inkscape:pageopacity="0.0"
     inkscape:pageshadow="2"
     inkscape:zoom="0.70312851"
     inkscape:cx="279.07626"
     inkscape:cy="145.7663"
     inkscape:document-units="mm"
     inkscape:current-layer="layer1"
     showgrid="false"
     showborder="true"
     width="200mm"
     showguides="false"
     inkscape:guide-bbox="true"
     inkscape:window-width="958"
     inkscape:window-height="1007"
     inkscape:window-x="960"
     inkscape:window-y="54"
     inkscape:window-maximized="1"
     inkscape:document-rotation="0">
    <inkscape:grid
       type="xygrid"
       id="grid815"
       units="mm"
       spacingx="10"
       spacingy="10"
       empspacing="4"
       dotted="false" />
  </sodipodi:namedview>
  <metadata
     id="metadata5">
    <rdf:RDF>
      <cc:Work
         rdf:about="">
        <dc:format>image/svg+xml</dc:format>
        <dc:type
           rdf:resource="http://purl.org/dc/dcmitype/StillImage" />
        <dc:title></dc:title>
      </cc:Work>
    </rdf:RDF>
  </metadata>
  <g
     inkscape:label="Layer 1"
     inkscape:groupmode="layer"
     id="layer1"
     transform="translate(0,-177)">
    <path
       d="m 170.23735,221.35399 c 0,3.05435 -2.37418,5.5304 -5.30288,5.53039 -2.92869,0 -5.30286,-2.47604 -5.30286,-5.53039 0,-3.05434 2.37417,-5.53038 5.30286,-5.53038 2.9287,-1e-5 5.30288,2.47603 5.30288,5.53038 z"
       style="opacity:0.99;fill:#ecfd9d;fill-opacity:0.335485;stroke:#000000;stroke-width:0.365001;paint-order:stroke fill markers"
       id="path8-36"
       sodipodi:nodetypes="sssss" />
    <path
       id="path8-3-0"
       style="opacity:0.99;fill:#ecfd9d;fill-opacity:0.335485;stroke:#000000;stroke-width:0.365001;paint-order:stroke fill markers"
       d="m 197.55181,221.73245 a 5.3028657,5.5303833 0 0 1 -5.30287,5.53039 5.3028657,5.5303833 0 0 1 -5.30287,-5.53039 5.3028657,5.5303833 0 0 1 5.30287,-5.53038 5.3028657,5.5303833 0 0 1 5.30287,5.53038 z" />
    <path
       id="path8-6-6"
       style="opacity:0.99;fill:#ecfd9d;fill-opacity:0.335485;stroke:#000000;stroke-width:0.365001;paint-order:stroke fill markers"
       d="m 170.98158,254.09429 a 5.3028657,5.5303833 0 0 1 -5.30287,5.53039 5.3028657,5.5303833 0 0 1 -5.30287,-5.53039 5.3028657,5.5303833 0 0 1 5.30287,-5.53038 5.3028657,5.5303833 0 0 1 5.30287,5.53038 z" />
    <path
       d="m 198.29605,254.47275 a 5.3028657,5.5303833 0 0 1 -5.30287,5.53039 5.3028657,5.5303833 0 0 1 -5.30287,-5.53039 5.3028657,5.5303833 0 0 1 5.30287,-5.53038 5.3028657,5.5303833 0 0 1 5.30287,5.53038 z"
       style="opacity:0.99;fill:#ecfd9d;fill-opacity:0.335485;stroke:#000000;stroke-width:0.365001;paint-order:stroke fill markers"
       id="path8-3-7-2" />
    <path
       id="path8-3-7-5-6"
       style="opacity:0.99;fill:#ecfd9d;fill-opacity:0.335485;stroke:#000000;stroke-width:0.365001;paint-order:stroke fill markers"
       d="m 184.44987,210.33126 a 5.3028657,5.5303833 0 0 1 -5.30287,5.53039 5.3028657,5.5303833 0 0 1 -5.30287,-5.53039 5.3028657,5.5303833 0 0 1 5.30287,-5.53038 5.3028657,5.5303833 0 0 1 5.30287,5.53038 z" />
    <path
       id="path890-7"
       d="m 187.69031,254.47275 -16.70873,-0.37846"
       style="fill:none;stroke:#000000;stroke-width:0.264583px;stroke-linecap:butt;stroke-linejoin:miter;stroke-opacity:1" />
    <path
       style="fill:none;stroke:#000000;stroke-width:0.264583px;stroke-linecap:butt;stroke-linejoin:miter;stroke-opacity:1"
       d="m 165.67871,248.56391 13.46829,-32.70226 13.84618,33.08072 -22.75583,-27.58838 16.70872,0.37846 z"
       id="path988"
       sodipodi:nodetypes="cccccc" />
    <text
       xml:space="preserve"
       style="font-size:5.64444px;line-height:1.25;font-family:sans-serif;letter-spacing:0px;stroke-width:0.264583"
       x="178.00024"
       y="200.21454"
       id="text996"><tspan
         sodipodi:role="line"
         id="tspan994"
         x="178.00024"
         y="200.21454"
         style="stroke-width:0.264583">B</tspan></text>
    <path
       id="path8"
       style="opacity:0.99;fill:#ecfd9d;fill-opacity:0.335485;stroke:#000000;stroke-width:0.365001;paint-order:stroke fill markers"
       d="m 44.972596,204.73678 a 5.3028655,5.5303831 0 0 1 -5.302866,5.53039 5.3028655,5.5303831 0 0 1 -5.302865,-5.53039 5.3028655,5.5303831 0 0 1 5.302865,-5.53038 5.3028655,5.5303831 0 0 1 5.302866,5.53038 z" />
    <path
       d="m 72.287047,205.11524 a 5.3028657,5.5303833 0 0 1 -5.302867,5.53039 5.3028657,5.5303833 0 0 1 -5.302865,-5.53039 5.3028657,5.5303833 0 0 1 5.302865,-5.53038 5.3028657,5.5303833 0 0 1 5.302867,5.53038 z"
       style="opacity:0.99;fill:#ecfd9d;fill-opacity:0.335485;stroke:#000000;stroke-width:0.365001;paint-order:stroke fill markers"
       id="path8-3" />
    <path
       d="m 45.716834,232.18541 a 5.3028657,5.5303833 0 0 1 -5.302867,5.53039 5.3028657,5.5303833 0 0 1 -5.302865,-5.53039 5.3028657,5.5303833 0 0 1 5.302865,-5.53038 5.3028657,5.5303833 0 0 1 5.302867,5.53038 z"
       style="opacity:0.99;fill:#ecfd9d;fill-opacity:0.335485;stroke:#000000;stroke-width:0.365001;paint-order:stroke fill markers"
       id="path8-6" />
    <path
       id="path8-3-7"
       style="opacity:0.99;fill:#ecfd9d;fill-opacity:0.335485;stroke:#000000;stroke-width:0.365001;paint-order:stroke fill markers"
       d="m 73.031285,232.56387 a 5.3028657,5.5303833 0 0 1 -5.302867,5.53039 5.3028657,5.5303833 0 0 1 -5.302866,-5.53039 5.3028657,5.5303833 0 0 1 5.302866,-5.53038 5.3028657,5.5303833 0 0 1 5.302867,5.53038 z" />
    <path
       d="m 59.314181,252.97623 a 5.3028657,5.5303833 0 0 1 -5.302868,5.53039 5.3028657,5.5303833 0 0 1 -5.302866,-5.53039 5.3028657,5.5303833 0 0 1 5.302866,-5.53038 5.3028657,5.5303833 0 0 1 5.302868,5.53038 z"
       style="opacity:0.99;fill:#ecfd9d;fill-opacity:0.335485;stroke:#000000;stroke-width:0.365001;paint-order:stroke fill markers"
       id="path8-3-7-5" />
    <path
       style="fill:none;stroke:#000000;stroke-width:0.264583px;stroke-linecap:butt;stroke-linejoin:miter;stroke-opacity:1"
       d="m 39.909259,210.24047 -0.05223,16.44933"
       id="path886" />
    <path
       style="fill:none;stroke:#000000;stroke-width:0.264583px;stroke-linecap:butt;stroke-linejoin:miter;stroke-opacity:1"
       d="m 68.240514,210.52376 -0.512096,16.50973"
       id="path888" />
    <path
       style="fill:none;stroke:#000000;stroke-width:0.264583px;stroke-linecap:butt;stroke-linejoin:miter;stroke-opacity:1"
       d="M 62.425552,232.56387 45.716834,232.18541"
       id="path890" />
    <path
       style="fill:none;stroke:#000000;stroke-width:0.264583px;stroke-linecap:butt;stroke-linejoin:miter;stroke-opacity:1"
       d="m 67.728418,238.09426 -8.414237,14.88197"
       id="path892" />
    <path
       style="fill:none;stroke:#000000;stroke-width:0.264583px;stroke-linecap:butt;stroke-linejoin:miter;stroke-opacity:1"
       d="m 48.708446,252.97623 -8.272618,-15.1344"
       id="path894" />
    <path
       style="fill:none;stroke:#000000;stroke-width:0.264583px;stroke-linecap:butt;stroke-linejoin:miter;stroke-opacity:1"
       d="m 44.972595,204.73678 16.708718,0.37846"
       id="path896" />
    <text
       xml:space="preserve"
       style="font-size:5.64444px;line-height:1.25;font-family:sans-serif;letter-spacing:0px;stroke-width:0.264583"
       x="51.649738"
       y="198.60863"
       id="text992"><tspan
         sodipodi:role="line"
         id="tspan990"
         x="51.649738"
         y="198.60863"
         style="stroke-width:0.264583">A</tspan></text>
    <text
       xml:space="preserve"
       style="font-size:5.64444px;line-height:1.25;font-family:sans-serif;letter-spacing:0px;stroke-width:0.264583"
       x="99.606056"
       y="231.36931"
       id="text1000"><tspan
         sodipodi:role="line"
         id="tspan998"
         x="99.606056"
         y="231.36931"
         style="stroke-width:0.264583">$A\cong B$</tspan></text>
  </g>
</svg>
