<?xml version="1.0" encoding="UTF-8" standalone="no"?>
<svg
   xmlns:dc="http://purl.org/dc/elements/1.1/"
   xmlns:cc="http://creativecommons.org/ns#"
   xmlns:rdf="http://www.w3.org/1999/02/22-rdf-syntax-ns#"
   xmlns:svg="http://www.w3.org/2000/svg"
   xmlns="http://www.w3.org/2000/svg"
   xmlns:sodipodi="http://sodipodi.sourceforge.net/DTD/sodipodi-0.dtd"
   xmlns:inkscape="http://www.inkscape.org/namespaces/inkscape"
   width="240mm"
   height="120mm"
   viewBox="0 0 240 120"
   version="1.1"
   id="svg8"
   inkscape:version="1.0 (4035a4fb49, 2020-05-01)"
   sodipodi:docname="k1m.svg">
  <defs
     id="defs2" />
  <sodipodi:namedview
     id="base"
     pagecolor="#ffffff"
     bordercolor="#666666"
     borderopacity="1.0"
     inkscape:pageopacity="0.0"
     inkscape:pageshadow="2"
     inkscape:zoom="0.70312851"
     inkscape:cx="400.97724"
     inkscape:cy="160.46535"
     inkscape:document-units="mm"
     inkscape:current-layer="layer1"
     showgrid="false"
     showborder="true"
     width="200mm"
     showguides="true"
     inkscape:guide-bbox="true"
     inkscape:window-width="958"
     inkscape:window-height="1043"
     inkscape:window-x="960"
     inkscape:window-y="18"
     inkscape:window-maximized="1"
     inkscape:document-rotation="0">
    <inkscape:grid
       type="xygrid"
       id="grid815"
       units="mm"
       spacingx="10"
       spacingy="10"
       empspacing="4"
       dotted="false" />
  </sodipodi:namedview>
  <metadata
     id="metadata5">
    <rdf:RDF>
      <cc:Work
         rdf:about="">
        <dc:format>image/svg+xml</dc:format>
        <dc:type
           rdf:resource="http://purl.org/dc/dcmitype/StillImage" />
        <dc:title></dc:title>
      </cc:Work>
    </rdf:RDF>
  </metadata>
  <g
     inkscape:label="Layer 1"
     inkscape:groupmode="layer"
     id="layer1"
     transform="translate(0,-177)">
    <path
       style="opacity:0.99;fill:#59f47f;fill-opacity:0.47715;stroke:#000000;stroke-width:1.03422;stroke-linecap:round;stroke-linejoin:round;stroke-dasharray:8.27375, 1.03422;paint-order:stroke fill markers"
       id="path8"
       sodipodi:type="arc"
       sodipodi:cx="67.396591"
       sodipodi:cy="195.32777"
       sodipodi:rx="2.6100202"
       sodipodi:ry="2.5039616"
       sodipodi:start="0"
       sodipodi:end="6.2795201"
       sodipodi:open="true"
       sodipodi:arc-type="arc"
       d="m 70.006611,195.32777 a 2.6100202,2.5039616 0 0 1 -2.607628,2.50396 2.6100202,2.5039616 0 0 1 -2.612408,-2.49937 2.6100202,2.5039616 0 0 1 2.602841,-2.50854 2.6100202,2.5039616 0 0 1 2.617178,2.49478" />
    <path
       d="m 21.501721,243.69208 a 2.6100202,2.5039616 0 0 1 -2.607629,2.50396 2.6100202,2.5039616 0 0 1 -2.612407,-2.49937 2.6100202,2.5039616 0 0 1 2.602841,-2.50854 2.6100202,2.5039616 0 0 1 2.617177,2.49477"
       sodipodi:arc-type="arc"
       sodipodi:open="true"
       sodipodi:end="6.2795201"
       sodipodi:start="0"
       sodipodi:ry="2.5039616"
       sodipodi:rx="2.6100202"
       sodipodi:cy="243.69208"
       sodipodi:cx="18.891701"
       sodipodi:type="arc"
       id="path8-3"
       style="opacity:0.99;fill:#59f47f;fill-opacity:0.47715;stroke:#000000;stroke-width:1.03422;stroke-linecap:round;stroke-linejoin:round;stroke-dasharray:8.27376, 1.03422;paint-order:stroke fill markers" />
    <path
       d="m 44.85027,243.69208 a 2.6100202,2.5039616 0 0 1 -2.607629,2.50396 2.6100202,2.5039616 0 0 1 -2.612407,-2.49937 2.6100202,2.5039616 0 0 1 2.602841,-2.50854 2.6100202,2.5039616 0 0 1 2.617177,2.49477"
       sodipodi:arc-type="arc"
       sodipodi:open="true"
       sodipodi:end="6.2795201"
       sodipodi:start="0"
       sodipodi:ry="2.5039616"
       sodipodi:rx="2.6100202"
       sodipodi:cy="243.69208"
       sodipodi:cx="42.24025"
       sodipodi:type="arc"
       id="path8-6"
       style="opacity:0.99;fill:#59f47f;fill-opacity:0.47715;stroke:#000000;stroke-width:1.03422;stroke-linecap:round;stroke-linejoin:round;stroke-dasharray:8.27376, 1.03422;paint-order:stroke fill markers" />
    <path
       d="m 68.198819,243.69208 a 2.6100202,2.5039616 0 0 1 -2.607629,2.50396 2.6100202,2.5039616 0 0 1 -2.612407,-2.49937 2.6100202,2.5039616 0 0 1 2.602841,-2.50854 2.6100202,2.5039616 0 0 1 2.617177,2.49477"
       sodipodi:arc-type="arc"
       sodipodi:open="true"
       sodipodi:end="6.2795201"
       sodipodi:start="0"
       sodipodi:ry="2.5039616"
       sodipodi:rx="2.6100202"
       sodipodi:cy="243.69208"
       sodipodi:cx="65.588799"
       sodipodi:type="arc"
       id="path8-7"
       style="opacity:0.99;fill:#59f47f;fill-opacity:0.47715;stroke:#000000;stroke-width:1.03422;stroke-linecap:round;stroke-linejoin:round;stroke-dasharray:8.27376, 1.03422;paint-order:stroke fill markers" />
    <path
       d="m 91.547368,243.69208 a 2.6100202,2.5039616 0 0 1 -2.607629,2.50396 2.6100202,2.5039616 0 0 1 -2.612407,-2.49937 2.6100202,2.5039616 0 0 1 2.602841,-2.50854 2.6100202,2.5039616 0 0 1 2.617177,2.49477"
       sodipodi:arc-type="arc"
       sodipodi:open="true"
       sodipodi:end="6.2795201"
       sodipodi:start="0"
       sodipodi:ry="2.5039616"
       sodipodi:rx="2.6100202"
       sodipodi:cy="243.69208"
       sodipodi:cx="88.937347"
       sodipodi:type="arc"
       id="path8-5"
       style="opacity:0.99;fill:#59f47f;fill-opacity:0.47715;stroke:#000000;stroke-width:1.03422;stroke-linecap:round;stroke-linejoin:round;stroke-dasharray:8.27376, 1.03422;paint-order:stroke fill markers" />
    <path
       d="m 114.89592,243.69208 a 2.6100202,2.5039616 0 0 1 -2.60763,2.50396 2.6100202,2.5039616 0 0 1 -2.61241,-2.49937 2.6100202,2.5039616 0 0 1 2.60284,-2.50854 2.6100202,2.5039616 0 0 1 2.61718,2.49477"
       sodipodi:arc-type="arc"
       sodipodi:open="true"
       sodipodi:end="6.2795201"
       sodipodi:start="0"
       sodipodi:ry="2.5039616"
       sodipodi:rx="2.6100202"
       sodipodi:cy="243.69208"
       sodipodi:cx="112.2859"
       sodipodi:type="arc"
       id="path8-35"
       style="opacity:0.99;fill:#59f47f;fill-opacity:0.47715;stroke:#000000;stroke-width:1.03422;stroke-linecap:round;stroke-linejoin:round;stroke-dasharray:8.27376, 1.03422;paint-order:stroke fill markers" />
    <path
       style="font-variation-settings:normal;opacity:1;vector-effect:none;fill:none;fill-opacity:1;stroke:#000000;stroke-width:0.264583px;stroke-linecap:butt;stroke-linejoin:miter;stroke-miterlimit:4;stroke-dasharray:none;stroke-dashoffset:0;stroke-opacity:1;stop-color:#000000;stop-opacity:1"
       d="M 65.730765,197.61272 43.902198,241.34628"
       id="path49" />
    <path
       style="font-variation-settings:normal;opacity:1;vector-effect:none;fill:none;fill-opacity:1;stroke:#000000;stroke-width:0.264583px;stroke-linecap:butt;stroke-linejoin:miter;stroke-miterlimit:4;stroke-dasharray:none;stroke-dashoffset:0;stroke-opacity:1;stop-color:#000000;stop-opacity:1"
       d="m 68.161746,197.94042 -2.340359,42.94387"
       id="path51" />
    <path
       style="font-variation-settings:normal;opacity:1;vector-effect:none;fill:none;fill-opacity:1;stroke:#000000;stroke-width:0.264583px;stroke-linecap:butt;stroke-linejoin:miter;stroke-miterlimit:4;stroke-dasharray:none;stroke-dashoffset:0;stroke-opacity:1;stop-color:#000000;stop-opacity:1"
       d="m 69.520389,197.34753 19.126025,43.56705"
       id="path53" />
    <path
       style="font-variation-settings:normal;opacity:1;vector-effect:none;fill:none;fill-opacity:1;stroke:#000000;stroke-width:0.264583px;stroke-linecap:butt;stroke-linejoin:miter;stroke-miterlimit:4;stroke-dasharray:none;stroke-dashoffset:0;stroke-opacity:1;stop-color:#000000;stop-opacity:1"
       d="m 70.006593,195.3186 41.630737,45.67202"
       id="path55" />
    <path
       style="font-variation-settings:normal;opacity:1;vector-effect:none;fill:none;fill-opacity:1;stroke:#000000;stroke-width:0.264583px;stroke-linecap:butt;stroke-linejoin:miter;stroke-miterlimit:4;stroke-dasharray:none;stroke-dashoffset:0;stroke-opacity:1;stop-color:#000000;stop-opacity:1"
       d="M 64.565384,195.81165 19.768261,241.23828"
       id="path57" />
    <path
       style="font-variation-settings:normal;opacity:1;vector-effect:none;fill:none;fill-opacity:1;stroke:#000000;stroke-width:0.264583px;stroke-linecap:butt;stroke-linejoin:miter;stroke-miterlimit:4;stroke-dasharray:none;stroke-dashoffset:0;stroke-opacity:1;stop-color:#000000;stop-opacity:1"
       d="m 123.59053,187.32931 0.22191,82.96538"
       id="path59" />
    <path
       style="opacity:0.99;fill:#da717f;fill-opacity:0.47715;stroke:#000000;stroke-width:1.03422;stroke-linecap:round;stroke-linejoin:round;stroke-dasharray:8.27376, 1.03422;paint-order:stroke fill markers"
       id="path8-3-9"
       sodipodi:type="arc"
       sodipodi:cx="132.80707"
       sodipodi:cy="243.69206"
       sodipodi:rx="2.6100202"
       sodipodi:ry="2.5039616"
       sodipodi:start="0"
       sodipodi:end="6.2795201"
       sodipodi:open="true"
       sodipodi:arc-type="arc"
       d="m 135.41709,243.69206 a 2.6100202,2.5039616 0 0 1 -2.60763,2.50396 2.6100202,2.5039616 0 0 1 -2.61241,-2.49937 2.6100202,2.5039616 0 0 1 2.60284,-2.50854 2.6100202,2.5039616 0 0 1 2.61718,2.49477" />
    <path
       style="opacity:0.99;fill:#26437f;fill-opacity:0.47715;stroke:#000000;stroke-width:1.03422;stroke-linecap:round;stroke-linejoin:round;stroke-dasharray:8.27376, 1.03422;paint-order:stroke fill markers"
       id="path8-6-1"
       sodipodi:type="arc"
       sodipodi:cx="156.15562"
       sodipodi:cy="243.69206"
       sodipodi:rx="2.6100202"
       sodipodi:ry="2.5039616"
       sodipodi:start="0"
       sodipodi:end="6.2795201"
       sodipodi:open="true"
       sodipodi:arc-type="arc"
       d="m 158.76564,243.69206 a 2.6100202,2.5039616 0 0 1 -2.60762,2.50396 2.6100202,2.5039616 0 0 1 -2.61241,-2.49937 2.6100202,2.5039616 0 0 1 2.60284,-2.50854 2.6100202,2.5039616 0 0 1 2.61718,2.49477" />
    <path
       style="opacity:0.99;fill:#d898e1;fill-opacity:0.47715;stroke:#000000;stroke-width:1.03422;stroke-linecap:round;stroke-linejoin:round;stroke-dasharray:8.27376, 1.03422;paint-order:stroke fill markers"
       id="path8-7-2"
       sodipodi:type="arc"
       sodipodi:cx="179.50417"
       sodipodi:cy="243.69208"
       sodipodi:rx="2.6100202"
       sodipodi:ry="2.5039616"
       sodipodi:start="0"
       sodipodi:end="6.2795201"
       sodipodi:open="true"
       sodipodi:arc-type="arc"
       d="m 182.11419,243.69208 a 2.6100202,2.5039616 0 0 1 -2.60763,2.50396 2.6100202,2.5039616 0 0 1 -2.61241,-2.49937 2.6100202,2.5039616 0 0 1 2.60284,-2.50854 2.6100202,2.5039616 0 0 1 2.61718,2.49477" />
    <path
       style="opacity:0.99;fill:#0cf77f;fill-opacity:0.47715;stroke:#000000;stroke-width:1.03422;stroke-linecap:round;stroke-linejoin:round;stroke-dasharray:8.27376, 1.03422;paint-order:stroke fill markers"
       id="path8-5-7"
       sodipodi:type="arc"
       sodipodi:cx="202.85271"
       sodipodi:cy="243.69206"
       sodipodi:rx="2.6100202"
       sodipodi:ry="2.5039616"
       sodipodi:start="0"
       sodipodi:end="6.2795201"
       sodipodi:open="true"
       sodipodi:arc-type="arc"
       d="m 205.46273,243.69206 a 2.6100202,2.5039616 0 0 1 -2.60763,2.50396 2.6100202,2.5039616 0 0 1 -2.61241,-2.49937 2.6100202,2.5039616 0 0 1 2.60284,-2.50854 2.6100202,2.5039616 0 0 1 2.61718,2.49477" />
    <path
       style="opacity:0.99;fill:#302720;fill-opacity:0.47715;stroke:#000000;stroke-width:1.03422;stroke-linecap:round;stroke-linejoin:round;stroke-dasharray:8.27376, 1.03422;paint-order:stroke fill markers"
       id="path8-35-0"
       sodipodi:type="arc"
       sodipodi:cx="226.20126"
       sodipodi:cy="243.69206"
       sodipodi:rx="2.6100202"
       sodipodi:ry="2.5039616"
       sodipodi:start="0"
       sodipodi:end="6.2795201"
       sodipodi:open="true"
       sodipodi:arc-type="arc"
       d="m 228.81128,243.69206 a 2.6100202,2.5039616 0 0 1 -2.60763,2.50396 2.6100202,2.5039616 0 0 1 -2.6124,-2.49937 2.6100202,2.5039616 0 0 1 2.60284,-2.50854 2.6100202,2.5039616 0 0 1 2.61718,2.49477" />
  </g>
</svg>
