<?xml version="1.0" encoding="UTF-8" standalone="no"?>
<svg
   xmlns:dc="http://purl.org/dc/elements/1.1/"
   xmlns:cc="http://creativecommons.org/ns#"
   xmlns:rdf="http://www.w3.org/1999/02/22-rdf-syntax-ns#"
   xmlns:svg="http://www.w3.org/2000/svg"
   xmlns="http://www.w3.org/2000/svg"
   xmlns:sodipodi="http://sodipodi.sourceforge.net/DTD/sodipodi-0.dtd"
   xmlns:inkscape="http://www.inkscape.org/namespaces/inkscape"
   sodipodi:docname="caracarasellosello.svg"
   inkscape:version="1.0 (4035a4fb49, 2020-05-01)"
   id="svg8"
   version="1.1"
   viewBox="0 0 240 120"
   height="120mm"
   width="240mm">
  <defs
     id="defs2" />
  <sodipodi:namedview
     inkscape:document-rotation="0"
     inkscape:window-maximized="1"
     inkscape:window-y="18"
     inkscape:window-x="960"
     inkscape:window-height="1043"
     inkscape:window-width="958"
     inkscape:guide-bbox="true"
     showguides="false"
     width="200mm"
     showborder="true"
     showgrid="false"
     inkscape:current-layer="layer1"
     inkscape:document-units="mm"
     inkscape:cy="437.80456"
     inkscape:cx="465.14146"
     inkscape:zoom="0.70312851"
     inkscape:pageshadow="2"
     inkscape:pageopacity="0.0"
     borderopacity="1.0"
     bordercolor="#666666"
     pagecolor="#ffffff"
     id="base">
    <inkscape:grid
       dotted="false"
       empspacing="4"
       spacingy="10"
       spacingx="10"
       units="mm"
       id="grid815"
       type="xygrid" />
  </sodipodi:namedview>
  <metadata
     id="metadata5">
    <rdf:RDF>
      <cc:Work
         rdf:about="">
        <dc:format>image/svg+xml</dc:format>
        <dc:type
           rdf:resource="http://purl.org/dc/dcmitype/StillImage" />
        <dc:title></dc:title>
      </cc:Work>
    </rdf:RDF>
  </metadata>
  <g
     transform="translate(0,-177)"
     id="layer1"
     inkscape:groupmode="layer"
     inkscape:label="Layer 1">
    <path
       id="path1179"
       d="m 104.40917,248.99177 16.07552,-40.63628 11.863,40.99092"
       style="font-variation-settings:normal;opacity:1;vector-effect:none;fill:none;fill-opacity:1;stroke:#000000;stroke-width:0.264583px;stroke-linecap:butt;stroke-linejoin:miter;stroke-miterlimit:4;stroke-dasharray:none;stroke-dashoffset:0;stroke-opacity:1;stop-color:#000000;stop-opacity:1" />
    <path
       d="m 123.03326,209.07597 a 3.0332575,3.5650282 0 0 1 -3.03048,3.56502 3.0332575,3.5650282 0 0 1 -3.03603,-3.55849 3.0332575,3.5650282 0 0 1 3.02491,-3.57155 3.0332575,3.5650282 0 0 1 3.04158,3.55195"
       style="opacity:0.99;fill:#e28177;fill-opacity:1;stroke:#000000;stroke-width:1.565;stroke-linecap:round;stroke-linejoin:round;stroke-opacity:1;paint-order:stroke fill markers"
       id="path10-3" />
    <path
       id="path1177"
       d="M 48.043234,248.77753 120.48469,208.35549 76.116131,249.0683"
       style="font-variation-settings:normal;opacity:1;vector-effect:none;fill:none;fill-opacity:1;stroke:#000000;stroke-width:0.264583px;stroke-linecap:butt;stroke-linejoin:miter;stroke-miterlimit:4;stroke-dasharray:none;stroke-dashoffset:0;stroke-opacity:1;stop-color:#000000;stop-opacity:1" />
    <path
       id="path1181"
       d="m 160.06077,249.0324 -39.57608,-40.67691 67.61774,40.72206"
       style="font-variation-settings:normal;opacity:1;vector-effect:none;fill:none;fill-opacity:1;stroke:#000000;stroke-width:0.264583px;stroke-linecap:butt;stroke-linejoin:miter;stroke-miterlimit:4;stroke-dasharray:none;stroke-dashoffset:0;stroke-opacity:1;stop-color:#000000;stop-opacity:1" />
    <path
       d="m 123.03326,209.07597 a 3.0332575,3.5650282 0 0 1 -3.03048,3.56502 3.0332575,3.5650282 0 0 1 -3.03603,-3.55849 3.0332575,3.5650282 0 0 1 3.02491,-3.57155 3.0332575,3.5650282 0 0 1 3.04158,3.55195"
       style="opacity:0.99;fill:#ffe0b8;fill-opacity:1;stroke:#000000;stroke-width:1.565;stroke-linecap:round;stroke-linejoin:round;stroke-opacity:1;paint-order:stroke fill markers"
       id="path10-6" />
    <path
       id="path1183"
       d="M 48.043234,248.77753 62.40477,285.96955 76.116129,249.0683"
       style="font-variation-settings:normal;opacity:1;vector-effect:none;fill:none;fill-opacity:1;stroke:#000000;stroke-width:0.264583px;stroke-linecap:butt;stroke-linejoin:miter;stroke-miterlimit:4;stroke-dasharray:none;stroke-dashoffset:0;stroke-opacity:1;stop-color:#000000;stop-opacity:1" />
    <path
       id="path1185"
       d="m 104.40917,248.99177 15.55494,37.13221 12.38358,-36.77757"
       style="font-variation-settings:normal;opacity:1;vector-effect:none;fill:none;fill-opacity:1;stroke:#000000;stroke-width:0.264583px;stroke-linecap:butt;stroke-linejoin:miter;stroke-miterlimit:4;stroke-dasharray:none;stroke-dashoffset:0;stroke-opacity:1;stop-color:#000000;stop-opacity:1" />
    <path
       id="path1187"
       d="m 160.06077,249.0324 12.98746,36.30654 15.0542,-36.26139"
       style="font-variation-settings:normal;opacity:1;vector-effect:none;fill:none;fill-opacity:1;stroke:#000000;stroke-width:0.264583px;stroke-linecap:butt;stroke-linejoin:miter;stroke-miterlimit:4;stroke-dasharray:none;stroke-dashoffset:0;stroke-opacity:1;stop-color:#000000;stop-opacity:1" />
    <g
       transform="translate(0,21.166667)"
       id="g1152">
      <g
         id="g1140">
        <path
           d="m 65.867265,264.42532 a 3.0332575,3.5650282 0 0 1 -3.030478,3.56503 3.0332575,3.5650282 0 0 1 -3.036032,-3.55849 3.0332575,3.5650282 0 0 1 3.024914,-3.57155 3.0332575,3.5650282 0 0 1 3.041575,3.55195"
           style="opacity:0.99;fill:#bee0b9;fill-opacity:0.984314;stroke:#000000;stroke-width:1.565;stroke-linecap:round;stroke-linejoin:round;stroke-opacity:1;paint-order:stroke fill markers"
           id="path10" />
        <path
           d="m 51.343591,227.86436 a 3.0332575,3.5650282 0 0 1 -3.030478,3.56503 3.0332575,3.5650282 0 0 1 -3.036032,-3.55849 3.0332575,3.5650282 0 0 1 3.024914,-3.57155 3.0332575,3.5650282 0 0 1 3.041575,3.55195"
           style="opacity:0.99;fill:#bddfb8;fill-opacity:1;stroke:#000000;stroke-width:1.565;stroke-linecap:round;stroke-linejoin:round;stroke-opacity:1;paint-order:stroke fill markers"
           id="path10-35" />
        <path
           d="m 79.235711,227.86436 a 3.0332575,3.5650282 0 0 1 -3.030478,3.56503 3.0332575,3.5650282 0 0 1 -3.036032,-3.55849 3.0332575,3.5650282 0 0 1 3.024914,-3.57155 3.0332575,3.5650282 0 0 1 3.041576,3.55195"
           style="opacity:0.99;fill:#bddfb8;fill-opacity:0.992157;stroke:#000000;stroke-width:1.565;stroke-linecap:round;stroke-linejoin:round;stroke-opacity:1;paint-order:stroke fill markers"
           id="path10-62" />
        <g
           style="font-size:6.98452px;line-height:1.25;font-family:sans-serif;letter-spacing:0px;stroke-width:0.523839"
           id="text935"
           transform="scale(0.90109362,1.1097626)"
           aria-label="C">
          <path
             id="path1229"
             style="stroke-width:0.523839"
             d="m 54.093028,203.14242 q -0.364914,0 -0.66162,0.13982 -0.296705,0.13642 -0.508151,0.39561 -0.208035,0.25919 -0.323989,0.63093 -0.112543,0.37173 -0.112543,0.83896 0,0.48087 0.0989,0.85601 0.102312,0.37173 0.303526,0.62752 0.201214,0.25578 0.50133,0.38878 0.300117,0.13301 0.702545,0.13301 0.303526,0 0.576359,-0.058 0.272833,-0.0614 0.538845,-0.13983 v 0.55249 q -0.133006,0.0512 -0.266012,0.0921 -0.133006,0.0375 -0.279654,0.0614 -0.143237,0.0239 -0.310347,0.0341 -0.1637,0.0136 -0.364914,0.0136 -0.559307,0 -0.968556,-0.18417 -0.409249,-0.18416 -0.678672,-0.52179 -0.266012,-0.33763 -0.395607,-0.81168 -0.129596,-0.47404 -0.129596,-1.0504 0,-0.56613 0.146648,-1.03677 0.150058,-0.47063 0.436532,-0.80827 0.289885,-0.33763 0.716186,-0.5252 0.426301,-0.18757 0.978788,-0.18757 0.368324,0 0.702544,0.075 0.334221,0.075 0.603643,0.21826 l -0.266012,0.53203 q -0.214856,-0.10914 -0.467226,-0.18757 -0.252371,-0.0784 -0.572949,-0.0784 z" />
        </g>
        <g
           style="font-size:6.98452px;line-height:1.25;font-family:sans-serif;letter-spacing:0px;stroke-width:0.523838"
           id="text935-6"
           transform="scale(0.90109362,1.1097626)"
           aria-label="C">
          <path
             id="path1232"
             style="stroke-width:0.523838"
             d="m 84.642497,202.94015 q -0.364914,0 -0.66162,0.13982 -0.296705,0.13642 -0.508151,0.39561 -0.208035,0.25919 -0.323989,0.63093 -0.112543,0.37173 -0.112543,0.83896 0,0.48086 0.0989,0.85601 0.102312,0.37173 0.303526,0.62752 0.201214,0.25578 0.50133,0.38878 0.300117,0.13301 0.702545,0.13301 0.303526,0 0.576359,-0.058 0.272833,-0.0614 0.538845,-0.13983 v 0.55249 q -0.133006,0.0512 -0.266012,0.0921 -0.133006,0.0375 -0.279654,0.0614 -0.143237,0.0239 -0.310347,0.0341 -0.1637,0.0136 -0.364914,0.0136 -0.559307,0 -0.968556,-0.18416 -0.409249,-0.18416 -0.678672,-0.52179 -0.266012,-0.33763 -0.395607,-0.81168 -0.129596,-0.47404 -0.129596,-1.0504 0,-0.56613 0.146648,-1.03677 0.150058,-0.47064 0.436532,-0.80827 0.289885,-0.33763 0.716186,-0.5252 0.426301,-0.18757 0.978788,-0.18757 0.368324,0 0.702544,0.075 0.334221,0.075 0.603643,0.21826 l -0.266012,0.53203 q -0.214856,-0.10914 -0.467226,-0.18757 -0.252371,-0.0784 -0.572949,-0.0784 z" />
        </g>
        <g
           style="font-size:6.98452px;line-height:1.25;font-family:sans-serif;letter-spacing:0px;stroke-width:0.523838"
           id="text935-6-5"
           transform="scale(0.90109363,1.1097626)"
           aria-label="1">
          <path
             id="path1235"
             style="stroke-width:0.523838"
             d="m 70.596371,240.81473 h -0.600232 v -3.11371 q 0,-0.14664 0,-0.31375 0.0034,-0.16711 0.0068,-0.33081 0.0068,-0.16711 0.01023,-0.31717 0.0068,-0.15347 0.01023,-0.26942 -0.05798,0.0614 -0.102313,0.10572 -0.04434,0.0443 -0.09208,0.0853 -0.04434,0.0409 -0.09549,0.0887 -0.05116,0.0443 -0.122775,0.10572 l -0.504741,0.41266 -0.327399,-0.41948 1.306187,-1.01971 h 0.511561 z" />
        </g>
      </g>
    </g>
    <g
       transform="translate(0,21.166667)"
       id="g1173">
      <path
         d="m 176.46377,264.42532 a 3.0332575,3.5650282 0 0 1 -3.03048,3.56503 3.0332575,3.5650282 0 0 1 -3.03603,-3.55849 3.0332575,3.5650282 0 0 1 3.02491,-3.57155 3.0332575,3.5650282 0 0 1 3.04158,3.55195"
         style="opacity:0.99;fill:#7cdf7f;fill-opacity:0.976471;stroke:#000000;stroke-width:1.565;stroke-linecap:round;stroke-linejoin:round;stroke-opacity:1;paint-order:stroke fill markers"
         id="path10-5" />
      <path
         d="m 162.91206,227.86436 a 3.0332575,3.5650282 0 0 1 -3.03048,3.56503 3.0332575,3.5650282 0 0 1 -3.03603,-3.55849 3.0332575,3.5650282 0 0 1 3.02491,-3.57155 3.0332575,3.5650282 0 0 1 3.04158,3.55195"
         style="opacity:0.99;fill:#7cdf7f;fill-opacity:0.976471;stroke:#000000;stroke-width:1.565;stroke-linecap:round;stroke-linejoin:round;stroke-opacity:1;paint-order:stroke fill markers"
         id="path10-2" />
      <path
         d="m 190.80416,227.86436 a 3.0332575,3.5650282 0 0 1 -3.03048,3.56503 3.0332575,3.5650282 0 0 1 -3.03603,-3.55849 3.0332575,3.5650282 0 0 1 3.02492,-3.57155 3.0332575,3.5650282 0 0 1 3.04157,3.55195"
         style="opacity:0.99;fill:#7cdf7f;fill-opacity:0.976471;stroke:#000000;stroke-width:1.565;stroke-linecap:round;stroke-linejoin:round;stroke-opacity:1;paint-order:stroke fill markers"
         id="path10-70" />
      <g
         style="font-size:6.98452px;line-height:1.25;font-family:sans-serif;letter-spacing:0px;stroke-width:0.523838"
         id="text935-3-0"
         transform="scale(0.90109363,1.1097626)"
         aria-label="S">
        <path
           id="path1241"
           style="stroke-width:0.523838"
           d="m 179.23386,206.34207 q 0,0.33081 -0.11937,0.59341 -0.11595,0.25919 -0.33422,0.43994 -0.21826,0.18075 -0.53202,0.27624 -0.31376,0.0921 -0.70596,0.0921 -0.37855,0 -0.70936,-0.0614 -0.3274,-0.058 -0.54908,-0.17393 v -0.60706 q 0.11596,0.0546 0.2626,0.10914 0.15006,0.0511 0.31376,0.0921 0.1637,0.0409 0.33763,0.0682 0.17393,0.0239 0.34445,0.0239 0.54567,0 0.80486,-0.20463 0.2626,-0.20462 0.2626,-0.58659 0,-0.18416 -0.0512,-0.32057 -0.0477,-0.13642 -0.17393,-0.24896 -0.12277,-0.11596 -0.33081,-0.22168 -0.20803,-0.10913 -0.5252,-0.23532 -0.30353,-0.11936 -0.52861,-0.25919 -0.22168,-0.14324 -0.36833,-0.32058 -0.14323,-0.17734 -0.21485,-0.40243 -0.0682,-0.22508 -0.0682,-0.51156 0,-0.30012 0.10913,-0.53543 0.10914,-0.23532 0.30694,-0.39561 0.1978,-0.1637 0.47064,-0.24896 0.27624,-0.0853 0.60705,-0.0853 0.40584,0 0.72983,0.0784 0.32399,0.075 0.57636,0.19439 l -0.2285,0.53203 q -0.22168,-0.0989 -0.50474,-0.17052 -0.27966,-0.075 -0.57977,-0.075 -0.41607,0 -0.64457,0.19439 -0.2285,0.19098 -0.2285,0.51838 0,0.1944 0.0512,0.33763 0.0512,0.13983 0.17052,0.25578 0.11936,0.11255 0.31376,0.21486 0.1978,0.0989 0.48428,0.21144 0.31034,0.12278 0.54225,0.25237 0.23532,0.1296 0.3922,0.2933 0.15688,0.1637 0.23532,0.37856 0.0819,0.21485 0.0819,0.50815 z" />
      </g>
      <g
         style="font-size:6.98452px;line-height:1.25;font-family:sans-serif;letter-spacing:0px;stroke-width:0.523838"
         id="text935-0"
         transform="scale(0.90109363,1.1097626)"
         aria-label="C">
        <path
           id="path1244"
           style="stroke-width:0.523838"
           d="m 208.69583,203.3977 q -0.36491,0 -0.66162,0.13982 -0.2967,0.13642 -0.50815,0.39561 -0.20803,0.25919 -0.32399,0.63093 -0.11254,0.37173 -0.11254,0.83896 0,0.48086 0.0989,0.85601 0.10232,0.37173 0.30353,0.62752 0.20121,0.25578 0.50133,0.38878 0.30012,0.13301 0.70254,0.13301 0.30353,0 0.57636,-0.058 0.27284,-0.0614 0.53885,-0.13983 v 0.55249 q -0.13301,0.0512 -0.26601,0.0921 -0.13301,0.0375 -0.27966,0.0614 -0.14323,0.0239 -0.31034,0.0341 -0.1637,0.0136 -0.36492,0.0136 -0.55931,0 -0.96856,-0.18416 -0.40924,-0.18416 -0.67867,-0.52179 -0.26601,-0.33763 -0.3956,-0.81168 -0.1296,-0.47404 -0.1296,-1.0504 0,-0.56613 0.14665,-1.03677 0.15006,-0.47064 0.43653,-0.80827 0.28989,-0.33763 0.71619,-0.5252 0.4263,-0.18757 0.97878,-0.18757 0.36833,0 0.70255,0.075 0.33422,0.075 0.60364,0.21826 l -0.26601,0.53203 q -0.21486,-0.10914 -0.46723,-0.18757 -0.25237,-0.0784 -0.57295,-0.0784 z" />
      </g>
      <g
         style="font-size:6.98452px;line-height:1.25;font-family:sans-serif;letter-spacing:0px;stroke-width:0.523838"
         id="text935-6-5-5"
         transform="scale(0.90109363,1.1097626)"
         aria-label="3">
        <path
           id="path1247"
           style="stroke-width:0.523838"
           d="m 193.94861,236.99138 q 0,0.24896 -0.0784,0.45358 -0.0784,0.20462 -0.22168,0.35468 -0.13983,0.15006 -0.33763,0.24896 -0.1978,0.0955 -0.43994,0.13642 v 0.0205 q 0.60364,0.075 0.9174,0.38538 0.31376,0.30694 0.31376,0.80144 0,0.3274 -0.11255,0.60024 -0.10913,0.27283 -0.33422,0.47063 -0.22508,0.19781 -0.56954,0.30694 -0.34445,0.10913 -0.81508,0.10913 -0.37174,0 -0.70255,-0.058 -0.3274,-0.058 -0.61728,-0.21145 v -0.57977 q 0.2967,0.15688 0.64115,0.24214 0.34787,0.0853 0.66503,0.0853 0.31376,0 0.54226,-0.0682 0.2285,-0.0682 0.37514,-0.19439 0.15006,-0.12619 0.21827,-0.31035 0.0716,-0.18416 0.0716,-0.41266 0,-0.23191 -0.0921,-0.39561 -0.0887,-0.16711 -0.25578,-0.27283 -0.16711,-0.10913 -0.40925,-0.16029 -0.23873,-0.0512 -0.54226,-0.0512 h -0.45358 v -0.51498 h 0.45358 q 0.27625,0 0.4911,-0.0682 0.21486,-0.0682 0.3581,-0.1944 0.14664,-0.12618 0.22167,-0.30011 0.075,-0.17393 0.075,-0.38197 0,-0.17734 -0.0614,-0.31717 -0.0614,-0.13982 -0.17393,-0.23532 -0.11254,-0.0989 -0.26942,-0.15005 -0.15688,-0.0512 -0.34786,-0.0512 -0.36492,0 -0.64457,0.11595 -0.27624,0.11255 -0.52861,0.29671 l -0.31376,-0.4263 q 0.1296,-0.10572 0.28647,-0.19781 0.16029,-0.0921 0.34787,-0.16028 0.18757,-0.0716 0.39901,-0.11255 0.21486,-0.0409 0.45359,-0.0409 0.36832,0 0.64457,0.0921 0.27965,0.0921 0.46722,0.25919 0.18757,0.1637 0.28307,0.3922 0.0955,0.22508 0.0955,0.49451 z" />
      </g>
    </g>
    <g
       transform="translate(0,21.166667)"
       id="g1218">
      <g
         id="g1206">
        <path
           d="m 107.12782,227.86436 a 3.0332575,3.5650282 0 0 1 -3.03047,3.56503 3.0332575,3.5650282 0 0 1 -3.03604,-3.55849 3.0332575,3.5650282 0 0 1 3.02492,-3.57155 3.0332575,3.5650282 0 0 1 3.04157,3.55195"
           style="opacity:0.99;fill:#7cdfb9;fill-opacity:0.984314;stroke:#000000;stroke-width:1.565;stroke-linecap:round;stroke-linejoin:round;stroke-opacity:1;paint-order:stroke fill markers"
           id="path10-9" />
        <path
           d="m 122.75301,264.42532 a 3.0332575,3.5650282 0 0 1 -3.03047,3.56503 3.0332575,3.5650282 0 0 1 -3.03604,-3.55849 3.0332575,3.5650282 0 0 1 3.02492,-3.57155 3.0332575,3.5650282 0 0 1 3.04157,3.55195"
           style="opacity:0.99;fill:#7cdfb9;fill-opacity:0.984314;stroke:#000000;stroke-width:1.565;stroke-linecap:round;stroke-linejoin:round;stroke-opacity:1;paint-order:stroke fill markers"
           id="path10-7" />
        <path
           d="m 135.01994,227.86436 a 3.0332575,3.5650282 0 0 1 -3.03048,3.56503 3.0332575,3.5650282 0 0 1 -3.03603,-3.55849 3.0332575,3.5650282 0 0 1 3.02491,-3.57155 3.0332575,3.5650282 0 0 1 3.04158,3.55195"
           style="opacity:0.99;fill:#7cdfb9;fill-opacity:0.984314;stroke:#000000;stroke-width:1.565;stroke-linecap:round;stroke-linejoin:round;stroke-opacity:1;paint-order:stroke fill markers"
           id="path10-1" />
        <g
           style="font-size:6.98452px;line-height:1.25;font-family:sans-serif;letter-spacing:0px;stroke-width:0.523838"
           id="text935-3"
           transform="scale(0.90109362,1.1097626)"
           aria-label="S">
          <path
             id="path1253"
             style="stroke-width:0.523838"
             d="m 147.84004,206.34477 q 0,0.33081 -0.11936,0.59341 -0.11596,0.25919 -0.33422,0.43994 -0.21827,0.18075 -0.53203,0.27625 -0.31375,0.0921 -0.70595,0.0921 -0.37856,0 -0.70937,-0.0614 -0.3274,-0.058 -0.54907,-0.17393 v -0.60706 q 0.11595,0.0546 0.2626,0.10914 0.15006,0.0512 0.31376,0.0921 0.1637,0.0409 0.33763,0.0682 0.17393,0.0239 0.34445,0.0239 0.54566,0 0.80486,-0.20462 0.2626,-0.20463 0.2626,-0.5866 0,-0.18416 -0.0512,-0.32057 -0.0477,-0.13642 -0.17393,-0.24896 -0.12277,-0.11596 -0.33081,-0.22168 -0.20803,-0.10913 -0.5252,-0.23532 -0.30353,-0.11936 -0.52862,-0.25919 -0.22167,-0.14324 -0.36832,-0.32058 -0.14324,-0.17734 -0.21486,-0.40243 -0.0682,-0.22508 -0.0682,-0.51156 0,-0.30011 0.10913,-0.53543 0.10913,-0.23532 0.30694,-0.39561 0.1978,-0.1637 0.47063,-0.24896 0.27624,-0.0853 0.60705,-0.0853 0.40584,0 0.72983,0.0784 0.32399,0.075 0.57636,0.19439 l -0.2285,0.53203 q -0.22167,-0.0989 -0.50474,-0.17052 -0.27965,-0.075 -0.57977,-0.075 -0.41607,0 -0.64456,0.19439 -0.2285,0.19098 -0.2285,0.51838 0,0.1944 0.0512,0.33763 0.0512,0.13983 0.17052,0.25578 0.11936,0.11255 0.31375,0.21486 0.19781,0.0989 0.48428,0.21145 0.31035,0.12277 0.54226,0.25237 0.23532,0.12959 0.39219,0.29329 0.15688,0.1637 0.23532,0.37856 0.0818,0.21485 0.0818,0.50815 z" />
        </g>
        <g
           style="font-size:6.98452px;line-height:1.25;font-family:sans-serif;letter-spacing:0px;stroke-width:0.523838"
           id="text935-3-1"
           transform="scale(0.90109363,1.1097626)"
           aria-label="S">
          <path
             id="path1256"
             style="stroke-width:0.523838"
             d="m 116.93182,206.39292 q 0,0.33081 -0.11936,0.59342 -0.11595,0.25919 -0.33422,0.43994 -0.21827,0.18075 -0.53202,0.27624 -0.31376,0.0921 -0.70596,0.0921 -0.37856,0 -0.70937,-0.0614 -0.32739,-0.058 -0.54907,-0.17394 v -0.60705 q 0.11595,0.0546 0.2626,0.10913 0.15006,0.0512 0.31376,0.0921 0.1637,0.0409 0.33763,0.0682 0.17393,0.0239 0.34445,0.0239 0.54567,0 0.80486,-0.20463 0.2626,-0.20462 0.2626,-0.58659 0,-0.18416 -0.0512,-0.32058 -0.0477,-0.13641 -0.17393,-0.24896 -0.12277,-0.11595 -0.33081,-0.22167 -0.20803,-0.10914 -0.5252,-0.23532 -0.30353,-0.11937 -0.52861,-0.25919 -0.22168,-0.14324 -0.36833,-0.32058 -0.14324,-0.17734 -0.21486,-0.40243 -0.0682,-0.22509 -0.0682,-0.51156 0,-0.30012 0.10913,-0.53544 0.10913,-0.23531 0.30694,-0.3956 0.1978,-0.1637 0.47063,-0.24896 0.27625,-0.0853 0.60706,-0.0853 0.40584,0 0.72982,0.0784 0.32399,0.075 0.57636,0.19439 l -0.22849,0.53202 q -0.22168,-0.0989 -0.50474,-0.17052 -0.27966,-0.075 -0.57977,-0.075 -0.41607,0 -0.64457,0.1944 -0.2285,0.19098 -0.2285,0.51838 0,0.19439 0.0512,0.33763 0.0511,0.13983 0.17052,0.25578 0.11936,0.11254 0.31375,0.21486 0.19781,0.0989 0.48428,0.21144 0.31035,0.12278 0.54226,0.25237 0.23532,0.1296 0.3922,0.2933 0.15687,0.1637 0.23531,0.37855 0.0819,0.21486 0.0819,0.50815 z" />
        </g>
        <g
           style="font-size:6.98452px;line-height:1.25;font-family:sans-serif;letter-spacing:0px;stroke-width:0.523838"
           id="text935-6-5-7"
           transform="scale(0.90109363,1.1097626)"
           aria-label="2">
          <path
             id="path1259"
             style="stroke-width:0.523838"
             d="m 134.43717,240.85054 h -3.11029 v -0.53202 l 1.19364,-1.29937 q 0.25578,-0.27624 0.457,-0.50474 0.20121,-0.2285 0.34104,-0.44676 0.14324,-0.21827 0.21827,-0.43654 0.075,-0.22167 0.075,-0.48086 0,-0.20122 -0.058,-0.35469 -0.058,-0.15347 -0.16711,-0.25919 -0.10572,-0.10913 -0.25237,-0.1637 -0.14665,-0.0546 -0.3274,-0.0546 -0.32399,0 -0.58659,0.133 -0.25919,0.1296 -0.49451,0.33422 l -0.34786,-0.40584 q 0.13641,-0.12277 0.29329,-0.2285 0.15688,-0.10913 0.33763,-0.18757 0.18075,-0.0784 0.38197,-0.12277 0.20121,-0.0478 0.42289,-0.0478 0.3274,0 0.59,0.0921 0.26601,0.0921 0.45017,0.26601 0.18417,0.17053 0.28307,0.41949 0.10231,0.24554 0.10231,0.55589 0,0.28989 -0.0921,0.55249 -0.0887,0.2626 -0.24896,0.51838 -0.15688,0.25237 -0.37856,0.50815 -0.21826,0.25578 -0.47404,0.53203 l -0.95833,1.01971 v 0.0273 h 2.34977 z" />
        </g>
      </g>
    </g>
    <path
       d="m 33.524329,185.28776 q 0,1.07704 -0.362498,1.96227 -0.362496,0.88524 -1.024447,1.53441 -0.646191,0.64917 -1.560315,1.07703 -0.914123,0.41312 -2.033136,0.59015 v 0.0885 q 2.789653,0.32459 4.239641,1.6672 1.449989,1.32785 1.449989,3.46717 0,1.41638 -0.520105,2.59669 -0.504344,1.18031 -1.544553,2.03603 -1.04021,0.85574 -2.632045,1.32785 -1.591835,0.47213 -3.766818,0.47213 -1.717921,0 -3.246713,-0.25081 -1.513032,-0.25082 -2.852696,-0.91475 v -2.50816 q 1.371185,0.67868 2.963021,1.04753 1.607596,0.36884 3.073345,0.36884 1.449988,0 2.505959,-0.29508 1.055969,-0.29508 1.733681,-0.84097 0.693474,-0.5459 1.008688,-1.3426 0.330976,-0.79672 0.330976,-1.78523 0,-1.00327 -0.42554,-1.71145 -0.40978,-0.72294 -1.182056,-1.18031 -0.772276,-0.47213 -1.89129,-0.69344 -1.103251,-0.22131 -2.505958,-0.22131 H 23.18528 v -2.22784 h 2.096179 q 1.276621,0 2.269547,-0.29508 0.992927,-0.29508 1.654878,-0.84097 0.677712,-0.54589 1.024449,-1.29834 0.346736,-0.75245 0.346736,-1.65245 0,-0.76719 -0.283693,-1.3721 -0.283693,-0.60492 -0.803798,-1.01803 -0.520105,-0.42786 -1.245099,-0.64917 -0.724994,-0.22131 -1.607595,-0.22131 -1.686401,0 -2.978782,0.50164 -1.27662,0.48688 -2.442915,1.28358 l -1.449989,-1.84424 q 0.598908,-0.45737 1.323902,-0.85572 0.740756,-0.39836 1.607597,-0.69343 0.866841,-0.30984 1.844007,-0.48689 0.992927,-0.17704 2.09618,-0.17704 1.70216,0 2.97878,0.39835 1.292381,0.39836 2.159222,1.1213 0.866841,0.70818 1.308142,1.6967 0.441301,0.97376 0.441301,2.13932 z"
       style="font-size:31.23px;line-height:1.25;font-family:sans-serif;letter-spacing:0px;stroke-width:2.34225"
       id="path1266" />
    <path
       d="m 64.003937,201.80473 -6.98201,-18.88501 h -0.126086 q 0.09456,1.09179 0.157608,2.16883 0.06305,0.9295 0.09456,1.96227 0.04729,1.01802 0.04729,1.859 v 12.89491 h -2.710848 v -21.57022 h 4.349966 l 6.493432,17.58667 h 0.0946 l 6.52494,-17.58667 h 4.349957 v 21.57022 h -2.931487 v -13.08672 q 0,-0.7672 0.0315,-1.75571 0.0315,-0.98852 0.0789,-1.88851 0.063,-1.04752 0.11032,-2.12456 h -0.12609 l -7.04505,18.8555 z"
       style="font-size:31.23px;line-height:1.25;font-family:sans-serif;letter-spacing:0px;stroke-width:2.34225"
       id="path1270" />
    <path
       d="m 99.770062,191.01226 q 0,2.4934 -0.64619,4.5442 -0.63043,2.05079 -1.89129,3.51144 -1.26086,1.46063 -3.13639,2.25734 -1.85977,0.7967 -4.302679,0.7967 -2.569007,0 -4.460287,-0.7967 -1.87553,-0.79671 -3.120627,-2.25734 -1.22934,-1.46065 -1.82824,-3.51144 -0.59891,-2.06555 -0.59891,-4.57371 0,-2.50817 0.59891,-4.54421 0.5989,-2.05079 1.844,-3.49668 1.245097,-1.44588 3.136387,-2.22784 1.89129,-0.79671 4.460287,-0.79671 2.442909,0 4.286929,0.79671 1.85976,0.78196 3.12062,2.24259 1.26086,1.44589 1.89129,3.49668 0.64619,2.03605 0.64619,4.55897 z m -16.879753,0 q 0,2.02128 0.40978,3.64421 0.409777,1.60818 1.245097,2.74423 0.85108,1.12129 2.14346,1.72621 1.30815,0.59015 3.104867,0.59015 1.79672,0 3.089099,-0.59015 1.30814,-0.60491 2.14346,-1.72621 0.85109,-1.13606 1.2451,-2.74423 0.39402,-1.62293 0.39402,-3.64421 0,-2.03605 -0.39402,-3.64422 -0.39401,-1.60818 -1.22933,-2.71472 -0.83532,-1.12131 -2.12771,-1.71146 -1.292379,-0.60491 -3.089099,-0.60491 -1.796727,0 -3.104857,0.60491 -1.30815,0.59015 -2.15923,1.71146 -0.85108,1.10654 -1.260857,2.71472 -0.40978,1.60817 -0.40978,3.64422 z"
       style="font-size:31.23px;line-height:1.25;font-family:sans-serif;letter-spacing:0px;stroke-width:2.34225"
       id="path1272" />
    <path
       d="M 122.79356,201.80474 H 119.405 L 108.07302,183.9525 h -0.12608 q 0.0946,1.13606 0.15761,2.25736 0.063,0.959 0.0946,2.00653 0.0472,1.04752 0.0472,1.8885 v 11.69985 h -2.71085 v -21.57022 h 3.35704 l 11.28469,17.76371 h 0.11033 q -0.0472,-1.12129 -0.11033,-2.21308 -0.0157,-0.47213 -0.0472,-0.95901 -0.0157,-0.50163 -0.0472,-0.98851 -0.0157,-0.50164 -0.0315,-0.95901 0,-0.45737 0,-0.84097 v -11.80313 h 2.74237 z"
       style="font-size:31.23px;line-height:1.25;font-family:sans-serif;letter-spacing:0px;stroke-width:2.34225"
       id="path1274" />
    <path
       d="m 144.53266,201.80474 h -11.9624 v -21.57022 h 11.9624 v 2.41963 h -9.0309 v 6.66877 h 8.432 v 2.39013 h -8.432 v 7.67204 h 9.0309 z"
       style="font-size:31.23px;line-height:1.25;font-family:sans-serif;letter-spacing:0px;stroke-width:2.34225"
       id="path1276" />
    <path
       d="m 171.42549,190.81308 q 0,2.72947 -0.75652,4.79502 -0.75651,2.0508 -2.19074,3.43767 -1.43423,1.37209 -3.53041,2.06554 -2.08041,0.69343 -4.72822,0.69343 h -5.76843 v -21.57022 h 6.41462 q 2.41139,0 4.36573,0.67868 1.95433,0.67868 3.32551,2.02128 1.37119,1.32785 2.11194,3.30488 0.75652,1.97703 0.75652,4.57372 z m -3.10487,0.0885 q 0,-2.15407 -0.5201,-3.71799 -0.52011,-1.57866 -1.51304,-2.59669 -0.99292,-1.01802 -2.44291,-1.5049 -1.44998,-0.50162 -3.294,-0.50162 h -3.1679 v 16.86372 h 2.55324 q 4.16083,0 6.27277,-2.15408 2.11194,-2.15407 2.11194,-6.38844 z"
       style="font-size:31.23px;line-height:1.25;font-family:sans-serif;letter-spacing:0px;stroke-width:2.34225"
       id="path1278" />
    <path
       d="M 194.14172,201.84899 191.62,195.16548 h -8.5896 l -2.55324,6.68351 h -2.96303 l 8.46353,-21.65874 h 2.67932 l 8.47929,21.65874 z m -3.45161,-9.11791 -2.33258,-6.25567 q -0.0946,-0.26556 -0.23642,-0.64917 -0.12608,-0.3836 -0.26793,-0.82622 -0.14184,-0.44261 -0.28369,-0.91474 -0.14184,-0.48688 -0.26794,-0.94425 -0.11032,0.45737 -0.25216,0.94425 -0.14185,0.48688 -0.2837,0.94425 -0.14184,0.44263 -0.28369,0.82623 -0.12609,0.36885 -0.22065,0.61966 l -2.28531,6.25567 z"
       style="font-size:31.23px;line-height:1.25;font-family:sans-serif;letter-spacing:0px;stroke-width:2.34225"
       id="path1280" />
    <path
       d="m 218.52857,196.04333 q 0,1.43113 -0.55163,2.56718 -0.53587,1.1213 -1.54455,1.90326 -1.00869,0.78196 -2.45868,1.19507 -1.44999,0.39835 -3.26248,0.39835 -1.74944,0 -3.27824,-0.26557 -1.51302,-0.25081 -2.53747,-0.75245 v -2.6262 q 0.53586,0.23607 1.21358,0.47213 0.69346,0.22131 1.44999,0.39836 0.75651,0.17704 1.56031,0.29508 0.8038,0.10327 1.59183,0.10327 2.52172,0 3.71954,-0.88523 1.21357,-0.88524 1.21357,-2.53767 0,-0.79672 -0.23641,-1.38687 -0.22065,-0.59016 -0.80379,-1.07704 -0.5674,-0.50164 -1.5288,-0.95901 -0.96141,-0.47213 -2.42716,-1.01802 -1.4027,-0.51638 -2.4429,-1.12129 -1.02445,-0.61966 -1.70217,-1.38687 -0.66195,-0.7672 -0.99293,-1.74097 -0.31521,-0.97375 -0.31521,-2.21308 0,-1.29835 0.50434,-2.31637 0.50435,-1.01801 1.41847,-1.71145 0.91413,-0.70819 2.17499,-1.07703 1.27662,-0.36885 2.8054,-0.36885 1.87554,0 3.37281,0.33934 1.49727,0.32459 2.66356,0.84097 l -1.05596,2.30161 q -1.02445,-0.42786 -2.3326,-0.73769 -1.29238,-0.32459 -2.67932,-0.32459 -1.92281,0 -2.97879,0.84098 -1.05596,0.82621 -1.05596,2.24259 0,0.84097 0.2364,1.46063 0.23642,0.60492 0.78804,1.10655 0.55163,0.48687 1.44999,0.9295 0.91413,0.42786 2.23802,0.91473 1.43424,0.53115 2.50597,1.0918 1.08749,0.56065 1.81249,1.26884 0.72498,0.70818 1.08748,1.63768 0.37827,0.9295 0.37827,2.19833 z"
       style="font-size:31.23px;line-height:1.25;font-family:sans-serif;letter-spacing:0px;stroke-width:2.34225"
       id="path1282" />
  </g>
</svg>
