<?xml version="1.0" encoding="UTF-8" standalone="no"?>
<svg
   xmlns:dc="http://purl.org/dc/elements/1.1/"
   xmlns:cc="http://creativecommons.org/ns#"
   xmlns:rdf="http://www.w3.org/1999/02/22-rdf-syntax-ns#"
   xmlns:svg="http://www.w3.org/2000/svg"
   xmlns="http://www.w3.org/2000/svg"
   xmlns:sodipodi="http://sodipodi.sourceforge.net/DTD/sodipodi-0.dtd"
   xmlns:inkscape="http://www.inkscape.org/namespaces/inkscape"
   width="240mm"
   height="120mm"
   viewBox="0 0 240 120"
   version="1.1"
   id="svg8"
   inkscape:version="1.0 (4035a4fb49, 2020-05-01)"
   sodipodi:docname="caracarasellosello.svg">
  <defs
     id="defs2" />
  <sodipodi:namedview
     id="base"
     pagecolor="#ffffff"
     bordercolor="#666666"
     borderopacity="1.0"
     inkscape:pageopacity="0.0"
     inkscape:pageshadow="2"
     inkscape:zoom="0.99437387"
     inkscape:cx="454.44468"
     inkscape:cy="447.99062"
     inkscape:document-units="mm"
     inkscape:current-layer="layer1"
     showgrid="false"
     showborder="true"
     width="200mm"
     showguides="false"
     inkscape:guide-bbox="true"
     inkscape:window-width="958"
     inkscape:window-height="1043"
     inkscape:window-x="0"
     inkscape:window-y="18"
     inkscape:window-maximized="1"
     inkscape:document-rotation="0">
    <inkscape:grid
       type="xygrid"
       id="grid815"
       units="mm"
       spacingx="10"
       spacingy="10"
       empspacing="4"
       dotted="false" />
  </sodipodi:namedview>
  <metadata
     id="metadata5">
    <rdf:RDF>
      <cc:Work
         rdf:about="">
        <dc:format>image/svg+xml</dc:format>
        <dc:type
           rdf:resource="http://purl.org/dc/dcmitype/StillImage" />
        <dc:title></dc:title>
      </cc:Work>
    </rdf:RDF>
  </metadata>
  <g
     inkscape:label="Layer 1"
     inkscape:groupmode="layer"
     id="layer1"
     transform="translate(0,-177)">
    <path
       id="path10-3"
       style="opacity:0.99;fill:#e28177;fill-opacity:1;stroke:#000000;stroke-width:1.565;stroke-linecap:round;stroke-linejoin:round;stroke-opacity:1;paint-order:stroke fill markers"
       d="m 123.03326,209.07597 a 3.0332575,3.5650282 0 0 1 -3.03048,3.56502 3.0332575,3.5650282 0 0 1 -3.03603,-3.55849 3.0332575,3.5650282 0 0 1 3.02491,-3.57155 3.0332575,3.5650282 0 0 1 3.04158,3.55195" />
    <path
       sodipodi:nodetypes="cc"
       style="font-variation-settings:normal;opacity:1;vector-effect:none;fill:none;fill-opacity:1;stroke:#000000;stroke-width:0.264583px;stroke-linecap:butt;stroke-linejoin:miter;stroke-miterlimit:4;stroke-dasharray:none;stroke-dashoffset:0;stroke-opacity:1;stop-color:#000000;stop-opacity:1"
       d="M 48.043234,248.77753 120.48469,208.35549"
       id="path1177" />
    <path
       sodipodi:nodetypes="cc"
       style="font-variation-settings:normal;opacity:1;vector-effect:none;fill:none;fill-opacity:1;stroke:#000000;stroke-width:0.264583px;stroke-linecap:butt;stroke-linejoin:miter;stroke-miterlimit:4;stroke-dasharray:none;stroke-dashoffset:0;stroke-opacity:1;stop-color:#000000;stop-opacity:1"
       d="m 120.48469,208.35549 67.61774,40.72206"
       id="path1181" />
    <path
       id="path1266"
       style="font-size:31.23px;line-height:1.25;font-family:sans-serif;letter-spacing:0px;stroke-width:2.34225"
       d="m 33.524329,185.28776 q 0,1.07704 -0.362498,1.96227 -0.362496,0.88524 -1.024447,1.53441 -0.646191,0.64917 -1.560315,1.07703 -0.914123,0.41312 -2.033136,0.59015 v 0.0885 q 2.789653,0.32459 4.239641,1.6672 1.449989,1.32785 1.449989,3.46717 0,1.41638 -0.520105,2.59669 -0.504344,1.18031 -1.544553,2.03603 -1.04021,0.85574 -2.632045,1.32785 -1.591835,0.47213 -3.766818,0.47213 -1.717921,0 -3.246713,-0.25081 -1.513032,-0.25082 -2.852696,-0.91475 v -2.50816 q 1.371185,0.67868 2.963021,1.04753 1.607596,0.36884 3.073345,0.36884 1.449988,0 2.505959,-0.29508 1.055969,-0.29508 1.733681,-0.84097 0.693474,-0.5459 1.008688,-1.3426 0.330976,-0.79672 0.330976,-1.78523 0,-1.00327 -0.42554,-1.71145 -0.40978,-0.72294 -1.182056,-1.18031 -0.772276,-0.47213 -1.89129,-0.69344 -1.103251,-0.22131 -2.505958,-0.22131 H 23.18528 v -2.22784 h 2.096179 q 1.276621,0 2.269547,-0.29508 0.992927,-0.29508 1.654878,-0.84097 0.677712,-0.54589 1.024449,-1.29834 0.346736,-0.75245 0.346736,-1.65245 0,-0.76719 -0.283693,-1.3721 -0.283693,-0.60492 -0.803798,-1.01803 -0.520105,-0.42786 -1.245099,-0.64917 -0.724994,-0.22131 -1.607595,-0.22131 -1.686401,0 -2.978782,0.50164 -1.27662,0.48688 -2.442915,1.28358 l -1.449989,-1.84424 q 0.598908,-0.45737 1.323902,-0.85572 0.740756,-0.39836 1.607597,-0.69343 0.866841,-0.30984 1.844007,-0.48689 0.992927,-0.17704 2.09618,-0.17704 1.70216,0 2.97878,0.39835 1.292381,0.39836 2.159222,1.1213 0.866841,0.70818 1.308142,1.6967 0.441301,0.97376 0.441301,2.13932 z" />
    <path
       id="path1270"
       style="font-size:31.23px;line-height:1.25;font-family:sans-serif;letter-spacing:0px;stroke-width:2.34225"
       d="m 64.003937,201.80473 -6.98201,-18.88501 h -0.126086 q 0.09456,1.09179 0.157608,2.16883 0.06305,0.9295 0.09456,1.96227 0.04729,1.01802 0.04729,1.859 v 12.89491 h -2.710848 v -21.57022 h 4.349966 l 6.493432,17.58667 h 0.0946 l 6.52494,-17.58667 h 4.349957 v 21.57022 h -2.931487 v -13.08672 q 0,-0.7672 0.0315,-1.75571 0.0315,-0.98852 0.0789,-1.88851 0.063,-1.04752 0.11032,-2.12456 h -0.12609 l -7.04505,18.8555 z" />
    <path
       id="path1272"
       style="font-size:31.23px;line-height:1.25;font-family:sans-serif;letter-spacing:0px;stroke-width:2.34225"
       d="m 99.770062,191.01226 q 0,2.4934 -0.64619,4.5442 -0.63043,2.05079 -1.89129,3.51144 -1.26086,1.46063 -3.13639,2.25734 -1.85977,0.7967 -4.302679,0.7967 -2.569007,0 -4.460287,-0.7967 -1.87553,-0.79671 -3.120627,-2.25734 -1.22934,-1.46065 -1.82824,-3.51144 -0.59891,-2.06555 -0.59891,-4.57371 0,-2.50817 0.59891,-4.54421 0.5989,-2.05079 1.844,-3.49668 1.245097,-1.44588 3.136387,-2.22784 1.89129,-0.79671 4.460287,-0.79671 2.442909,0 4.286929,0.79671 1.85976,0.78196 3.12062,2.24259 1.26086,1.44589 1.89129,3.49668 0.64619,2.03605 0.64619,4.55897 z m -16.879753,0 q 0,2.02128 0.40978,3.64421 0.409777,1.60818 1.245097,2.74423 0.85108,1.12129 2.14346,1.72621 1.30815,0.59015 3.104867,0.59015 1.79672,0 3.089099,-0.59015 1.30814,-0.60491 2.14346,-1.72621 0.85109,-1.13606 1.2451,-2.74423 0.39402,-1.62293 0.39402,-3.64421 0,-2.03605 -0.39402,-3.64422 -0.39401,-1.60818 -1.22933,-2.71472 -0.83532,-1.12131 -2.12771,-1.71146 -1.292379,-0.60491 -3.089099,-0.60491 -1.796727,0 -3.104857,0.60491 -1.30815,0.59015 -2.15923,1.71146 -0.85108,1.10654 -1.260857,2.71472 -0.40978,1.60817 -0.40978,3.64422 z" />
    <path
       id="path1274"
       style="font-size:31.23px;line-height:1.25;font-family:sans-serif;letter-spacing:0px;stroke-width:2.34225"
       d="M 122.79356,201.80474 H 119.405 L 108.07302,183.9525 h -0.12608 q 0.0946,1.13606 0.15761,2.25736 0.063,0.959 0.0946,2.00653 0.0472,1.04752 0.0472,1.8885 v 11.69985 h -2.71085 v -21.57022 h 3.35704 l 11.28469,17.76371 h 0.11033 q -0.0472,-1.12129 -0.11033,-2.21308 -0.0157,-0.47213 -0.0472,-0.95901 -0.0157,-0.50163 -0.0472,-0.98851 -0.0157,-0.50164 -0.0315,-0.95901 0,-0.45737 0,-0.84097 v -11.80313 h 2.74237 z" />
    <path
       id="path1276"
       style="font-size:31.23px;line-height:1.25;font-family:sans-serif;letter-spacing:0px;stroke-width:2.34225"
       d="m 144.53266,201.80474 h -11.9624 v -21.57022 h 11.9624 v 2.41963 h -9.0309 v 6.66877 h 8.432 v 2.39013 h -8.432 v 7.67204 h 9.0309 z" />
    <path
       id="path1278"
       style="font-size:31.23px;line-height:1.25;font-family:sans-serif;letter-spacing:0px;stroke-width:2.34225"
       d="m 171.42549,190.81308 q 0,2.72947 -0.75652,4.79502 -0.75651,2.0508 -2.19074,3.43767 -1.43423,1.37209 -3.53041,2.06554 -2.08041,0.69343 -4.72822,0.69343 h -5.76843 v -21.57022 h 6.41462 q 2.41139,0 4.36573,0.67868 1.95433,0.67868 3.32551,2.02128 1.37119,1.32785 2.11194,3.30488 0.75652,1.97703 0.75652,4.57372 z m -3.10487,0.0885 q 0,-2.15407 -0.5201,-3.71799 -0.52011,-1.57866 -1.51304,-2.59669 -0.99292,-1.01802 -2.44291,-1.5049 -1.44998,-0.50162 -3.294,-0.50162 h -3.1679 v 16.86372 h 2.55324 q 4.16083,0 6.27277,-2.15408 2.11194,-2.15407 2.11194,-6.38844 z" />
    <path
       id="path1280"
       style="font-size:31.23px;line-height:1.25;font-family:sans-serif;letter-spacing:0px;stroke-width:2.34225"
       d="M 194.14172,201.84899 191.62,195.16548 h -8.5896 l -2.55324,6.68351 h -2.96303 l 8.46353,-21.65874 h 2.67932 l 8.47929,21.65874 z m -3.45161,-9.11791 -2.33258,-6.25567 q -0.0946,-0.26556 -0.23642,-0.64917 -0.12608,-0.3836 -0.26793,-0.82622 -0.14184,-0.44261 -0.28369,-0.91474 -0.14184,-0.48688 -0.26794,-0.94425 -0.11032,0.45737 -0.25216,0.94425 -0.14185,0.48688 -0.2837,0.94425 -0.14184,0.44263 -0.28369,0.82623 -0.12609,0.36885 -0.22065,0.61966 l -2.28531,6.25567 z" />
    <path
       id="path1282"
       style="font-size:31.23px;line-height:1.25;font-family:sans-serif;letter-spacing:0px;stroke-width:2.34225"
       d="m 218.52857,196.04333 q 0,1.43113 -0.55163,2.56718 -0.53587,1.1213 -1.54455,1.90326 -1.00869,0.78196 -2.45868,1.19507 -1.44999,0.39835 -3.26248,0.39835 -1.74944,0 -3.27824,-0.26557 -1.51302,-0.25081 -2.53747,-0.75245 v -2.6262 q 0.53586,0.23607 1.21358,0.47213 0.69346,0.22131 1.44999,0.39836 0.75651,0.17704 1.56031,0.29508 0.8038,0.10327 1.59183,0.10327 2.52172,0 3.71954,-0.88523 1.21357,-0.88524 1.21357,-2.53767 0,-0.79672 -0.23641,-1.38687 -0.22065,-0.59016 -0.80379,-1.07704 -0.5674,-0.50164 -1.5288,-0.95901 -0.96141,-0.47213 -2.42716,-1.01802 -1.4027,-0.51638 -2.4429,-1.12129 -1.02445,-0.61966 -1.70217,-1.38687 -0.66195,-0.7672 -0.99293,-1.74097 -0.31521,-0.97375 -0.31521,-2.21308 0,-1.29835 0.50434,-2.31637 0.50435,-1.01801 1.41847,-1.71145 0.91413,-0.70819 2.17499,-1.07703 1.27662,-0.36885 2.8054,-0.36885 1.87554,0 3.37281,0.33934 1.49727,0.32459 2.66356,0.84097 l -1.05596,2.30161 q -1.02445,-0.42786 -2.3326,-0.73769 -1.29238,-0.32459 -2.67932,-0.32459 -1.92281,0 -2.97879,0.84098 -1.05596,0.82621 -1.05596,2.24259 0,0.84097 0.2364,1.46063 0.23642,0.60492 0.78804,1.10655 0.55163,0.48687 1.44999,0.9295 0.91413,0.42786 2.23802,0.91473 1.43424,0.53115 2.50597,1.0918 1.08749,0.56065 1.81249,1.26884 0.72498,0.70818 1.08748,1.63768 0.37827,0.9295 0.37827,2.19833 z" />
    <g
       transform="translate(10.583332,-3.1750001)"
       id="g280">
      <path
         style="font-variation-settings:normal;vector-effect:none;fill:none;fill-opacity:1;stroke:#000000;stroke-width:0.264583px;stroke-linecap:butt;stroke-linejoin:miter;stroke-miterlimit:4;stroke-dasharray:none;stroke-dashoffset:0;stroke-opacity:1;stop-color:#000000"
         d="M 192.92651,291.05682 178.56497,253.8648 164.85361,290.76605"
         id="path1183" />
      <path
         id="path10"
         style="opacity:0.99;fill:#bee0b9;fill-opacity:0.984314;stroke:#000000;stroke-width:1.565;stroke-linecap:round;stroke-linejoin:round;stroke-opacity:1;paint-order:stroke fill markers"
         d="m 175.10248,254.24236 a 3.0332575,3.5650282 0 0 1 3.03048,-3.56503 3.0332575,3.5650282 0 0 1 3.03603,3.55849 3.0332575,3.5650282 0 0 1 -3.02492,3.57155 3.0332575,3.5650282 0 0 1 -3.04157,-3.55195" />
      <path
         id="path10-35"
         style="opacity:0.99;fill:#bddfb8;fill-opacity:1;stroke:#000000;stroke-width:1.565;stroke-linecap:round;stroke-linejoin:round;stroke-opacity:1;paint-order:stroke fill markers"
         d="m 189.62615,290.80332 a 3.0332575,3.5650282 0 0 1 3.03048,-3.56503 3.0332575,3.5650282 0 0 1 3.03603,3.55849 3.0332575,3.5650282 0 0 1 -3.02491,3.57155 3.0332575,3.5650282 0 0 1 -3.04158,-3.55195" />
      <path
         id="path10-62"
         style="opacity:0.99;fill:#bddfb8;fill-opacity:0.992157;stroke:#000000;stroke-width:1.565;stroke-linecap:round;stroke-linejoin:round;stroke-opacity:1;paint-order:stroke fill markers"
         d="m 161.73403,290.80332 a 3.0332575,3.5650282 0 0 1 3.03048,-3.56503 3.0332575,3.5650282 0 0 1 3.03603,3.55849 3.0332575,3.5650282 0 0 1 -3.02491,3.57155 3.0332575,3.5650282 0 0 1 -3.04158,-3.55195" />
      <path
         id="path1229"
         style="font-size:6.98452px;line-height:1.25;font-family:sans-serif;letter-spacing:0px;stroke-width:0.523839"
         d="m 193.10273,288.78109 q -0.32882,0 -0.59618,0.15516 -0.26736,0.15141 -0.45789,0.43904 -0.18746,0.28764 -0.29195,0.70018 -0.10141,0.41253 -0.10141,0.93105 0,0.53366 0.0891,0.94996 0.0922,0.41254 0.27351,0.6964 0.18131,0.28386 0.45174,0.43145 0.27043,0.14761 0.63306,0.14761 0.27351,0 0.51935,-0.0644 0.24585,-0.0681 0.48555,-0.15518 v 0.61313 q -0.11985,0.0568 -0.2397,0.10221 -0.11985,0.0416 -0.25199,0.0681 -0.12907,0.0265 -0.27965,0.0378 -0.14751,0.0151 -0.32883,0.0151 -0.50399,0 -0.87276,-0.20439 -0.36877,-0.20437 -0.61154,-0.57906 -0.2397,-0.37469 -0.35648,-0.90078 -0.11679,-0.52607 -0.11679,-1.1657 0,-0.62827 0.13215,-1.15057 0.13522,-0.52228 0.39336,-0.89698 0.26121,-0.37469 0.64535,-0.58285 0.38414,-0.20816 0.88198,-0.20816 0.33189,0 0.63306,0.0832 0.30116,0.0832 0.54393,0.24222 l -0.2397,0.59043 q -0.19361,-0.12112 -0.42101,-0.20816 -0.22741,-0.087 -0.51628,-0.087 z" />
      <path
         id="path1232"
         style="font-size:6.98452px;line-height:1.25;font-family:sans-serif;letter-spacing:0px;stroke-width:0.523838"
         d="m 165.5748,289.00553 q -0.32882,0 -0.59618,0.15517 -0.26736,0.1514 -0.45789,0.43903 -0.18746,0.28764 -0.29195,0.70019 -0.10141,0.41253 -0.10141,0.93104 0,0.53364 0.0891,0.94997 0.0922,0.41253 0.27351,0.6964 0.18131,0.28385 0.45174,0.43145 0.27044,0.14761 0.63306,0.14761 0.27351,0 0.51935,-0.0644 0.24585,-0.0681 0.48555,-0.15518 v 0.61313 q -0.11985,0.0568 -0.2397,0.10221 -0.11985,0.0416 -0.25199,0.0681 -0.12907,0.0265 -0.27965,0.0378 -0.14751,0.0151 -0.32882,0.0151 -0.50399,0 -0.87276,-0.20438 -0.36878,-0.20437 -0.61155,-0.57906 -0.2397,-0.37469 -0.35648,-0.90077 -0.11678,-0.52608 -0.11678,-1.1657 0,-0.62827 0.13214,-1.15057 0.13522,-0.5223 0.39336,-0.89698 0.26121,-0.37469 0.64535,-0.58285 0.38414,-0.20816 0.88198,-0.20816 0.3319,0 0.63306,0.0832 0.30116,0.0832 0.54394,0.24222 l -0.2397,0.59043 q -0.19361,-0.12112 -0.42102,-0.20816 -0.22741,-0.087 -0.51628,-0.087 z" />
      <path
         id="path1235"
         style="font-size:6.98452px;line-height:1.25;font-family:sans-serif;letter-spacing:0px;stroke-width:0.523838"
         d="m 178.99434,256.95372 h -0.54087 v -3.45548 q 0,-0.16274 0,-0.34819 0.003,-0.18545 0.006,-0.36712 0.006,-0.18545 0.009,-0.35198 0.006,-0.17032 0.009,-0.299 -0.0522,0.0681 -0.0922,0.11733 -0.04,0.0492 -0.083,0.0947 -0.04,0.0454 -0.086,0.0984 -0.0461,0.0492 -0.11063,0.11732 l -0.45482,0.45796 -0.29502,-0.46553 1.177,-1.13163 h 0.46097 z" />
    </g>
    <g
       transform="translate(-19.752436,-5.26977)"
       id="g289">
      <path
         style="font-variation-settings:normal;vector-effect:none;fill:none;fill-opacity:1;stroke:#000000;stroke-width:0.264583px;stroke-linecap:butt;stroke-linejoin:miter;stroke-miterlimit:4;stroke-dasharray:none;stroke-dashoffset:0;stroke-opacity:1;stop-color:#000000"
         d="M 80.90897,290.80195 67.92152,254.49541 52.86731,290.7568"
         id="path1187" />
      <path
         d="m 64.50597,254.24236 a 3.0332575,3.5650282 0 0 1 3.03048,-3.56503 3.0332575,3.5650282 0 0 1 3.03603,3.55849 3.0332575,3.5650282 0 0 1 -3.02491,3.57155 3.0332575,3.5650282 0 0 1 -3.04158,-3.55195"
         style="opacity:0.99;fill:#7cdf7f;fill-opacity:0.976471;stroke:#000000;stroke-width:1.565;stroke-linecap:round;stroke-linejoin:round;stroke-opacity:1;paint-order:stroke fill markers"
         id="path10-5" />
      <path
         d="m 78.05768,290.80332 a 3.0332575,3.5650282 0 0 1 3.03048,-3.56503 3.0332575,3.5650282 0 0 1 3.03603,3.55849 3.0332575,3.5650282 0 0 1 -3.02491,3.57155 3.0332575,3.5650282 0 0 1 -3.04158,-3.55195"
         style="opacity:0.99;fill:#7cdf7f;fill-opacity:0.976471;stroke:#000000;stroke-width:1.565;stroke-linecap:round;stroke-linejoin:round;stroke-opacity:1;paint-order:stroke fill markers"
         id="path10-2" />
      <path
         d="m 50.16558,290.80332 a 3.0332575,3.5650282 0 0 1 3.03048,-3.56503 3.0332575,3.5650282 0 0 1 3.03603,3.55849 3.0332575,3.5650282 0 0 1 -3.02492,3.57155 3.0332575,3.5650282 0 0 1 -3.04157,-3.55195"
         style="opacity:0.99;fill:#7cdf7f;fill-opacity:0.976471;stroke:#000000;stroke-width:1.565;stroke-linecap:round;stroke-linejoin:round;stroke-opacity:1;paint-order:stroke fill markers"
         id="path10-70" />
      <path
         d="m 82.12149,292.25438 q 0,0.36712 -0.10757,0.65854 -0.10448,0.28763 -0.30116,0.48823 -0.19667,0.20059 -0.4794,0.30656 -0.28273,0.10221 -0.63614,0.10221 -0.34111,0 -0.6392,-0.0681 -0.29501,-0.0644 -0.49477,-0.19302 v -0.67369 q 0.10449,0.0606 0.23663,0.12112 0.13522,0.0567 0.28273,0.10221 0.1475,0.0454 0.30423,0.0757 0.15673,0.0265 0.31038,0.0265 0.4917,0 0.72526,-0.22709 0.23662,-0.22708 0.23662,-0.65098 0,-0.20437 -0.0461,-0.35576 -0.043,-0.15139 -0.15673,-0.27628 -0.11063,-0.12869 -0.29809,-0.24602 -0.18745,-0.1211 -0.47325,-0.26114 -0.27351,-0.13247 -0.47633,-0.28764 -0.19976,-0.15897 -0.3319,-0.35577 -0.12906,-0.19681 -0.1936,-0.4466 -0.0615,-0.2498 -0.0615,-0.56771 0,-0.33307 0.0983,-0.5942 0.0984,-0.26116 0.27658,-0.43904 0.17824,-0.18167 0.42409,-0.27628 0.24892,-0.0947 0.54701,-0.0947 0.3657,0 0.65765,0.087 0.29194,0.0832 0.51935,0.21573 l -0.2059,0.59042 q -0.19975,-0.10975 -0.45482,-0.18923 -0.252,-0.0832 -0.52242,-0.0832 -0.37492,0 -0.58082,0.21573 -0.2059,0.21194 -0.2059,0.57529 0,0.21573 0.0461,0.37468 0.0461,0.15519 0.15365,0.28385 0.10755,0.12491 0.28273,0.23846 0.17823,0.10974 0.43638,0.23465 0.27964,0.13625 0.48862,0.28006 0.21204,0.14382 0.35341,0.32549 0.14136,0.18167 0.21204,0.42012 0.0738,0.23842 0.0738,0.56392 z"
         style="font-size:6.98452px;line-height:1.25;font-family:sans-serif;letter-spacing:0px;stroke-width:0.523838"
         id="path1241" />
      <path
         d="m 53.79113,288.49777 q -0.32882,0 -0.59618,0.15516 -0.26736,0.1514 -0.45789,0.43904 -0.18746,0.28764 -0.29195,0.70018 -0.10141,0.41253 -0.10141,0.93105 0,0.53364 0.0891,0.94996 0.0922,0.41254 0.27351,0.6964 0.18131,0.28386 0.45175,0.43146 0.27043,0.1476 0.63305,0.1476 0.27351,0 0.51935,-0.0644 0.24586,-0.0681 0.48556,-0.15518 v 0.61313 q -0.11986,0.0568 -0.2397,0.10221 -0.11986,0.0416 -0.252,0.0681 -0.12907,0.0265 -0.27965,0.0378 -0.14751,0.0151 -0.32882,0.0151 -0.50399,0 -0.87277,-0.20438 -0.36876,-0.20437 -0.61154,-0.57906 -0.2397,-0.37469 -0.35648,-0.90077 -0.11678,-0.52607 -0.11678,-1.1657 0,-0.62827 0.13215,-1.15056 0.13522,-0.5223 0.39335,-0.89699 0.26122,-0.37469 0.64536,-0.58285 0.38413,-0.20816 0.88197,-0.20816 0.3319,0 0.63306,0.0832 0.30117,0.0832 0.54394,0.24222 l -0.2397,0.59043 q -0.19361,-0.12112 -0.42102,-0.20816 -0.22741,-0.087 -0.51628,-0.087 z"
         style="font-size:6.98452px;line-height:1.25;font-family:sans-serif;letter-spacing:0px;stroke-width:0.523838"
         id="path1244" />
      <path
         d="m 68.76669,252.72265 q 0,0.27628 -0.0706,0.50336 -0.0707,0.22708 -0.19976,0.39361 -0.126,0.16653 -0.30423,0.27629 -0.17824,0.10598 -0.39643,0.15139 v 0.0228 q 0.54394,0.0832 0.82666,0.42768 0.28273,0.34063 0.28273,0.88941 0,0.36334 -0.10142,0.66613 -0.0983,0.30276 -0.30116,0.52228 -0.20282,0.21953 -0.51321,0.34063 -0.31038,0.12111 -0.73446,0.12111 -0.33498,0 -0.63307,-0.0644 -0.29501,-0.0644 -0.55622,-0.23465 v -0.64341 q 0.26735,0.1741 0.57773,0.26872 0.31347,0.0947 0.59926,0.0947 0.28272,0 0.48862,-0.0757 0.2059,-0.0757 0.33804,-0.21572 0.13522,-0.14004 0.19668,-0.34442 0.0645,-0.20437 0.0645,-0.45795 0,-0.25737 -0.083,-0.43904 -0.0799,-0.18545 -0.23048,-0.30277 -0.15058,-0.12111 -0.36878,-0.17789 -0.21511,-0.0568 -0.48862,-0.0568 h -0.40872 v -0.5715 h 0.40872 q 0.24893,0 0.44253,-0.0757 0.1936,-0.0757 0.32268,-0.21573 0.13213,-0.14003 0.19974,-0.33306 0.0676,-0.19302 0.0676,-0.42389 0,-0.19681 -0.0553,-0.35198 -0.0553,-0.15517 -0.15673,-0.26115 -0.10141,-0.10976 -0.24276,-0.16652 -0.14137,-0.0568 -0.31347,-0.0568 -0.32882,0 -0.58082,0.12867 -0.2489,0.12491 -0.47632,0.32928 l -0.28273,-0.47309 q 0.11678,-0.11733 0.25814,-0.21952 0.14443,-0.10221 0.31346,-0.17788 0.16903,-0.0795 0.35955,-0.1249 0.1936,-0.0454 0.40872,-0.0454 0.33189,0 0.58083,0.10221 0.25198,0.10221 0.421,0.28764 0.16902,0.18167 0.25507,0.43525 0.0861,0.24978 0.0861,0.54879 z"
         style="font-size:6.98452px;line-height:1.25;font-family:sans-serif;letter-spacing:0px;stroke-width:0.523838"
         id="path1247" />
    </g>
    <path
       id="path300"
       d="m 120.48469,208.35549 0.52094,40.06321"
       style="font-variation-settings:normal;opacity:1;vector-effect:none;fill:none;fill-opacity:1;stroke:#000000;stroke-width:0.264583px;stroke-linecap:butt;stroke-linejoin:miter;stroke-miterlimit:4;stroke-dasharray:none;stroke-dashoffset:0;stroke-opacity:1;stop-color:#000000;stop-opacity:1" />
    <g
       transform="translate(0,-5.2916667)"
       id="g298">
      <path
         style="font-variation-settings:normal;vector-effect:none;fill:none;fill-opacity:1;stroke:#000000;stroke-width:0.264583px;stroke-linecap:butt;stroke-linejoin:miter;stroke-miterlimit:4;stroke-dasharray:none;stroke-dashoffset:0;stroke-opacity:1;stop-color:#000000"
         d="m 136.56057,290.84258 -15.55494,-37.13221 -12.38358,36.77757"
         id="path1185" />
      <path
         id="path10-9"
         style="opacity:0.99;fill:#7cdfb9;fill-opacity:0.984314;stroke:#000000;stroke-width:1.565;stroke-linecap:round;stroke-linejoin:round;stroke-opacity:1;paint-order:stroke fill markers"
         d="m 133.84192,290.80332 a 3.0332575,3.5650282 0 0 1 3.03047,-3.56503 3.0332575,3.5650282 0 0 1 3.03604,3.55849 3.0332575,3.5650282 0 0 1 -3.02492,3.57155 3.0332575,3.5650282 0 0 1 -3.04157,-3.55195" />
      <path
         id="path10-7"
         style="opacity:0.99;fill:#7cdfb9;fill-opacity:0.984314;stroke:#000000;stroke-width:1.565;stroke-linecap:round;stroke-linejoin:round;stroke-opacity:1;paint-order:stroke fill markers"
         d="m 118.21673,254.24236 a 3.0332575,3.5650282 0 0 1 3.03047,-3.56503 3.0332575,3.5650282 0 0 1 3.03604,3.55849 3.0332575,3.5650282 0 0 1 -3.02492,3.57155 3.0332575,3.5650282 0 0 1 -3.04157,-3.55195" />
      <path
         id="path10-1"
         style="opacity:0.99;fill:#7cdfb9;fill-opacity:0.984314;stroke:#000000;stroke-width:1.565;stroke-linecap:round;stroke-linejoin:round;stroke-opacity:1;paint-order:stroke fill markers"
         d="m 105.9498,290.80332 a 3.0332575,3.5650282 0 0 1 3.03048,-3.56503 3.0332575,3.5650282 0 0 1 3.03603,3.55849 3.0332575,3.5650282 0 0 1 -3.02491,3.57155 3.0332575,3.5650282 0 0 1 -3.04158,-3.55195" />
      <path
         id="path1253"
         style="font-size:6.98452px;line-height:1.25;font-family:sans-serif;letter-spacing:0px;stroke-width:0.523838"
         d="m 110.41025,292.25136 q 0,0.36713 -0.10755,0.65855 -0.10449,0.28764 -0.30116,0.48823 -0.19669,0.20059 -0.47941,0.30657 -0.28272,0.10221 -0.63613,0.10221 -0.34112,0 -0.63921,-0.0681 -0.29502,-0.0644 -0.49476,-0.19302 v -0.67369 q 0.10448,0.0606 0.23662,0.12112 0.13522,0.0568 0.28273,0.1022 0.14751,0.0454 0.30424,0.0757 0.15673,0.0265 0.31038,0.0265 0.49169,0 0.72525,-0.22708 0.23663,-0.22709 0.23663,-0.65098 0,-0.20438 -0.0461,-0.35576 -0.043,-0.15139 -0.15672,-0.27629 -0.11063,-0.12868 -0.29809,-0.24601 -0.18746,-0.12111 -0.47326,-0.26115 -0.27351,-0.13246 -0.47633,-0.28764 -0.19975,-0.15896 -0.33189,-0.35576 -0.12908,-0.19681 -0.19361,-0.44661 -0.0615,-0.24978 -0.0615,-0.56771 0,-0.33305 0.0983,-0.5942 0.0983,-0.26115 0.27658,-0.43903 0.17824,-0.18167 0.42408,-0.27629 0.24892,-0.0947 0.54701,-0.0947 0.3657,0 0.65765,0.087 0.29194,0.0832 0.51935,0.21572 l -0.2059,0.59043 q -0.19975,-0.10976 -0.45482,-0.18924 -0.25199,-0.0832 -0.52242,-0.0832 -0.37492,0 -0.58081,0.21573 -0.2059,0.21194 -0.2059,0.57528 0,0.21573 0.0461,0.37469 0.0461,0.15517 0.15366,0.28385 0.10755,0.1249 0.28272,0.23844 0.17824,0.10976 0.43638,0.23466 0.27965,0.13625 0.48862,0.28007 0.21205,0.14382 0.3534,0.32549 0.14137,0.18166 0.21205,0.42011 0.0737,0.23843 0.0737,0.56392 z" />
      <path
         id="path1256"
         style="font-size:6.98452px;line-height:1.25;font-family:sans-serif;letter-spacing:0px;stroke-width:0.523838"
         d="m 138.26145,292.19794 q 0,0.36712 -0.10755,0.65855 -0.10448,0.28764 -0.30116,0.48823 -0.19669,0.20059 -0.4794,0.30656 -0.28273,0.10221 -0.63614,0.10221 -0.34112,0 -0.63921,-0.0681 -0.29501,-0.0644 -0.49476,-0.19303 v -0.67368 q 0.10448,0.0606 0.23663,0.12111 0.13521,0.0568 0.28272,0.10221 0.14751,0.0454 0.30424,0.0757 0.15673,0.0265 0.31038,0.0265 0.4917,0 0.72526,-0.22709 0.23662,-0.22708 0.23662,-0.65098 0,-0.20437 -0.0461,-0.35577 -0.043,-0.15138 -0.15673,-0.27628 -0.11063,-0.12868 -0.29809,-0.246 -0.18746,-0.12112 -0.47326,-0.26115 -0.27351,-0.13248 -0.47632,-0.28764 -0.19976,-0.15897 -0.3319,-0.35577 -0.12908,-0.19681 -0.19361,-0.4466 -0.0615,-0.2498 -0.0615,-0.56771 0,-0.33306 0.0983,-0.59421 0.0983,-0.26114 0.27658,-0.43903 0.17824,-0.18166 0.42408,-0.27628 0.24893,-0.0947 0.54702,-0.0947 0.3657,0 0.65764,0.087 0.29194,0.0832 0.51935,0.21573 l -0.20589,0.59041 q -0.19975,-0.10975 -0.45482,-0.18923 -0.252,-0.0832 -0.52242,-0.0832 -0.37492,0 -0.58082,0.21574 -0.2059,0.21194 -0.2059,0.57528 0,0.21573 0.0461,0.37469 0.046,0.15518 0.15366,0.28385 0.10755,0.1249 0.28272,0.23845 0.17824,0.10975 0.43638,0.23465 0.27965,0.13625 0.48862,0.28007 0.21205,0.14382 0.35341,0.32549 0.14136,0.18167 0.21204,0.4201 0.0738,0.23845 0.0738,0.56393 z" />
      <path
         id="path1259"
         style="font-size:6.98452px;line-height:1.25;font-family:sans-serif;letter-spacing:0px;stroke-width:0.523838"
         d="m 122.63193,256.99362 h -2.80266 v -0.59042 l 1.07558,-1.44199 q 0.23048,-0.30656 0.4118,-0.56014 0.18131,-0.25358 0.30731,-0.4958 0.12907,-0.24223 0.19668,-0.48446 0.0676,-0.246 0.0676,-0.53364 0,-0.2233 -0.0523,-0.39362 -0.0523,-0.17031 -0.15058,-0.28764 -0.0953,-0.12111 -0.22741,-0.18167 -0.13214,-0.0606 -0.29502,-0.0606 -0.29194,0 -0.52857,0.1476 -0.23355,0.14382 -0.4456,0.37091 l -0.31345,-0.45039 q 0.12291,-0.13625 0.26428,-0.25358 0.14136,-0.12111 0.30423,-0.20816 0.16288,-0.087 0.3442,-0.13626 0.1813,-0.053 0.38106,-0.053 0.29502,0 0.53164,0.10222 0.2397,0.10221 0.40565,0.2952 0.16595,0.18925 0.25507,0.46554 0.0922,0.27249 0.0922,0.6169 0,0.3217 -0.083,0.61314 -0.0799,0.29141 -0.22433,0.57527 -0.14137,0.28007 -0.34112,0.56392 -0.19667,0.28386 -0.42716,0.59043 l -0.86354,1.13164 v 0.0303 h 2.11736 z" />
    </g>
    <path
       id="path10-6"
       style="opacity:0.99;fill:#ffe0b8;fill-opacity:1;stroke:#000000;stroke-width:1.565;stroke-linecap:round;stroke-linejoin:round;stroke-opacity:1;paint-order:stroke fill markers"
       d="m 123.03326,209.07597 a 3.0332575,3.5650282 0 0 1 -3.03048,3.56502 3.0332575,3.5650282 0 0 1 -3.03603,-3.55849 3.0332575,3.5650282 0 0 1 3.02491,-3.57155 3.0332575,3.5650282 0 0 1 3.04158,3.55195" />
  </g>
</svg>
