<?xml version="1.0" encoding="UTF-8" standalone="no"?>
<svg
   xmlns:dc="http://purl.org/dc/elements/1.1/"
   xmlns:cc="http://creativecommons.org/ns#"
   xmlns:rdf="http://www.w3.org/1999/02/22-rdf-syntax-ns#"
   xmlns:svg="http://www.w3.org/2000/svg"
   xmlns="http://www.w3.org/2000/svg"
   xmlns:sodipodi="http://sodipodi.sourceforge.net/DTD/sodipodi-0.dtd"
   xmlns:inkscape="http://www.inkscape.org/namespaces/inkscape"
   width="240mm"
   height="120mm"
   viewBox="0 0 240 120"
   version="1.1"
   id="svg8"
   inkscape:version="1.0 (4035a4fb49, 2020-05-01)"
   sodipodi:docname="t1ej1.svg">
  <defs
     id="defs2" />
  <sodipodi:namedview
     id="base"
     pagecolor="#ffffff"
     bordercolor="#666666"
     borderopacity="1.0"
     inkscape:pageopacity="0.0"
     inkscape:pageshadow="2"
     inkscape:zoom="0.70312851"
     inkscape:cx="516.71327"
     inkscape:cy="220.67629"
     inkscape:document-units="mm"
     inkscape:current-layer="layer1"
     showgrid="false"
     showborder="true"
     width="200mm"
     showguides="true"
     inkscape:guide-bbox="true"
     inkscape:window-width="958"
     inkscape:window-height="1043"
     inkscape:window-x="960"
     inkscape:window-y="18"
     inkscape:window-maximized="1"
     inkscape:document-rotation="0">
    <inkscape:grid
       type="xygrid"
       id="grid815"
       units="mm"
       spacingx="10"
       spacingy="10"
       empspacing="4"
       dotted="false" />
  </sodipodi:namedview>
  <metadata
     id="metadata5">
    <rdf:RDF>
      <cc:Work
         rdf:about="">
        <dc:format>image/svg+xml</dc:format>
        <dc:type
           rdf:resource="http://purl.org/dc/dcmitype/StillImage" />
        <dc:title></dc:title>
      </cc:Work>
    </rdf:RDF>
  </metadata>
  <g
     inkscape:label="Layer 1"
     inkscape:groupmode="layer"
     id="layer1"
     transform="translate(0,-177)">
    <rect
       style="opacity:0.99;fill:#96f1c4;stroke:#000000;stroke-width:1.565;stroke-linecap:round;stroke-linejoin:round;paint-order:stroke fill markers;fill-opacity:0.32930139;stroke-opacity:1;stroke-miterlimit:4;stroke-dasharray:none"
       id="rect8"
       width="191.1447"
       height="95.750046"
       x="20.005339"
       y="189.71686" />
    <text
       xml:space="preserve"
       style="font-size:6.53587px;line-height:1.25;font-family:sans-serif;letter-spacing:0px;stroke-width:0.49019"
       x="207.23915"
       y="178.19583"
       id="text835"
       transform="scale(0.95597267,1.046055)"><tspan
         sodipodi:role="line"
         id="tspan833"
         x="207.23915"
         y="178.19583"
         style="stroke-width:0.49019">$\Omega$</tspan></text>
    <ellipse
       style="opacity:0.99;fill:#259777;fill-opacity:0.329301;stroke:#000000;stroke-width:1.82013;stroke-linecap:round;stroke-linejoin:round;stroke-miterlimit:4;stroke-dasharray:none;stroke-opacity:1;paint-order:stroke fill markers"
       id="path855"
       cx="79.314568"
       cy="238.21999"
       rx="49.289143"
       ry="41.093174" />
    <g
       aria-label="A"
       transform="matrix(0.93384978,0,0,1.070836,7.0026499,0.91915837)"
       id="text859"
       style="font-size:10.6021px;line-height:1.25;font-family:sans-serif;letter-spacing:0px;stroke-width:0.795156">
      <path
         d="m 65.411704,201.26857 -0.828289,-2.34509 h -2.82136 l -0.838643,2.34509 h -0.97324 l 2.779946,-7.59955 h 0.880057 l 2.785122,7.59955 z m -1.133721,-3.19927 -0.766167,-2.19496 q -0.03106,-0.0932 -0.07765,-0.22778 -0.04141,-0.1346 -0.088,-0.2899 -0.04659,-0.15531 -0.09318,-0.32097 -0.04659,-0.17083 -0.08801,-0.33131 -0.03624,0.16048 -0.08283,0.33131 -0.04659,0.17084 -0.09318,0.33132 -0.04659,0.1553 -0.09318,0.2899 -0.04142,0.12942 -0.07248,0.21743 l -0.750637,2.19496 z"
         style="stroke-width:0.795156"
         id="path916" />
    </g>
    <ellipse
       style="opacity:0.99;fill:#fabc31;fill-opacity:0.32940388;stroke:#000000;stroke-width:1.84084;stroke-linecap:round;stroke-linejoin:round;stroke-miterlimit:4;stroke-dasharray:none;stroke-opacity:1;paint-order:stroke fill markers"
       id="path861"
       ry="43.034573"
       rx="62.512363"
       cy="238.22324"
       cx="143.2415" />
    <g
       aria-label="B"
       transform="scale(0.93384981,1.070836)"
       id="text859-3"
       style="font-size:10.6021px;line-height:1.25;font-family:sans-serif;letter-spacing:0px;stroke-width:0.795155">
      <path
         d="m 156.97272,194.55454 h 2.06555 q 0.66263,0 1.16478,0.10354 0.50732,0.0984 0.84382,0.32614 0.34167,0.2226 0.5125,0.59015 0.17084,0.36238 0.17084,0.89559 0,0.32096 -0.10354,0.60051 -0.0984,0.27955 -0.2899,0.49179 -0.19154,0.21225 -0.47627,0.3572 -0.27955,0.13978 -0.63675,0.18637 v 0.0518 q 0.3572,0.0621 0.66781,0.18119 0.31579,0.11389 0.54874,0.32096 0.23296,0.20189 0.36756,0.5125 0.13459,0.31061 0.13459,0.75582 0,0.51768 -0.17083,0.92664 -0.16566,0.40379 -0.48662,0.68852 -0.31579,0.27955 -0.77134,0.42967 -0.45556,0.15013 -1.03019,0.15013 h -2.51075 z m 0.96289,3.20962 h 1.26314 q 0.43485,0 0.72993,-0.0777 0.29507,-0.0777 0.47626,-0.22778 0.18119,-0.15531 0.25884,-0.38309 0.0828,-0.23295 0.0828,-0.53838 0,-0.62122 -0.39861,-0.89041 -0.39862,-0.2692 -1.25797,-0.2692 h -1.15442 z m 0,0.80758 v 2.73336 h 1.37703 q 0.45556,0 0.76099,-0.10354 0.31061,-0.10354 0.49697,-0.2899 0.19154,-0.18637 0.27437,-0.44521 0.0828,-0.26401 0.0828,-0.5798 0,-0.2899 -0.088,-0.53321 -0.0828,-0.24331 -0.27954,-0.41414 -0.19154,-0.17602 -0.51251,-0.2692 -0.32096,-0.0984 -0.79723,-0.0984 z"
         style="stroke-width:0.795155"
         id="path926" />
    </g>
    <g
       aria-label="60%"
       transform="scale(0.93384981,1.070836)"
       id="text859-7"
       style="font-size:10.6021px;line-height:1.25;font-family:sans-serif;letter-spacing:0px;stroke-width:0.795155">
      <path
         d="m 54.178313,221.87891 q 0,-0.54357 0.05177,-1.08196 0.05694,-0.53838 0.191542,-1.03018 0.139774,-0.49697 0.377907,-0.92147 0.238133,-0.4245 0.605687,-0.73511 0.367553,-0.31578 0.880057,-0.4918 0.512504,-0.18118 1.201019,-0.18118 0.09836,0 0.217426,0.005 0.119066,0.005 0.238133,0.0207 0.124243,0.0104 0.232956,0.0311 0.11389,0.0155 0.201896,0.0414 v 0.8024 q -0.181189,-0.0621 -0.408968,-0.0932 -0.22778,-0.0311 -0.450382,-0.0311 -0.465913,0 -0.823113,0.11389 -0.352022,0.10871 -0.610863,0.31061 -0.25884,0.20189 -0.434851,0.48144 -0.170835,0.27955 -0.279548,0.62121 -0.108713,0.3365 -0.160481,0.71958 -0.05177,0.38308 -0.0673,0.79723 h 0.06212 q 0.103536,-0.18637 0.248487,-0.34685 0.150127,-0.16565 0.346846,-0.27954 0.196719,-0.11907 0.440028,-0.18637 0.248487,-0.0673 0.553919,-0.0673 0.491796,0 0.890411,0.15531 0.398614,0.15012 0.678161,0.4452 0.279548,0.29508 0.429675,0.72475 0.155304,0.4245 0.155304,0.97324 0,0.59016 -0.160481,1.06125 -0.160481,0.47109 -0.460735,0.8024 -0.300255,0.32614 -0.724753,0.50216 -0.424498,0.17601 -0.952533,0.17601 -0.51768,0 -0.973239,-0.2019 -0.450383,-0.20189 -0.781698,-0.61604 -0.331316,-0.41414 -0.522858,-1.04054 -0.191542,-0.62639 -0.191542,-1.48056 z m 2.458984,2.54699 q 0.310608,0 0.564272,-0.10354 0.25884,-0.10871 0.445205,-0.32096 0.186365,-0.21743 0.284724,-0.54357 0.103536,-0.33131 0.103536,-0.7817 0,-0.36237 -0.08801,-0.6471 -0.08283,-0.2899 -0.253664,-0.49179 -0.170834,-0.2019 -0.429675,-0.31061 -0.253663,-0.10871 -0.595333,-0.10871 -0.346846,0 -0.636747,0.12424 -0.284724,0.11907 -0.48662,0.31578 -0.201895,0.19155 -0.315785,0.44003 -0.108713,0.24849 -0.108713,0.49698 0,0.34684 0.09318,0.69369 0.09836,0.34167 0.284724,0.61604 0.191542,0.27437 0.476266,0.45038 0.284725,0.17084 0.662632,0.17084 z"
         style="stroke-width:0.795155"
         id="path909" />
      <path
         d="m 64.775237,221.31981 q 0,0.9163 -0.134597,1.64105 -0.12942,0.72475 -0.424498,1.2269 -0.289902,0.50215 -0.750637,0.76617 -0.460736,0.26402 -1.118191,0.26402 -0.610863,0 -1.066422,-0.26402 -0.450382,-0.26402 -0.750637,-0.76617 -0.295078,-0.50215 -0.445205,-1.2269 -0.144951,-0.72475 -0.144951,-1.64105 0,-0.91629 0.12942,-1.64105 0.134597,-0.72475 0.419322,-1.22172 0.289901,-0.50215 0.74546,-0.76617 0.460736,-0.26402 1.113013,-0.26402 0.61604,0 1.071599,0.26402 0.455559,0.25884 0.755814,0.76099 0.300255,0.49697 0.450382,1.22173 0.150128,0.72475 0.150128,1.64622 z m -3.877429,0 q 0,0.77652 0.07765,1.35632 0.07765,0.57981 0.248486,0.96807 0.170835,0.38308 0.445206,0.5798 0.279547,0.19154 0.678161,0.19154 0.398615,0 0.678162,-0.19154 0.279548,-0.19154 0.455559,-0.57463 0.181188,-0.38308 0.25884,-0.96288 0.08283,-0.58498 0.08283,-1.36668 0,-0.77652 -0.08283,-1.35632 -0.07765,-0.5798 -0.25884,-0.96289 -0.176011,-0.38308 -0.455559,-0.57462 -0.279547,-0.19155 -0.678162,-0.19155 -0.398614,0 -0.678161,0.19155 -0.274371,0.19154 -0.445206,0.57462 -0.170834,0.38309 -0.248486,0.96289 -0.07765,0.5798 -0.07765,1.35632 z"
         style="stroke-width:0.795155"
         id="path911" />
      <path
         d="m 66.566412,219.80301 q 0,0.85417 0.181188,1.28384 0.186365,0.4245 0.60051,0.4245 0.807582,0 0.807582,-1.70834 0,-1.698 -0.807582,-1.698 -0.414145,0 -0.60051,0.4245 -0.181188,0.41932 -0.181188,1.2735 z m 2.355447,0 q 0,0.55909 -0.09318,1.0043 -0.09318,0.4452 -0.284724,0.75063 -0.191542,0.30544 -0.491797,0.47109 -0.295078,0.16048 -0.704045,0.16048 -0.377907,0 -0.667808,-0.16048 -0.289902,-0.16565 -0.48662,-0.47109 -0.196719,-0.30543 -0.295078,-0.75063 -0.09836,-0.44521 -0.09836,-1.0043 0,-0.5591 0.08801,-0.99913 0.09318,-0.44003 0.279548,-0.74028 0.191542,-0.30543 0.481443,-0.46591 0.295078,-0.16048 0.698869,-0.16048 0.38826,0 0.678161,0.16048 0.295078,0.16048 0.491797,0.46591 0.201895,0.30025 0.300255,0.74028 0.103536,0.44003 0.103536,0.99913 z m 2.215673,3.03361 q 0,0.85417 0.181188,1.27867 0.186366,0.42449 0.60051,0.42449 0.807582,0 0.807582,-1.70316 0,-1.698 -0.807582,-1.698 -0.414144,0 -0.60051,0.4245 -0.181188,0.41932 -0.181188,1.2735 z m 2.350271,0 q 0,0.55909 -0.09318,1.0043 -0.08801,0.44002 -0.279548,0.74546 -0.191541,0.30543 -0.491796,0.47109 -0.295078,0.16048 -0.704046,0.16048 -0.383084,0 -0.672985,-0.16048 -0.289901,-0.16566 -0.48662,-0.47109 -0.191541,-0.30544 -0.289901,-0.74546 -0.09836,-0.44521 -0.09836,-1.0043 0,-0.5591 0.08801,-0.99913 0.09318,-0.44003 0.279547,-0.74028 0.191542,-0.30543 0.481443,-0.46591 0.295078,-0.16049 0.698869,-0.16049 0.388261,0 0.678162,0.16049 0.295078,0.16048 0.491796,0.46591 0.196719,0.30025 0.295078,0.74028 0.103537,0.44003 0.103537,0.99913 z m -1.325263,-5.2907 -4.19839,7.56849 h -0.817936 l 4.203567,-7.56849 z"
         style="stroke-width:0.795155"
         id="path913" />
    </g>
    <g
       aria-label="70%"
       transform="scale(0.93384981,1.070836)"
       id="text859-35"
       style="font-size:10.6021px;line-height:1.25;font-family:sans-serif;letter-spacing:0px;stroke-width:0.795155">
      <path
         d="m 164.24736,225.11441 2.91454,-6.70914 h -3.90331 v -0.85935 h 4.8662 v 0.75064 l -2.87313,6.81785 z"
         style="stroke-width:0.795155"
         id="path929" />
      <path
         d="m 173.97458,221.31981 q 0,0.9163 -0.1346,1.64105 -0.12942,0.72475 -0.42449,1.2269 -0.2899,0.50215 -0.75064,0.76617 -0.46074,0.26402 -1.11819,0.26402 -0.61086,0 -1.06642,-0.26402 -0.45039,-0.26402 -0.75064,-0.76617 -0.29508,-0.50215 -0.44521,-1.2269 -0.14495,-0.72475 -0.14495,-1.64105 0,-0.91629 0.12942,-1.64105 0.1346,-0.72475 0.41933,-1.22172 0.2899,-0.50215 0.74546,-0.76617 0.46073,-0.26402 1.11301,-0.26402 0.61604,0 1.0716,0.26402 0.45556,0.25884 0.75581,0.76099 0.30026,0.49697 0.45038,1.22173 0.15013,0.72475 0.15013,1.64622 z m -3.87743,0 q 0,0.77652 0.0777,1.35632 0.0777,0.57981 0.24848,0.96807 0.17084,0.38308 0.44521,0.5798 0.27954,0.19154 0.67816,0.19154 0.39861,0 0.67816,-0.19154 0.27955,-0.19154 0.45556,-0.57463 0.18119,-0.38308 0.25884,-0.96288 0.0828,-0.58498 0.0828,-1.36668 0,-0.77652 -0.0828,-1.35632 -0.0777,-0.5798 -0.25884,-0.96289 -0.17601,-0.38308 -0.45556,-0.57462 -0.27955,-0.19155 -0.67816,-0.19155 -0.39862,0 -0.67816,0.19155 -0.27437,0.19154 -0.44521,0.57462 -0.17083,0.38309 -0.24848,0.96289 -0.0777,0.5798 -0.0777,1.35632 z"
         style="stroke-width:0.795155"
         id="path931" />
      <path
         d="m 175.76576,219.80301 q 0,0.85417 0.18118,1.28384 0.18637,0.4245 0.60051,0.4245 0.80759,0 0.80759,-1.70834 0,-1.698 -0.80759,-1.698 -0.41414,0 -0.60051,0.4245 -0.18118,0.41932 -0.18118,1.2735 z m 2.35544,0 q 0,0.55909 -0.0932,1.0043 -0.0932,0.4452 -0.28472,0.75063 -0.19155,0.30544 -0.4918,0.47109 -0.29508,0.16048 -0.70405,0.16048 -0.3779,0 -0.6678,-0.16048 -0.2899,-0.16565 -0.48662,-0.47109 -0.19672,-0.30543 -0.29508,-0.75063 -0.0984,-0.44521 -0.0984,-1.0043 0,-0.5591 0.088,-0.99913 0.0932,-0.44003 0.27955,-0.74028 0.19154,-0.30543 0.48145,-0.46591 0.29507,-0.16048 0.69886,-0.16048 0.38826,0 0.67817,0.16048 0.29507,0.16048 0.49179,0.46591 0.2019,0.30025 0.30026,0.74028 0.10353,0.44003 0.10353,0.99913 z m 2.21568,3.03361 q 0,0.85417 0.18119,1.27867 0.18636,0.42449 0.6005,0.42449 0.80759,0 0.80759,-1.70316 0,-1.698 -0.80759,-1.698 -0.41414,0 -0.6005,0.4245 -0.18119,0.41932 -0.18119,1.2735 z m 2.35027,0 q 0,0.55909 -0.0932,1.0043 -0.088,0.44002 -0.27954,0.74546 -0.19154,0.30543 -0.4918,0.47109 -0.29508,0.16048 -0.70405,0.16048 -0.38308,0 -0.67298,-0.16048 -0.2899,-0.16566 -0.48662,-0.47109 -0.19154,-0.30544 -0.2899,-0.74546 -0.0984,-0.44521 -0.0984,-1.0043 0,-0.5591 0.088,-0.99913 0.0932,-0.44003 0.27954,-0.74028 0.19154,-0.30543 0.48145,-0.46591 0.29507,-0.16049 0.69886,-0.16049 0.38827,0 0.67817,0.16049 0.29507,0.16048 0.49179,0.46591 0.19672,0.30025 0.29508,0.74028 0.10354,0.44003 0.10354,0.99913 z m -1.32527,-5.2907 -4.19839,7.56849 h -0.81793 l 4.20357,-7.56849 z"
         style="stroke-width:0.795155"
         id="path933" />
    </g>
    <text
       xml:space="preserve"
       style="font-size:3.52777px;line-height:1.25;font-family:sans-serif;letter-spacing:0px;stroke-width:0.264583"
       x="98.788902"
       y="238.60553"
       id="text899"><tspan
         sodipodi:role="line"
         id="tspan897"
         x="98.788902"
         y="238.60553"
         style="stroke-width:0.264583" /></text>
    <g
       aria-label="40%"
       transform="scale(0.93384981,1.070836)"
       id="text859-9"
       style="font-size:10.6021px;line-height:1.25;font-family:sans-serif;letter-spacing:0px;stroke-width:0.795155">
      <path
         d="m 110.36992,223.41642 h -1.10266 v 1.69799 h -0.91112 v -1.69799 h -3.49434 v -0.82311 l 3.43222,-5.08881 h 0.97324 v 5.05257 h 1.10266 z m -2.01378,-0.85935 v -1.84295 q 0,-0.2899 0.005,-0.60568 0.0103,-0.32096 0.0207,-0.62122 0.0104,-0.30543 0.0207,-0.56945 0.0155,-0.26401 0.0207,-0.44003 h -0.0466 q -0.0362,0.10354 -0.0932,0.23296 -0.0518,0.12424 -0.11907,0.25366 -0.0621,0.12425 -0.12942,0.24331 -0.0673,0.11907 -0.12425,0.2019 l -2.12766,3.1475 z"
         style="stroke-width:0.795155"
         id="path919" />
      <path
         d="m 115.92463,221.31981 q 0,0.9163 -0.1346,1.64105 -0.12942,0.72475 -0.42449,1.2269 -0.2899,0.50215 -0.75064,0.76617 -0.46074,0.26402 -1.11819,0.26402 -0.61086,0 -1.06642,-0.26402 -0.45039,-0.26402 -0.75064,-0.76617 -0.29508,-0.50215 -0.44521,-1.2269 -0.14495,-0.72475 -0.14495,-1.64105 0,-0.91629 0.12942,-1.64105 0.1346,-0.72475 0.41933,-1.22172 0.2899,-0.50215 0.74546,-0.76617 0.46073,-0.26402 1.11301,-0.26402 0.61604,0 1.0716,0.26402 0.45556,0.25884 0.75581,0.76099 0.30026,0.49697 0.45038,1.22173 0.15013,0.72475 0.15013,1.64622 z m -3.87743,0 q 0,0.77652 0.0777,1.35632 0.0777,0.57981 0.24848,0.96807 0.17084,0.38308 0.44521,0.5798 0.27955,0.19154 0.67816,0.19154 0.39861,0 0.67816,-0.19154 0.27955,-0.19154 0.45556,-0.57463 0.18119,-0.38308 0.25884,-0.96288 0.0828,-0.58498 0.0828,-1.36668 0,-0.77652 -0.0828,-1.35632 -0.0776,-0.5798 -0.25884,-0.96289 -0.17601,-0.38308 -0.45556,-0.57462 -0.27955,-0.19155 -0.67816,-0.19155 -0.39861,0 -0.67816,0.19155 -0.27437,0.19154 -0.44521,0.57462 -0.17083,0.38309 -0.24848,0.96289 -0.0777,0.5798 -0.0777,1.35632 z"
         style="stroke-width:0.795155"
         id="path921" />
      <path
         d="m 117.71581,219.80301 q 0,0.85417 0.18119,1.28384 0.18636,0.4245 0.6005,0.4245 0.80759,0 0.80759,-1.70834 0,-1.698 -0.80759,-1.698 -0.41414,0 -0.6005,0.4245 -0.18119,0.41932 -0.18119,1.2735 z m 2.35544,0 q 0,0.55909 -0.0932,1.0043 -0.0932,0.4452 -0.28472,0.75063 -0.19154,0.30544 -0.4918,0.47109 -0.29508,0.16048 -0.70405,0.16048 -0.3779,0 -0.6678,-0.16048 -0.2899,-0.16565 -0.48662,-0.47109 -0.19672,-0.30543 -0.29508,-0.75063 -0.0984,-0.44521 -0.0984,-1.0043 0,-0.5591 0.088,-0.99913 0.0932,-0.44003 0.27954,-0.74028 0.19154,-0.30543 0.48145,-0.46591 0.29507,-0.16048 0.69886,-0.16048 0.38827,0 0.67817,0.16048 0.29507,0.16048 0.49179,0.46591 0.2019,0.30025 0.30026,0.74028 0.10353,0.44003 0.10353,0.99913 z m 2.21568,3.03361 q 0,0.85417 0.18119,1.27867 0.18636,0.42449 0.60051,0.42449 0.80758,0 0.80758,-1.70316 0,-1.698 -0.80758,-1.698 -0.41415,0 -0.60051,0.4245 -0.18119,0.41932 -0.18119,1.2735 z m 2.35027,0 q 0,0.55909 -0.0932,1.0043 -0.088,0.44002 -0.27955,0.74546 -0.19154,0.30543 -0.4918,0.47109 -0.29508,0.16048 -0.70404,0.16048 -0.38309,0 -0.67299,-0.16048 -0.2899,-0.16566 -0.48662,-0.47109 -0.19154,-0.30544 -0.2899,-0.74546 -0.0984,-0.44521 -0.0984,-1.0043 0,-0.5591 0.088,-0.99913 0.0932,-0.44003 0.27954,-0.74028 0.19154,-0.30543 0.48145,-0.46591 0.29507,-0.16049 0.69887,-0.16049 0.38826,0 0.67816,0.16049 0.29507,0.16048 0.49179,0.46591 0.19672,0.30025 0.29508,0.74028 0.10354,0.44003 0.10354,0.99913 z m -1.32527,-5.2907 -4.19839,7.56849 h -0.81793 l 4.20357,-7.56849 z"
         style="stroke-width:0.795155"
         id="path923" />
    </g>
  </g>
</svg>
