<?xml version="1.0" encoding="UTF-8" standalone="no"?>
<svg
   xmlns:dc="http://purl.org/dc/elements/1.1/"
   xmlns:cc="http://creativecommons.org/ns#"
   xmlns:rdf="http://www.w3.org/1999/02/22-rdf-syntax-ns#"
   xmlns:svg="http://www.w3.org/2000/svg"
   xmlns="http://www.w3.org/2000/svg"
   xmlns:sodipodi="http://sodipodi.sourceforge.net/DTD/sodipodi-0.dtd"
   xmlns:inkscape="http://www.inkscape.org/namespaces/inkscape"
   sodipodi:docname="t1ej2.svg"
   inkscape:version="1.0 (4035a4fb49, 2020-05-01)"
   id="svg8"
   version="1.1"
   viewBox="0 0 240 120"
   height="120mm"
   width="240mm">
  <defs
     id="defs2" />
  <sodipodi:namedview
     inkscape:snap-page="false"
     inkscape:document-rotation="0"
     inkscape:window-maximized="1"
     inkscape:window-y="18"
     inkscape:window-x="960"
     inkscape:window-height="1043"
     inkscape:window-width="958"
     inkscape:guide-bbox="true"
     showguides="true"
     width="200mm"
     showborder="true"
     showgrid="true"
     inkscape:current-layer="layer2"
     inkscape:document-units="mm"
     inkscape:cy="214.42211"
     inkscape:cx="494.05509"
     inkscape:zoom="0.70312851"
     inkscape:pageshadow="2"
     inkscape:pageopacity="0.0"
     borderopacity="1.0"
     bordercolor="#666666"
     pagecolor="#ffffff"
     id="base">
    <inkscape:grid
       dotted="false"
       empspacing="4"
       spacingy="10"
       spacingx="10"
       units="mm"
       id="grid815"
       type="xygrid" />
  </sodipodi:namedview>
  <metadata
     id="metadata5">
    <rdf:RDF>
      <cc:Work
         rdf:about="">
        <dc:format>image/svg+xml</dc:format>
        <dc:type
           rdf:resource="http://purl.org/dc/dcmitype/StillImage" />
        <dc:title></dc:title>
      </cc:Work>
    </rdf:RDF>
  </metadata>
  <g
     inkscape:label="Layer 2"
     id="layer2"
     inkscape:groupmode="layer">
    <path
       d="M 15,10 H 85 V 110 H 15 Z"
       style="opacity:0.99;fill:#fabc31;fill-opacity:0.272383;stroke:#000000;stroke-width:1.565;stroke-linecap:round;stroke-linejoin:round;paint-order:stroke fill markers"
       id="rect838" />
    <rect
       style="opacity:0.99;fill:#e139a0;fill-opacity:0.272383;stroke:#000000;stroke-width:1.565;stroke-linecap:round;stroke-linejoin:round;paint-order:stroke fill markers"
       id="rect840"
       width="140"
       height="100"
       x="85"
       y="10" />
    <g
       transform="translate(0,9.8453926)"
       id="g1113">
      <g
         aria-label="IMPAR"
         transform="scale(0.76448012,1.3080785)"
         id="text844-3"
         style="font-size:30.157px;line-height:1.25;font-family:sans-serif;letter-spacing:0px;stroke-width:2.26178">
        <path
           d="M 29.614575,31.26844 H 21.810274 V 29.76648 L 24.34299,29.162751 V 11.846037 L 21.810274,11.242308 V 9.7403478 h 7.804301 v 1.5019602 l -2.532716,0.603729 v 17.316714 l 2.532716,0.603729 z"
           style="stroke-width:2.26178"
           id="path1063" />
        <path
           d="M 42.646286,31.26844 36.123068,12.420316 h -0.117801 q 0.08835,1.089657 0.147251,2.164589 0.0589,0.927681 0.08835,1.958438 0.04417,1.016032 0.04417,1.855362 V 31.26844 H 33.752327 V 9.7403478 h 4.064127 l 6.06674,17.5523162 h 0.08835 l 6.09619,-17.5523162 h 4.064127 V 31.26844 H 51.392994 V 18.207279 q 0,-0.765705 0.02945,-1.752287 0.02945,-0.986581 0.07363,-1.884812 0.0589,-1.045482 0.103075,-2.120414 h -0.1178 L 44.899226,31.26844 Z"
           style="stroke-width:2.26178"
           id="path1065" />
        <path
           d="m 72.891638,16.042689 q 0,1.339984 -0.412302,2.576893 -0.397578,1.236908 -1.325259,2.194039 -0.927681,0.942406 -2.459091,1.516685 -1.516685,0.559554 -3.7549,0.559554 h -2.208765 v 8.37858 H 59.992453 V 9.7403478 h 5.330485 q 1.973163,0 3.401498,0.4270282 1.428334,0.412302 2.356015,1.222183 0.927682,0.795155 1.369434,1.973163 0.441753,1.178008 0.441753,2.679967 z m -10.160317,4.520605 h 1.899538 q 1.369434,0 2.385465,-0.235601 1.030757,-0.235602 1.693387,-0.75098 0.677354,-0.530104 1.016031,-1.354709 0.338678,-0.839331 0.338678,-2.032064 0,-2.090963 -1.207458,-3.09227 -1.207458,-1.016032 -3.769625,-1.016032 h -2.356016 z"
           style="stroke-width:2.26178"
           id="path1067" />
        <path
           d="M 88.765292,31.26844 86.409276,24.597971 H 78.384098 L 75.998633,31.26844 H 73.230314 L 81.137692,9.6519972 h 2.503266 L 91.563061,31.26844 Z m -3.224796,-9.10011 -2.179315,-6.243441 q -0.08835,-0.265052 -0.220876,-0.647905 -0.117801,-0.382852 -0.250327,-0.824605 -0.132526,-0.441753 -0.265052,-0.912956 -0.132525,-0.485928 -0.250326,-0.942406 -0.103076,0.456478 -0.235602,0.942406 -0.132526,0.485928 -0.265052,0.942406 -0.132525,0.441753 -0.265051,0.824606 -0.117801,0.368127 -0.206152,0.618454 l -2.135139,6.243441 z"
           style="stroke-width:2.26178"
           id="path1069" />
        <path
           d="M 97.232221,22.374481 V 31.26844 H 94.493353 V 9.7403478 h 5.242135 q 3.916872,0 5.786962,1.5166852 1.87009,1.516685 1.87009,4.59423 0,1.281084 -0.36813,2.238215 -0.3534,0.957131 -0.95713,1.649211 -0.589,0.677354 -1.35471,1.133832 -0.7657,0.456478 -1.57558,0.75098 l 5.86058,9.644939 h -3.22479 l -5.16851,-8.893959 z m 0,-2.326565 h 2.414916 q 1.325263,0 2.252943,-0.250327 0.92768,-0.265051 1.51668,-0.765705 0.60373,-0.515378 0.86878,-1.266358 0.27978,-0.765705 0.27978,-1.781737 0,-1.060207 -0.30923,-1.796462 -0.2945,-0.736255 -0.91295,-1.207458 -0.60373,-0.471203 -1.54614,-0.677354 -0.92768,-0.220877 -2.208763,-0.220877 h -2.356016 z"
           style="stroke-width:2.26178"
           id="path1071" />
      </g>
      <g
         aria-label="PAR"
         transform="scale(0.76448012,1.3080785)"
         id="text844-3-7"
         style="font-size:30.1569px;line-height:1.25;font-family:sans-serif;letter-spacing:0px;stroke-width:2.26178">
        <path
           d="m 191.14882,15.67839 q 0,1.33998 -0.4123,2.576884 -0.39757,1.236904 -1.32525,2.194032 -0.92768,0.942403 -2.45908,1.51668 -1.51668,0.559552 -3.75489,0.559552 h -2.20876 v 8.378553 h -2.73886 V 9.3760692 h 5.33047 q 1.97316,0 3.40149,0.4270264 1.42833,0.4123014 2.356,1.2221794 0.92768,0.795152 1.36943,1.973156 0.44175,1.178004 0.44175,2.679959 z m -10.16028,4.52059 h 1.89953 q 1.36943,0 2.38546,-0.235601 1.03075,-0.2356 1.69338,-0.750977 0.67735,-0.530102 1.01603,-1.354705 0.33868,-0.839327 0.33868,-2.032056 0,-2.090957 -1.20746,-3.092261 -1.20745,-1.016028 -3.76961,-1.016028 h -2.35601 z"
           style="stroke-width:2.26178"
           id="path1074" />
        <path
           d="m 207.02243,30.904091 -2.35601,-6.670447 h -8.02515 l -2.38546,6.670447 h -2.76831 l 7.90735,-21.6163721 h 2.50326 l 7.92208,21.6163721 z m -3.22479,-9.10008 -2.17931,-6.243421 q -0.0883,-0.265051 -0.22087,-0.647902 -0.1178,-0.382852 -0.25033,-0.824603 -0.13252,-0.441752 -0.26505,-0.912953 -0.13252,-0.485927 -0.25032,-0.942403 -0.10308,0.456476 -0.2356,0.942403 -0.13253,0.485926 -0.26506,0.942403 -0.13252,0.441751 -0.26505,0.824603 -0.1178,0.368126 -0.20615,0.618452 l -2.13513,6.243421 z"
           style="stroke-width:2.26178"
           id="path1076" />
        <path
           d="m 215.48933,22.010161 v 8.89393 h -2.73886 V 9.3760692 h 5.24212 q 3.91686,0 5.78694,1.5166798 1.87008,1.51668 1.87008,4.594216 0,1.281079 -0.36812,2.238207 -0.3534,0.957128 -0.95713,1.649205 -0.589,0.677353 -1.3547,1.133829 -0.76571,0.456477 -1.57558,0.750978 l 5.86056,9.644907 h -3.22478 l -5.16849,-8.89393 z m 0,-2.326557 h 2.41491 q 1.32525,0 2.25293,-0.250326 0.92768,-0.265051 1.51668,-0.765703 0.60373,-0.515377 0.86878,-1.266354 0.27977,-0.765703 0.27977,-1.781731 0,-1.060204 -0.30922,-1.796456 -0.2945,-0.736252 -0.91295,-1.207454 -0.60373,-0.471202 -1.54613,-0.677352 -0.92768,-0.220876 -2.20876,-0.220876 h -2.35601 z"
           style="stroke-width:2.26178"
           id="path1078" />
      </g>
      <g
         aria-label="1/3"
         transform="scale(0.76448012,1.3080785)"
         id="text844-3-1"
         style="font-size:30.1569px;line-height:1.25;font-family:sans-serif;letter-spacing:0px;stroke-width:2.26178">
        <path
           d="M 53.226311,67.10218 H 50.634703 V 53.658211 q 0,-0.633177 0,-1.354705 0.01472,-0.721527 0.02945,-1.42833 0.02945,-0.721527 0.04418,-1.369429 0.02945,-0.662627 0.04417,-1.163279 -0.250326,0.265051 -0.441751,0.456477 -0.191426,0.191425 -0.397577,0.368126 -0.191425,0.1767 -0.412301,0.382851 -0.220876,0.191426 -0.530102,0.456477 l -2.179307,1.78173 -1.413605,-1.811181 5.639694,-4.402789 h 2.208757 z"
           style="stroke-width:2.26178"
           id="path1081" />
        <path
           d="M 70.307369,45.574159 62.296942,67.10218 H 59.661158 L 67.68631,45.574159 Z"
           style="stroke-width:2.26178"
           id="path1083" />
        <path
           d="m 84.767366,50.610126 q 0,1.074928 -0.338676,1.958431 -0.338676,0.883503 -0.957128,1.531405 -0.603727,0.647902 -1.45778,1.074929 -0.854053,0.412301 -1.899531,0.589002 v 0.08835 q 2.606334,0.323951 3.961038,1.663931 1.354705,1.325254 1.354705,3.460386 0,1.413605 -0.485927,2.591609 -0.471202,1.178004 -1.443055,2.032056 -0.971853,0.854053 -2.459083,1.325255 -1.48723,0.471201 -3.519287,0.471201 -1.60503,0 -3.03336,-0.250325 -1.413604,-0.250326 -2.665234,-0.912953 v -2.503259 q 1.28108,0.677353 2.76831,1.045479 1.501955,0.368126 2.871384,0.368126 1.354705,0 2.341283,-0.294501 0.986578,-0.294501 1.619755,-0.839328 0.647902,-0.544827 0.942403,-1.339979 0.309226,-0.795153 0.309226,-1.781731 0,-1.001304 -0.397576,-1.708106 -0.382851,-0.721527 -1.104379,-1.178004 -0.721527,-0.471201 -1.767005,-0.692077 -1.030754,-0.220876 -2.341283,-0.220876 h -1.958432 v -2.223482 h 1.958432 q 1.192729,0 2.120407,-0.294501 0.927678,-0.294501 1.54613,-0.839328 0.633177,-0.544827 0.957128,-1.295804 0.323951,-0.750978 0.323951,-1.649206 0,-0.765702 -0.265051,-1.369429 Q 81.48368,48.81367 80.997754,48.401368 80.511827,47.974342 79.834475,47.753466 79.157123,47.53259 78.33252,47.53259 q -1.57558,0 -2.783034,0.500652 -1.192729,0.485927 -2.282383,1.281079 L 71.912399,47.47369 q 0.559551,-0.456476 1.236904,-0.854053 0.692077,-0.397576 1.501955,-0.692077 0.809877,-0.309226 1.72283,-0.485927 0.927679,-0.1767 1.958432,-0.1767 1.590305,0 2.783034,0.397576 1.207454,0.397576 2.017332,1.119104 0.809878,0.706802 1.222179,1.69338 0.412301,0.971854 0.412301,2.135133 z"
           style="stroke-width:2.26178"
           id="path1085" />
      </g>
      <g
         aria-label="2/3"
         transform="scale(0.76448012,1.3080785)"
         id="text844-3-1-7"
         style="font-size:30.1569px;line-height:1.25;font-family:sans-serif;letter-spacing:0px;stroke-width:2.26178">
        <path
           d="m 194.94789,67.10218 h -13.42924 v -2.297107 l 5.15376,-5.610244 q 1.10438,-1.192729 1.97316,-2.179307 0.86878,-0.986578 1.4725,-1.928982 0.61846,-0.942403 0.94241,-1.884806 0.32395,-0.957128 0.32395,-2.076232 0,-0.868778 -0.25033,-1.531405 -0.25032,-0.662627 -0.72152,-1.119104 -0.45648,-0.471201 -1.08966,-0.706802 -0.63317,-0.235601 -1.4136,-0.235601 -1.39888,0 -2.53271,0.574277 -1.1191,0.559552 -2.13513,1.443055 l -1.50196,-1.752281 q 0.589,-0.530102 1.26636,-0.986578 0.67735,-0.471202 1.45778,-0.809878 0.78042,-0.338676 1.6492,-0.530102 0.86878,-0.20615 1.82591,-0.20615 1.4136,0 2.54743,0.397576 1.14855,0.397576 1.94371,1.148554 0.79515,0.736252 1.22218,1.811181 0.44175,1.060203 0.44175,2.400183 0,1.251629 -0.39758,2.385458 -0.38285,1.133829 -1.07493,2.238207 -0.67735,1.089654 -1.63448,2.194033 -0.9424,1.104378 -2.04678,2.297107 l -4.13774,4.40279 v 0.1178 h 10.14556 z"
           style="stroke-width:2.26178"
           id="path1088" />
        <path
           d="m 207.65561,45.574159 -8.01043,21.528021 h -2.63578 l 8.02515,-21.528021 z"
           style="stroke-width:2.26178"
           id="path1090" />
        <path
           d="m 222.11561,50.610126 q 0,1.074928 -0.33868,1.958431 -0.33868,0.883503 -0.95713,1.531405 -0.60372,0.647902 -1.45778,1.074929 -0.85405,0.412301 -1.89953,0.589002 v 0.08835 q 2.60633,0.323951 3.96104,1.663931 1.3547,1.325254 1.3547,3.460386 0,1.413605 -0.48592,2.591609 -0.4712,1.178004 -1.44306,2.032056 -0.97185,0.854053 -2.45908,1.325255 -1.48723,0.471201 -3.51929,0.471201 -1.60503,0 -3.03336,-0.250325 -1.4136,-0.250326 -2.66523,-0.912953 v -2.503259 q 1.28108,0.677353 2.76831,1.045479 1.50195,0.368126 2.87138,0.368126 1.35471,0 2.34128,-0.294501 0.98658,-0.294501 1.61976,-0.839328 0.6479,-0.544827 0.9424,-1.339979 0.30923,-0.795153 0.30923,-1.781731 0,-1.001304 -0.39758,-1.708106 -0.38285,-0.721527 -1.10438,-1.178004 -0.72152,-0.471201 -1.767,-0.692077 -1.03075,-0.220876 -2.34128,-0.220876 h -1.95844 v -2.223482 h 1.95844 q 1.19272,0 2.1204,-0.294501 0.92768,-0.294501 1.54613,-0.839328 0.63318,-0.544827 0.95713,-1.295804 0.32395,-0.750978 0.32395,-1.649206 0,-0.765702 -0.26505,-1.369429 -0.26505,-0.603727 -0.75098,-1.016029 -0.48592,-0.427026 -1.16328,-0.647902 -0.67735,-0.220876 -1.50195,-0.220876 -1.57558,0 -2.78303,0.500652 -1.19273,0.485927 -2.28239,1.281079 l -1.3547,-1.840631 q 0.55955,-0.456476 1.2369,-0.854053 0.69208,-0.397576 1.50196,-0.692077 0.80988,-0.309226 1.72283,-0.485927 0.92768,-0.1767 1.95843,-0.1767 1.59031,0 2.78303,0.397576 1.20746,0.397576 2.01734,1.119104 0.80987,0.706802 1.22217,1.69338 0.41231,0.971854 0.41231,2.135133 z"
           style="stroke-width:2.26178"
           id="path1092" />
      </g>
    </g>
  </g>
</svg>
